<?xml version="1.0" encoding="UTF-8"?>
<svg id="Layer_1" xmlns="http://www.w3.org/2000/svg" version="1.1" viewBox="0 0 1100 232">
  <!-- Generator: Adobe Illustrator 29.5.1, SVG Export Plug-In . SVG Version: 2.1.0 Build 141)  -->
  <defs>
    <style>
      .st0 {
        fill: #010101;
      }
    </style>
  </defs>
  <polygon class="st0" points="110.07 121.03 78.84 121.03 78.84 74.33 37.96 74.33 37.96 201.32 78.84 201.32 78.84 151.92 110.07 151.92 110.07 201.32 150.96 201.32 150.96 74.33 110.07 74.33 110.07 121.03"/>
  <path class="st0" d="M454.45,106.7h-34.32l-24.91,27.35c-2.41,2.61-4.79,5.49-7.13,8.65.19-9.98.29-15.69.29-17.12v-51.26h-36.5v64.49c-1.8-9.29-6.43-17.1-13.9-23.42-8.39-7.1-19.26-10.65-32.59-10.65-15.03,0-27.24,4.7-36.64,14.09-8.8,8.8-13.48,19.84-14.04,33.12v-6.84c0-10.23-.67-17.15-2-20.75-1.33-3.6-3.95-7.01-7.86-10.23-3.9-3.22-9.21-5.6-15.91-7.12-6.7-1.52-14.05-2.28-22.05-2.28-29.47,0-46.74,9.89-51.82,29.68l35.52,3.16c1.04-6.88,6.05-10.33,15.03-10.33,3.84,0,6.75.68,8.73,2.05,1.98,1.37,2.98,4.13,2.98,8.28v2.14c-24.27,1.24-41.16,4.95-50.69,11.12-9.53,6.17-14.3,14.25-14.3,24.23,0,7.38,2.91,13.92,8.73,19.63,5.82,5.71,14.59,8.56,26.3,8.56,14.25,0,24.88-5.05,31.91-15.16,0,4.78.45,9.18,1.37,13.21h37.08c-2.02-5.08-3.03-11.22-3.03-18.42v-25.51c.56,12.99,5.28,23.75,14.14,32.25,9.47,9.09,21.78,13.63,36.93,13.63,13.53,0,24.38-3.47,32.54-10.42,6.83-5.81,11.35-13.07,13.55-21.75v30.22h36.5v-26.05l10.61-11.84,18.62,37.89h40.25l-33.41-62.11,29.99-32.5ZM217.35,161.59c0,8.06-1.46,13.27-4.39,15.63-2.93,2.36-6.47,3.53-10.64,3.53-6.57,0-9.86-2.85-9.86-8.56,0-8.43,8.29-13.49,24.88-15.16v4.56ZM319.75,163.17c-1.3,9.37-5.43,14.05-12.39,14.05-4.75,0-8.08-1.86-10-5.58-1.92-3.72-2.88-9.46-2.88-17.21,0-8.99.96-15.3,2.88-18.93,1.92-3.63,4.96-5.44,9.12-5.44,6.5,0,10.47,4.99,11.9,14.98l33.51-2.66v23.41l-32.14-2.61Z"/>
  <path class="st0" d="M536.02,118.52c-9.79-9.18-22.62-13.77-38.5-13.77s-29.5,4.87-39.33,14.6c-9.82,9.74-14.73,21.68-14.73,35.82s4.98,25.07,14.93,34.28c9.95,9.21,23.29,13.82,40.01,13.82,15.03,0,26.95-3.27,35.76-9.81,8.81-6.54,14.3-14.47,16.44-23.77l-36.3-2.33c-1.5,7.75-6.47,11.63-14.93,11.63-5.85,0-9.82-1.44-11.91-4.33-2.08-2.88-3.19-7.3-3.32-13.26h66.45c.06-2.29.1-4.09.1-5.4,0-15.82-4.9-28.31-14.69-37.49ZM484.06,142.8c0-10.79,4.6-16.19,13.81-16.19,3.89,0,7.15,1.1,9.77,3.3,2.63,2.2,3.97,6.5,4.04,12.88h-27.62Z"/>
  <path class="st0" d="M1099.74,156.01c0-15.82-4.9-28.31-14.69-37.49-9.79-9.18-22.62-13.77-38.5-13.77s-29.5,4.87-39.33,14.6c-3.77,3.74-6.81,7.8-9.14,12.19-2.43-6.17-6.36-11.55-11.79-16.15-8.39-7.1-19.26-10.65-32.59-10.65-15.03,0-27.24,4.7-36.64,14.09-8.8,8.79-13.48,19.83-14.04,33.11v-6.83c0-10.23-.67-17.15-2-20.75-1.33-3.6-3.95-7.01-7.86-10.23-3.9-3.22-9.21-5.6-15.91-7.12-6.7-1.52-14.05-2.28-22.05-2.28-29.47,0-46.74,9.89-51.82,29.68l35.52,3.16c1.04-6.88,6.05-10.33,15.03-10.33,3.84,0,6.75.68,8.73,2.05,1.98,1.37,2.98,4.13,2.98,8.28v2.14c-24.27,1.24-41.16,4.95-50.69,11.12-4.11,2.66-7.32,5.68-9.66,9.04.13-1.98.2-4.01.2-6.11,0-15.13-3.35-27.09-10.05-35.86-6.7-8.78-15.97-13.16-27.81-13.16-13.66,0-23,5.12-28.01,15.35v-13.4h-35.81v54.06c-1.02-3.15-2.61-6.03-4.82-8.6-4.1-4.78-9.04-8.07-14.83-9.87-5.79-1.8-16.82-3.56-33.08-5.27-6.25-.67-9.37-2.56-9.37-5.66,0-1.05,1.02-2.12,3.07-3.21,2.05-1.08,5.16-1.63,9.32-1.63,8.78,0,14.54,2.79,17.27,8.37l29.47-5.3c-6.64-16.56-21.99-24.84-46.06-24.84-13.73,0-24.82,2.99-33.28,8.98-2.64,1.87-4.86,3.91-6.67,6.13v-14.55c-2.41-.25-4.29-.37-5.66-.37-13.53,0-22.15,7.1-25.86,21.3v-19.54h-32.4v94.61h37.28v-43.35c0-13.71,6.44-20.56,19.32-20.56.42,0,.87.02,1.31.05.06,6.85,2.55,13.09,7.51,18.7,5.01,5.67,17.6,9.85,37.76,12.51,7.29.93,11.91,1.85,13.86,2.75,1.95.9,2.93,2.16,2.93,3.77,0,3.72-5.04,5.58-15.13,5.58-12.17,0-19.13-3.41-20.88-10.23l-30.74,4c6.37,19.16,23,28.75,49.86,28.75,15.94,0,28.45-3.04,37.52-9.12,6.24-4.18,10.34-9.38,12.29-15.59v52.62h38.94v-40c5.79,8.06,14.21,12.09,25.27,12.09s20.31-4.47,27.18-13.4c2.35-3.06,4.29-6.5,5.84-10.29.96,5.57,3.74,10.61,8.35,15.13,5.82,5.71,14.59,8.56,26.3,8.56,14.25,0,24.88-5.05,31.91-15.16,0,4.78.45,9.18,1.37,13.21h37.08c-2.02-5.08-3.02-11.22-3.02-18.42v-25.5c.57,12.99,5.28,23.74,14.14,32.25,9.47,9.09,21.78,13.63,36.93,13.63,13.53,0,24.38-3.47,32.54-10.42,5.06-4.3,8.84-9.39,11.37-15.27,2.37,4.3,5.5,8.26,9.41,11.87,9.95,9.21,23.29,13.82,40.01,13.82,15.03,0,26.95-3.27,35.76-9.81,8.81-6.54,14.3-14.47,16.44-23.77l-36.3-2.33c-1.5,7.75-6.47,11.63-14.93,11.63-5.85,0-9.82-1.44-11.91-4.33-2.08-2.88-3.19-7.3-3.32-13.26h66.45c.06-2.29.1-4.09.1-5.4ZM762.97,173.83c-1.76,4.13-4.98,6.19-9.66,6.19-2.99,0-5.5-1.16-7.51-3.49-2.02-2.33-3.02-5.6-3.02-9.81v-27.17c0-4.09,1.19-7.04,3.56-8.84,2.37-1.8,4.77-2.7,7.17-2.7,4.03,0,7.06,2,9.08,6,2.02,4,3.03,10.93,3.03,20.79,0,8.56-.88,14.9-2.63,19.02ZM865.66,161.59c0,8.06-1.46,13.27-4.39,15.63-2.93,2.36-6.47,3.53-10.64,3.53-6.57,0-9.86-2.85-9.86-8.56,0-8.43,8.29-13.49,24.88-15.16v4.56ZM968.06,163.17c-1.3,9.37-5.43,14.05-12.39,14.05-4.75,0-8.08-1.86-10-5.58-1.92-3.72-2.88-9.46-2.88-17.21,0-8.99.96-15.3,2.88-18.93,1.92-3.63,4.96-5.44,9.12-5.44,6.5,0,10.47,4.99,11.9,14.98l27.17-2.15c-.91,3.89-1.37,7.99-1.37,12.29,0,3.5.33,6.86.99,10.07l-25.42-2.07ZM1033.09,142.8c0-10.79,4.6-16.19,13.81-16.19,3.89,0,7.15,1.1,9.77,3.3,2.63,2.2,3.97,6.5,4.04,12.88h-27.62Z"/>
  <path class="st0" d="M43.64,40.25c0-3.27-1.04-6.2-3.13-8.79-2.08-2.59-5.27-4.39-9.56-5.4,6.25-1.79,9.78-5.19,10.61-10.18l15.05,38.98c-1.5,4.54-3,7.39-4.5,8.57-1.5,1.17-3.37,1.76-5.6,1.76-1.31,0-2.87-.19-4.69-.57v5.03c2.2.57,4.22.86,6.03.86,5.75,0,9.94-3.32,12.56-9.97l18.08-46.1h-5.92l-12.34,31.01-12.11-31.01h-6.41c.02-.31.03-.63.03-.95,0-3.59-1.47-6.75-4.4-9.47C34.43,1.29,29.93-.07,23.86-.07H-.26v55.78h24.12c6.73,0,11.71-1.48,14.94-4.44,3.23-2.96,4.85-6.63,4.85-11.02ZM7.11,5.61h15.23c3.93,0,6.88.79,8.86,2.37,1.98,1.58,2.97,3.65,2.97,6.21s-.92,4.84-2.77,6.76c-1.85,1.92-5.52,2.88-11.03,2.88H7.11V5.61ZM32.7,46.92c-2.17,1.77-5.26,2.66-9.24,2.66H7.11v-20.43h15.23c3.54,0,6.21.46,7.99,1.39,1.79.93,3.17,2.24,4.15,3.94.98,1.7,1.47,3.55,1.47,5.54,0,2.83-1.09,5.14-3.26,6.91Z"/>
  <path class="st0" d="M80.26,50.78c3.4,4.05,7.74,6.07,13.01,6.07,6.35,0,11.11-2.74,14.26-8.21v7.07h6.34V-.07h-7.01v20.15c-3.42-4.52-7.85-6.78-13.26-6.78s-10.03,2.11-13.4,6.32c-3.36,4.21-5.05,9.48-5.05,15.81s1.7,11.31,5.1,15.36ZM86.21,22.65c2.25-2.83,5.11-4.25,8.6-4.25,3.22,0,6.03,1.09,8.44,3.27,2.41,2.18,3.62,5.08,3.62,8.7v8.58c0,3.38-1.25,6.32-3.75,8.83-2.5,2.51-5.39,3.76-8.66,3.76-3.6,0-6.44-1.44-8.51-4.33-2.07-2.89-3.1-7.1-3.1-12.63,0-5.12,1.12-9.1,3.37-11.93Z"/>
  <path class="st0" d="M116.35,60.4c0,3.3,1.64,5.94,4.93,7.91,3.29,1.98,8.52,2.97,15.7,2.97,15.12,0,22.69-3.94,22.69-11.81,0-2.51-.85-4.62-2.55-6.35s-3.77-2.85-6.23-3.35c-2.46-.5-6.26-.82-11.41-.96-6.07-.14-9.93-.45-11.57-.94-1.64-.49-2.46-1.55-2.46-3.19,0-1.14.57-2.08,1.7-2.8,1.13-.72,2.1-1.08,2.9-1.08.42,0,1.44.15,3.08.45.86.16,1.89.25,3.08.25,5.3,0,9.52-1.35,12.66-4.05,3.14-2.7,4.71-5.92,4.71-9.68s-1.44-6.92-4.33-9.97c.36-1.77,1.08-3,2.17-3.68,1.09-.68,3.24-1.02,6.45-1.02v-5.11c-.83-.06-1.41-.08-1.74-.08-3.3,0-5.77.52-7.39,1.55-1.62,1.04-2.66,2.9-3.1,5.6-2.77-1.17-5.85-1.76-9.24-1.76-4.79,0-8.86,1.31-12.19,3.92-3.33,2.61-5,5.96-5,10.05,0,4.38,1.95,8.02,5.85,10.91-4.17,1.69-6.25,4.12-6.25,7.31,0,2.67,1.47,4.89,4.42,6.66-4.59,1.5-6.88,4.25-6.88,8.26ZM129.48,20.71c2.05-1.62,4.41-2.43,7.06-2.43s5.13.86,7.08,2.59c1.95,1.73,2.92,3.96,2.92,6.68s-.94,4.84-2.81,6.52c-1.88,1.68-4.3,2.51-7.28,2.51s-5.43-.82-7.28-2.47c-1.85-1.65-2.77-3.81-2.77-6.48,0-3,1.03-5.3,3.08-6.93ZM128.05,54.03c2.35.27,5.98.46,10.9.57,4.11.11,6.99.27,8.64.49s2.95.74,3.91,1.55c.95.82,1.43,1.87,1.43,3.15,0,2.37-1.61,4.05-4.82,5.05-3.22.99-6.76,1.49-10.63,1.49-4.17,0-7.6-.58-10.29-1.74-2.69-1.16-4.04-2.79-4.04-4.88,0-2.48,1.64-4.37,4.91-5.68Z"/>
  <path class="st0" d="M160.78,50.55c3.47,4.2,8.3,6.3,14.49,6.3s11.13-2.04,15-6.12c1.49-1.57,2.68-3.31,3.6-5.22,2.65,7.55,9.19,11.34,19.64,11.34,5.69,0,10.24-1.17,13.67-3.5,3.42-2.33,5.14-5.4,5.14-9.19,0-6.63-4.6-10.71-13.8-12.24l-8.79-1.45c-4.68-.79-7.01-2.71-7.01-5.75,0-1.93.92-3.44,2.75-4.51,1.83-1.07,4.18-1.61,7.03-1.61,5.75,0,9.54,2.15,11.39,6.46l6.43-1.27c-2.29-7-8.34-10.5-18.13-10.5-5.09,0-9.14,1.16-12.15,3.49-3.01,2.33-4.51,5.22-4.51,8.68,0,3.13,1.1,5.65,3.3,7.56,2.2,1.91,5.16,3.19,8.89,3.84l9.51,1.65c5.15.87,7.73,2.93,7.73,6.16,0,2.18-1.01,3.86-3.04,5.06-2.03,1.2-4.5,1.79-7.41,1.79-7.92,0-12.62-2.6-14.11-7.8l-6.26,1.18c1.29-2.93,1.95-6.24,1.95-9.95,0-6.19-1.79-11.35-5.38-15.48-3.59-4.13-8.49-6.2-14.71-6.2-5.81,0-10.66,1.96-14.56,5.89-3.9,3.93-5.85,9.18-5.85,15.75,0,6.22,1.73,11.42,5.2,15.62ZM166.88,22.51c2.41-2.6,5.36-3.9,8.84-3.9s6.36,1.29,8.89,3.86c2.53,2.57,3.8,6.72,3.8,12.44s-1.21,9.89-3.62,12.59c-2.41,2.7-5.4,4.05-8.98,4.05s-6.52-1.29-8.93-3.86c-2.41-2.57-3.62-6.85-3.62-12.81,0-5.64,1.21-9.76,3.62-12.36Z"/>
  <polygon class="st0" points="231.35 50.81 231.35 55.71 264.58 55.71 264.58 50.81 239.78 50.81 264.58 17.91 264.58 14.44 233.18 14.44 233.18 19.46 255.34 19.46 231.35 50.81"/>
  <path class="st0" d="M268.55,50.55c3.26,4.2,8,6.3,14.22,6.3,4.58,0,8.41-1.29,11.48-3.87,3.07-2.58,5.05-6.15,5.94-10.72l-6.34-1.02c-1.55,6.86-5.21,10.3-11.01,10.3-3.74,0-6.65-1.46-8.71-4.39s-3.1-7.03-3.1-12.32c0-4.79,1.04-8.7,3.12-11.71s5.05-4.52,8.91-4.52c6,0,9.6,3.41,10.79,10.22l6.34-1.1c-.71-4.25-2.55-7.72-5.52-10.4-2.96-2.68-6.9-4.02-11.81-4.02-5.93,0-10.61,2.08-14.04,6.24-3.44,4.16-5.16,9.37-5.16,15.64s1.63,11.18,4.89,15.38Z"/>
  <polygon class="st0" points="298.96 50.81 298.96 55.71 332.18 55.71 332.18 50.81 307.38 50.81 332.18 17.91 332.18 14.44 300.79 14.44 300.79 19.46 322.94 19.46 298.96 50.81"/>
</svg>