<?xml version="1.0" encoding="UTF-8"?>
<svg id="Layer_1" xmlns="http://www.w3.org/2000/svg" version="1.1" xmlns:xlink="http://www.w3.org/1999/xlink" viewBox="0 0 490 160">
  <!-- Generator: Adobe Illustrator 29.5.1, SVG Export Plug-In . SVG Version: 2.1.0 Build 141)  -->
  <defs>
    <style>
      .st0 {
        fill: #050507;
      }

      .st1 {
        fill: url(#linear-gradient2);
      }

      .st2 {
        clip-path: url(#clippath-21);
      }

      .st3 {
        clip-path: url(#clippath-6);
      }

      .st4 {
        clip-path: url(#clippath-7);
      }

      .st5 {
        clip-path: url(#clippath-17);
      }

      .st6 {
        clip-path: url(#clippath-15);
      }

      .st7 {
        opacity: .75;
      }

      .st7, .st8, .st9, .st10, .st11, .st12, .st13, .st14, .st15, .st16, .st17, .st18 {
        isolation: isolate;
      }

      .st7, .st19, .st18 {
        fill: #7d7d7d;
      }

      .st20 {
        clip-path: url(#clippath-18);
      }

      .st21 {
        clip-path: url(#clippath-4);
      }

      .st22 {
        fill: url(#linear-gradient10);
      }

      .st23 {
        clip-path: url(#clippath-22);
      }

      .st24 {
        clip-path: url(#clippath-23);
      }

      .st25 {
        fill: #f6da4a;
      }

      .st26 {
        clip-path: url(#clippath-9);
      }

      .st27 {
        clip-path: url(#clippath-10);
      }

      .st8 {
        fill: url(#radial-gradient1);
        opacity: .42;
      }

      .st28 {
        fill: url(#radial-gradient10);
      }

      .st29 {
        fill: url(#linear-gradient1);
      }

      .st30 {
        clip-path: url(#clippath-25);
      }

      .st31 {
        clip-path: url(#clippath-27);
      }

      .st32 {
        fill: url(#linear-gradient9);
      }

      .st9 {
        opacity: .11;
      }

      .st9, .st33, .st34, .st17 {
        fill: #010101;
      }

      .st33 {
        fill-opacity: .26;
      }

      .st35 {
        fill: #f4c021;
      }

      .st36 {
        clip-path: url(#clippath-11);
      }

      .st37 {
        fill: url(#linear-gradient8);
      }

      .st38 {
        fill: url(#linear-gradient11);
      }

      .st39 {
        fill: none;
      }

      .st40 {
        clip-path: url(#clippath-28);
      }

      .st10 {
        fill: url(#radial-gradient3);
      }

      .st10, .st16 {
        opacity: .35;
      }

      .st41 {
        fill: #838385;
      }

      .st42 {
        fill: url(#radial-gradient5);
      }

      .st43 {
        clip-path: url(#clippath-1);
      }

      .st44 {
        clip-path: url(#clippath-5);
      }

      .st45 {
        clip-path: url(#clippath-20);
      }

      .st46 {
        clip-path: url(#clippath-8);
      }

      .st47 {
        fill: url(#linear-gradient12);
      }

      .st48 {
        fill: #d9b428;
      }

      .st49 {
        fill: #5f461b;
      }

      .st50 {
        fill: url(#radial-gradient7);
      }

      .st51 {
        clip-path: url(#clippath-3);
      }

      .st52 {
        clip-path: url(#clippath-26);
      }

      .st53 {
        fill: url(#linear-gradient7);
      }

      .st11 {
        fill: url(#radial-gradient2);
      }

      .st11, .st15 {
        opacity: .2;
      }

      .st54 {
        clip-path: url(#clippath-12);
      }

      .st12 {
        fill: url(#radial-gradient);
        opacity: .25;
      }

      .st55 {
        fill: url(#linear-gradient4);
      }

      .st56 {
        clip-path: url(#clippath-14);
      }

      .st57 {
        clip-path: url(#clippath-19);
      }

      .st13 {
        fill: url(#radial-gradient11);
      }

      .st13, .st14 {
        opacity: .8;
      }

      .st58 {
        fill: url(#linear-gradient14);
      }

      .st59 {
        fill: url(#linear-gradient5);
      }

      .st60 {
        fill: url(#radial-gradient8);
      }

      .st61 {
        fill: #cc8a2a;
      }

      .st62 {
        fill: #f4bd18;
      }

      .st63 {
        fill: url(#linear-gradient15);
      }

      .st64 {
        fill: url(#radial-gradient6);
      }

      .st14 {
        fill: url(#radial-gradient12);
      }

      .st65 {
        fill: url(#linear-gradient6);
      }

      .st66 {
        clip-path: url(#clippath-16);
      }

      .st67 {
        clip-path: url(#clippath-2);
      }

      .st68 {
        clip-path: url(#clippath-29);
      }

      .st69 {
        clip-path: url(#clippath-13);
      }

      .st70 {
        fill: url(#linear-gradient13);
      }

      .st71 {
        fill: #fdfefc;
      }

      .st72 {
        fill: url(#radial-gradient9);
      }

      .st73 {
        fill: url(#linear-gradient);
      }

      .st15 {
        fill: url(#linear-gradient3);
      }

      .st74 {
        clip-path: url(#clippath-24);
      }

      .st75 {
        clip-path: url(#clippath);
      }

      .st76 {
        fill: #d79a28;
      }

      .st16 {
        fill: url(#radial-gradient4);
      }

      .st17 {
        opacity: .3;
      }

      .st18 {
        opacity: .95;
      }
    </style>
    <linearGradient id="linear-gradient" x1="237.03" y1="47.12" x2="148.59" y2="135.57" gradientTransform="translate(612.98 187.5) rotate(-180)" gradientUnits="userSpaceOnUse">
      <stop offset="0" stop-color="#fff" stop-opacity="0"/>
      <stop offset="1" stop-color="#ee2525"/>
    </linearGradient>
    <clipPath id="clippath">
      <path class="st39" d="M446.39,65.87c-2.15,0-4.31.42-6.26,1.48-2.07,1.11-3.77,2.9-4.81,5.01-1.05,2.11-1.46,4.36-1.52,6.84-.12,4.71.11,9.65.46,14.13.09,1.36.27,2.16.09,3.56-.58,2.98-3.18,4.98-4.57,7.59-1.53,2.88-2.18,6.14-3.33,9.19-1.06,2.79-2.54,5.41-3.54,8.23-1.4,3.93-1.82,8.26-.9,12.33.71,3.1,2.18,6.02,4.17,8.51-.29.52-.57,1.04-.86,1.56-.92,1.59-2.05,3.1-2.57,4.86-.26.88-.37,1.82-.2,2.72.17.9.63,1.77,1.34,2.34.47.37,1.04.62,1.62.75.58.13,1.19.16,1.79.15,2.28-.05,4.5-.74,6.71-1.32,1.31-.34,2.63-.65,3.95-.92,4.71-.96,9.97-.58,14.34.05,1.48.23,2.95.52,4.41.87,2.28.55,4.55,1.25,6.89,1.32.62.02,1.24-.01,1.84-.14.6-.14,1.19-.38,1.67-.76.72-.57,1.18-1.44,1.35-2.34.17-.9.06-1.85-.2-2.73-.53-1.76-1.67-3.27-2.61-4.85-.37-.63-.72-1.27-1.09-1.89,2.83-3.18,5.11-6.86,6.43-10.9,1.44-4.41,1.7-9.16,1.1-13.76s-2.06-9.06-3.98-13.28c-2.41-5.29-4.43-7.21-5.9-11.85-1.58-5.03-.28-10.97-1.46-15.53-.42-1.55-1.09-3.03-1.95-4.38-1.01-1.59-2.29-3.01-3.82-4.11-2.43-1.76-5.48-2.7-8.59-2.7h0Z"/>
    </clipPath>
    <radialGradient id="radial-gradient" cx="-268.59" cy="195.72" fx="-268.59" fy="195.72" r=".36" gradientTransform="translate(5533.18 3632.19) scale(19 -18)" gradientUnits="userSpaceOnUse">
      <stop offset="0" stop-color="#010101"/>
      <stop offset="1" stop-color="#010101" stop-opacity=".25"/>
    </radialGradient>
    <clipPath id="clippath-1">
      <path class="st39" d="M446.39,65.87c-2.15,0-4.31.42-6.26,1.48-2.07,1.11-3.77,2.9-4.81,5.01-1.05,2.11-1.46,4.36-1.52,6.84-.12,4.71.11,9.65.46,14.13.09,1.36.27,2.16.09,3.56-.58,2.98-3.18,4.98-4.57,7.59-1.53,2.88-2.18,6.14-3.33,9.19-1.06,2.79-2.54,5.41-3.54,8.23-1.4,3.93-1.82,8.26-.9,12.33.71,3.1,2.18,6.02,4.17,8.51-.29.52-.57,1.04-.86,1.56-.92,1.59-2.05,3.1-2.57,4.86-.26.88-.37,1.82-.2,2.72.17.9.63,1.77,1.34,2.34.47.37,1.04.62,1.62.75.58.13,1.19.16,1.79.15,2.28-.05,4.5-.74,6.71-1.32,1.31-.34,2.63-.65,3.95-.92,4.71-.96,9.97-.58,14.34.05,1.48.23,2.95.52,4.41.87,2.28.55,4.55,1.25,6.89,1.32.62.02,1.24-.01,1.84-.14.6-.14,1.19-.38,1.67-.76.72-.57,1.18-1.44,1.35-2.34.17-.9.06-1.85-.2-2.73-.53-1.76-1.67-3.27-2.61-4.85-.37-.63-.72-1.27-1.09-1.89,2.83-3.18,5.11-6.86,6.43-10.9,1.44-4.41,1.7-9.16,1.1-13.76s-2.06-9.06-3.98-13.28c-2.41-5.29-4.43-7.21-5.9-11.85-1.58-5.03-.28-10.97-1.46-15.53-.42-1.55-1.09-3.03-1.95-4.38-1.01-1.59-2.29-3.01-3.82-4.11-2.43-1.76-5.48-2.7-8.59-2.7h0Z"/>
    </clipPath>
    <radialGradient id="radial-gradient1" cx="-277.25" cy="196.09" fx="-277.25" fy="196.09" r=".36" gradientTransform="translate(6996.14 3642.6) scale(23.6 -18)" xlink:href="#radial-gradient"/>
    <clipPath id="clippath-2">
      <path class="st39" d="M446.39,65.87c-2.15,0-4.31.42-6.26,1.48-2.07,1.11-3.77,2.9-4.81,5.01-1.05,2.11-1.46,4.36-1.52,6.84-.12,4.71.11,9.65.46,14.13.09,1.36.27,2.16.09,3.56-.58,2.98-3.18,4.98-4.57,7.59-1.53,2.88-2.18,6.14-3.33,9.19-1.06,2.79-2.54,5.41-3.54,8.23-1.4,3.93-1.82,8.26-.9,12.33.71,3.1,2.18,6.02,4.17,8.51-.29.52-.57,1.04-.86,1.56-.92,1.59-2.05,3.1-2.57,4.86-.26.88-.37,1.82-.2,2.72.17.9.63,1.77,1.34,2.34.47.37,1.04.62,1.62.75.58.13,1.19.16,1.79.15,2.28-.05,4.5-.74,6.71-1.32,1.31-.34,2.63-.65,3.95-.92,4.71-.96,9.97-.58,14.34.05,1.48.23,2.95.52,4.41.87,2.28.55,4.55,1.25,6.89,1.32.62.02,1.24-.01,1.84-.14.6-.14,1.19-.38,1.67-.76.72-.57,1.18-1.44,1.35-2.34.17-.9.06-1.85-.2-2.73-.53-1.76-1.67-3.27-2.61-4.85-.37-.63-.72-1.27-1.09-1.89,2.83-3.18,5.11-6.86,6.43-10.9,1.44-4.41,1.7-9.16,1.1-13.76s-2.06-9.06-3.98-13.28c-2.41-5.29-4.43-7.21-5.9-11.85-1.58-5.03-.28-10.97-1.46-15.53-.42-1.55-1.09-3.03-1.95-4.38-1.01-1.59-2.29-3.01-3.82-4.11-2.43-1.76-5.48-2.7-8.59-2.7h0Z"/>
    </clipPath>
    <radialGradient id="radial-gradient2" cx="-234.31" cy="195.09" fx="-234.31" fy="195.09" r=".36" gradientTransform="translate(2632.61 2062.47) scale(9.35 -10)" xlink:href="#radial-gradient"/>
    <clipPath id="clippath-3">
      <path class="st39" d="M446.39,65.87c-2.15,0-4.31.42-6.26,1.48-2.07,1.11-3.77,2.9-4.81,5.01-1.05,2.11-1.46,4.36-1.52,6.84-.12,4.71.11,9.65.46,14.13.09,1.36.27,2.16.09,3.56-.58,2.98-3.18,4.98-4.57,7.59-1.53,2.88-2.18,6.14-3.33,9.19-1.06,2.79-2.54,5.41-3.54,8.23-1.4,3.93-1.82,8.26-.9,12.33.71,3.1,2.18,6.02,4.17,8.51-.29.52-.57,1.04-.86,1.56-.92,1.59-2.05,3.1-2.57,4.86-.26.88-.37,1.82-.2,2.72.17.9.63,1.77,1.34,2.34.47.37,1.04.62,1.62.75.58.13,1.19.16,1.79.15,2.28-.05,4.5-.74,6.71-1.32,1.31-.34,2.63-.65,3.95-.92,4.71-.96,9.97-.58,14.34.05,1.48.23,2.95.52,4.41.87,2.28.55,4.55,1.25,6.89,1.32.62.02,1.24-.01,1.84-.14.6-.14,1.19-.38,1.67-.76.72-.57,1.18-1.44,1.35-2.34.17-.9.06-1.85-.2-2.73-.53-1.76-1.67-3.27-2.61-4.85-.37-.63-.72-1.27-1.09-1.89,2.83-3.18,5.11-6.86,6.43-10.9,1.44-4.41,1.7-9.16,1.1-13.76s-2.06-9.06-3.98-13.28c-2.41-5.29-4.43-7.21-5.9-11.85-1.58-5.03-.28-10.97-1.46-15.53-.42-1.55-1.09-3.03-1.95-4.38-1.01-1.59-2.29-3.01-3.82-4.11-2.43-1.76-5.48-2.7-8.59-2.7h0Z"/>
    </clipPath>
    <clipPath id="clippath-4">
      <path class="st39" d="M446.39,65.87c-2.15,0-4.31.42-6.26,1.48-2.07,1.11-3.77,2.9-4.81,5.01-1.05,2.11-1.46,4.36-1.52,6.84-.12,4.71.11,9.65.46,14.13.09,1.36.27,2.16.09,3.56-.58,2.98-3.18,4.98-4.57,7.59-1.53,2.88-2.18,6.14-3.33,9.19-1.06,2.79-2.54,5.41-3.54,8.23-1.4,3.93-1.82,8.26-.9,12.33.71,3.1,2.18,6.02,4.17,8.51-.29.52-.57,1.04-.86,1.56-.92,1.59-2.05,3.1-2.57,4.86-.26.88-.37,1.82-.2,2.72.17.9.63,1.77,1.34,2.34.47.37,1.04.62,1.62.75.58.13,1.19.16,1.79.15,2.28-.05,4.5-.74,6.71-1.32,1.31-.34,2.63-.65,3.95-.92,4.71-.96,9.97-.58,14.34.05,1.48.23,2.95.52,4.41.87,2.28.55,4.55,1.25,6.89,1.32.62.02,1.24-.01,1.84-.14.6-.14,1.19-.38,1.67-.76.72-.57,1.18-1.44,1.35-2.34.17-.9.06-1.85-.2-2.73-.53-1.76-1.67-3.27-2.61-4.85-.37-.63-.72-1.27-1.09-1.89,2.83-3.18,5.11-6.86,6.43-10.9,1.44-4.41,1.7-9.16,1.1-13.76s-2.06-9.06-3.98-13.28c-2.41-5.29-4.43-7.21-5.9-11.85-1.58-5.03-.28-10.97-1.46-15.53-.42-1.55-1.09-3.03-1.95-4.38-1.01-1.59-2.29-3.01-3.82-4.11-2.43-1.76-5.48-2.7-8.59-2.7h0Z"/>
    </clipPath>
    <clipPath id="clippath-5">
      <path class="st39" d="M446.39,65.87c-2.15,0-4.31.42-6.26,1.48-2.07,1.11-3.77,2.9-4.81,5.01-1.05,2.11-1.46,4.36-1.52,6.84-.12,4.71.11,9.65.46,14.13.09,1.36.27,2.16.09,3.56-.58,2.98-3.18,4.98-4.57,7.59-1.53,2.88-2.18,6.14-3.33,9.19-1.06,2.79-2.54,5.41-3.54,8.23-1.4,3.93-1.82,8.26-.9,12.33.71,3.1,2.18,6.02,4.17,8.51-.29.52-.57,1.04-.86,1.56-.92,1.59-2.05,3.1-2.57,4.86-.26.88-.37,1.82-.2,2.72.17.9.63,1.77,1.34,2.34.47.37,1.04.62,1.62.75.58.13,1.19.16,1.79.15,2.28-.05,4.5-.74,6.71-1.32,1.31-.34,2.63-.65,3.95-.92,4.71-.96,9.97-.58,14.34.05,1.48.23,2.95.52,4.41.87,2.28.55,4.55,1.25,6.89,1.32.62.02,1.24-.01,1.84-.14.6-.14,1.19-.38,1.67-.76.72-.57,1.18-1.44,1.35-2.34.17-.9.06-1.85-.2-2.73-.53-1.76-1.67-3.27-2.61-4.85-.37-.63-.72-1.27-1.09-1.89,2.83-3.18,5.11-6.86,6.43-10.9,1.44-4.41,1.7-9.16,1.1-13.76s-2.06-9.06-3.98-13.28c-2.41-5.29-4.43-7.21-5.9-11.85-1.58-5.03-.28-10.97-1.46-15.53-.42-1.55-1.09-3.03-1.95-4.38-1.01-1.59-2.29-3.01-3.82-4.11-2.43-1.76-5.48-2.7-8.59-2.7h0Z"/>
    </clipPath>
    <clipPath id="clippath-6">
      <path class="st39" d="M446.39,65.87c-2.15,0-4.31.42-6.26,1.48-2.07,1.11-3.77,2.9-4.81,5.01-1.05,2.11-1.46,4.36-1.52,6.84-.12,4.71.11,9.65.46,14.13.09,1.36.27,2.16.09,3.56-.58,2.98-3.18,4.98-4.57,7.59-1.53,2.88-2.18,6.14-3.33,9.19-1.06,2.79-2.54,5.41-3.54,8.23-1.4,3.93-1.82,8.26-.9,12.33.71,3.1,2.18,6.02,4.17,8.51-.29.52-.57,1.04-.86,1.56-.92,1.59-2.05,3.1-2.57,4.86-.26.88-.37,1.82-.2,2.72.17.9.63,1.77,1.34,2.34.47.37,1.04.62,1.62.75.58.13,1.19.16,1.79.15,2.28-.05,4.5-.74,6.71-1.32,1.31-.34,2.63-.65,3.95-.92,4.71-.96,9.97-.58,14.34.05,1.48.23,2.95.52,4.41.87,2.28.55,4.55,1.25,6.89,1.32.62.02,1.24-.01,1.84-.14.6-.14,1.19-.38,1.67-.76.72-.57,1.18-1.44,1.35-2.34.17-.9.06-1.85-.2-2.73-.53-1.76-1.67-3.27-2.61-4.85-.37-.63-.72-1.27-1.09-1.89,2.83-3.18,5.11-6.86,6.43-10.9,1.44-4.41,1.7-9.16,1.1-13.76s-2.06-9.06-3.98-13.28c-2.41-5.29-4.43-7.21-5.9-11.85-1.58-5.03-.28-10.97-1.46-15.53-.42-1.55-1.09-3.03-1.95-4.38-1.01-1.59-2.29-3.01-3.82-4.11-2.43-1.76-5.48-2.7-8.59-2.7h0Z"/>
    </clipPath>
    <clipPath id="clippath-7">
      <path class="st39" d="M430.99,102.04c-2.19,2.48-4.43,4.89-5.67,7.57-.61,1.36-.9,2.84-1.32,4.28-.47,1.63-1.12,3.2-1.84,4.74-.67,1.42-1.41,2.8-2.14,4.18-.54,1.01-1.08,2.03-1.27,3.16-.15.89-.06,1.81.16,2.68.23.87.59,1.7,1,2.5,1.75,3.42,4.38,6.37,7.49,8.63,1.41,1.02,2.92,1.91,4.51,2.63.86.39,1.76.74,2.71.76.47.01.95-.07,1.38-.26.43-.19.82-.49,1.08-.89.32-.49.42-1.09.36-1.67s-.29-1.13-.59-1.62c-.74-1.21-1.9-2.09-3.03-2.96-2.42-1.87-4.76-3.86-7.01-5.94-.63-.59-1.27-1.2-1.71-1.94-.43-.72-.66-1.55-.82-2.38-.43-2.27-.32-4.66.45-6.84.3-.85.7-1.67,1.09-2.48.67-1.42,1.3-2.86,2.18-4.16,1.09-1.62,2.56-2.99,3.44-4.72.75-1.47,1.06-3.11,1.35-4.73.23-1.27.66-2.51.89-3.78-.43.82-1.83,2.18-2.69,3.25Z"/>
    </clipPath>
    <clipPath id="clippath-8">
      <path class="st39" d="M466.4,111.44c1.88,1.51,3.07,3.8,3.44,6.18.29,1.86.1,3.77-.32,5.6-.42,1.84-1.06,3.61-1.71,5.38-.25.7-.51,1.42-.61,2.16-.1.75-.04,1.53.32,2.19.41.76,1.18,1.28,2,1.52.81.24,1.69.24,2.52.03s2.21-.47,2.88-.99c1.7-1.32,2.11-3.62,2.51-5.64.42-2.1.22-4.31-.15-6.43-.51-2.9-1.36-5.73-2.43-8.47-.8-2.01-1.81-3.94-3.03-5.72-1.19-1.75-2.87-3.12-4.12-4.83-.43-.6-.95-1.21-1.38-1.81-.92-1.3-.71-1.05-1.28-1.9-.41-.61-1.06-.82-1.75-1.08-.69-.27-1.46-.34-2.17-.15-.93.26-1.7,1-2.1,1.88-.41.88-.48,1.89-.32,2.85.2,1.23.77,2.38,1.41,3.46.72,1.22,1.55,2.39,2.63,3.29,1.13.94,2.5,1.57,3.65,2.49Z"/>
    </clipPath>
    <linearGradient id="linear-gradient1" x1="414.74" y1="25.98" x2="429.48" y2="1.24" gradientTransform="translate(0 162) scale(1 -1)" gradientUnits="userSpaceOnUse">
      <stop offset="0" stop-color="#b8842c"/>
      <stop offset="1" stop-color="#372813"/>
    </linearGradient>
    <clipPath id="clippath-9">
      <path class="st39" d="M420.59,128.72c.49-.2,1.05-.24,1.57-.15.53.1,1.03.33,1.47.62.89.6,1.54,1.48,2.17,2.34,1.44,1.99,2.83,4.01,4.09,6.12,1.02,1.71,1.96,3.48,3.14,5.08.77,1.05,1.64,2.02,2.41,3.06.77,1.05,1.46,2.18,1.8,3.43.45,1.63.27,3.43-.5,4.93-.54,1.06-1.38,1.96-2.4,2.58s-2.09.89-3.28.89c-1.89,0-3.74-1.01-5.49-1.71-3.58-1.43-7.46-1.87-11.15-2.98-1.13-.34-2.25-.75-3.39-1.06-.51-.14-1.02-.26-1.5-.48-.48-.22-.93-.54-1.19-.99-.2-.35-.29-.76-.29-1.17s.1-.81.24-1.19c.28-.76.72-1.46,1.03-2.21.49-1.23.58-2.59.51-3.92-.06-1.32-.28-2.64-.37-3.96-.04-.59-.06-1.19.06-1.77.11-.58.36-1.15.79-1.56.39-.38.91-.61,1.45-.72.53-.11,1.09-.11,1.63-.1.54.01,1.09.04,1.64,0,.54-.04,1.09-.16,1.57-.44.45-.26.82-.64,1.13-1.06.3-.42.55-.88.81-1.33.25-.45.51-.9.85-1.3.33-.4.74-.75,1.22-.95Z"/>
    </clipPath>
    <clipPath id="clippath-10">
      <path class="st39" d="M420.59,128.72c.49-.2,1.05-.24,1.57-.15.53.1,1.03.33,1.47.62.89.6,1.54,1.48,2.17,2.34,1.44,1.99,2.83,4.01,4.09,6.12,1.02,1.71,1.96,3.48,3.14,5.08.77,1.05,1.64,2.02,2.41,3.06.77,1.05,1.46,2.18,1.8,3.43.45,1.63.27,3.43-.5,4.93-.54,1.06-1.38,1.96-2.4,2.58s-2.09.89-3.28.89c-1.89,0-3.74-1.01-5.49-1.71-3.58-1.43-7.46-1.87-11.15-2.98-1.13-.34-2.25-.75-3.39-1.06-.51-.14-1.02-.26-1.5-.48-.48-.22-.93-.54-1.19-.99-.2-.35-.29-.76-.29-1.17s.1-.81.24-1.19c.28-.76.72-1.46,1.03-2.21.49-1.23.58-2.59.51-3.92-.06-1.32-.28-2.64-.37-3.96-.04-.59-.06-1.19.06-1.77.11-.58.36-1.15.79-1.56.39-.38.91-.61,1.45-.72.53-.11,1.09-.11,1.63-.1.54.01,1.09.04,1.64,0,.54-.04,1.09-.16,1.57-.44.45-.26.82-.64,1.13-1.06.3-.42.55-.88.81-1.33.25-.45.51-.9.85-1.3.33-.4.74-.75,1.22-.95Z"/>
    </clipPath>
    <clipPath id="clippath-11">
      <path class="st39" d="M420.59,128.72c.49-.2,1.05-.24,1.57-.15.53.1,1.03.33,1.47.62.89.6,1.54,1.48,2.17,2.34,1.44,1.99,2.83,4.01,4.09,6.12,1.02,1.71,1.96,3.48,3.14,5.08.77,1.05,1.64,2.02,2.41,3.06.77,1.05,1.46,2.18,1.8,3.43.45,1.63.27,3.43-.5,4.93-.54,1.06-1.38,1.96-2.4,2.58s-2.09.89-3.28.89c-1.89,0-3.74-1.01-5.49-1.71-3.58-1.43-7.46-1.87-11.15-2.98-1.13-.34-2.25-.75-3.39-1.06-.51-.14-1.02-.26-1.5-.48-.48-.22-.93-.54-1.19-.99-.2-.35-.29-.76-.29-1.17s.1-.81.24-1.19c.28-.76.72-1.46,1.03-2.21.49-1.23.58-2.59.51-3.92-.06-1.32-.28-2.64-.37-3.96-.04-.59-.06-1.19.06-1.77.11-.58.36-1.15.79-1.56.39-.38.91-.61,1.45-.72.53-.11,1.09-.11,1.63-.1.54.01,1.09.04,1.64,0,.54-.04,1.09-.16,1.57-.44.45-.26.82-.64,1.13-1.06.3-.42.55-.88.81-1.33.25-.45.51-.9.85-1.3.33-.4.74-.75,1.22-.95Z"/>
    </clipPath>
    <linearGradient id="linear-gradient2" x1="431.07" y1="20.51" x2="435.71" y2="11.77" gradientTransform="translate(0 162) scale(1 -1)" gradientUnits="userSpaceOnUse">
      <stop offset="0" stop-color="#eac41d"/>
      <stop offset="1" stop-color="#eac41d" stop-opacity="0"/>
    </linearGradient>
    <clipPath id="clippath-12">
      <path class="st39" d="M446.39,65.87c-2.15,0-4.31.42-6.26,1.48-2.07,1.11-3.77,2.9-4.81,5.01-1.05,2.11-1.46,4.36-1.52,6.84-.12,4.71.11,9.65.46,14.13.09,1.36.27,2.16.09,3.56-.58,2.98-3.18,4.98-4.57,7.59-1.53,2.88-2.18,6.14-3.33,9.19-1.06,2.79-2.54,5.41-3.54,8.23-1.4,3.93-1.82,8.26-.9,12.33.71,3.1,2.18,6.02,4.17,8.51-.29.52-.57,1.04-.86,1.56-.92,1.59-2.05,3.1-2.57,4.86-.26.88-.37,1.82-.2,2.72.17.9.63,1.77,1.34,2.34.47.37,1.04.62,1.62.75.58.13,1.19.16,1.79.15,2.28-.05,4.5-.74,6.71-1.32,1.31-.34,2.63-.65,3.95-.92,4.71-.96,9.97-.58,14.34.05,1.48.23,2.95.52,4.41.87,2.28.55,4.55,1.25,6.89,1.32.62.02,1.24-.01,1.84-.14.6-.14,1.19-.38,1.67-.76.72-.57,1.18-1.44,1.35-2.34.17-.9.06-1.85-.2-2.73-.53-1.76-1.67-3.27-2.61-4.85-.37-.63-.72-1.27-1.09-1.89,2.83-3.18,5.11-6.86,6.43-10.9,1.44-4.41,1.7-9.16,1.1-13.76s-2.06-9.06-3.98-13.28c-2.41-5.29-4.43-7.21-5.9-11.85-1.58-5.03-.28-10.97-1.46-15.53-.42-1.55-1.09-3.03-1.95-4.38-1.01-1.59-2.29-3.01-3.82-4.11-2.43-1.76-5.48-2.7-8.59-2.7h0Z"/>
    </clipPath>
    <linearGradient id="linear-gradient3" x1="467.29" y1="21.05" x2="468.47" y2="12.53" gradientTransform="translate(0 162) scale(1 -1)" gradientUnits="userSpaceOnUse">
      <stop offset="0" stop-color="#010101"/>
      <stop offset="1" stop-color="#010101" stop-opacity="0"/>
    </linearGradient>
    <linearGradient id="linear-gradient4" x1="461.63" y1="5.88" x2="476.49" y2="29.96" gradientTransform="translate(0 162) scale(1 -1)" gradientUnits="userSpaceOnUse">
      <stop offset="0" stop-color="#3d2c13"/>
      <stop offset="1" stop-color="#ac7a2b"/>
    </linearGradient>
    <clipPath id="clippath-13">
      <path class="st39" d="M484.58,145.78c-.81.96-1.94,1.6-3.06,2.17-1.91.97-3.89,1.83-5.69,3-1.2.79-2.32,1.71-3.36,2.7-.89.85-1.73,1.76-2.73,2.48-1.01.73-2.17,1.25-3.4,1.44-.34.05-.68.08-1.03.08-1.16,0-2.32-.28-3.39-.75-.97-.42-1.9-1.03-2.46-1.92-.56-.9-.69-2-.69-3.07,0-1.87.34-3.73.67-5.58.27-1.54.53-3.08.7-4.63.3-2.82.3-5.67.1-8.5-.04-.47-.08-.95,0-1.42.07-.47.27-.94.62-1.25.33-.29.78-.42,1.22-.44.44-.03.87.04,1.31.11,1.02.15,2.05.27,3.05.53.63.16,1.25.39,1.87.56,1.05.28,2.15.42,3.23.29,1.17-.14,2.3-.57,3.47-.54.48.01.96.1,1.42.25.47.15.93.36,1.27.71.26.27.44.6.58.95.2.52.32,1.07.36,1.62.04.49.03.99.13,1.47.15.79.57,1.52,1.09,2.14.52.62,1.14,1.15,1.76,1.67.62.52,1.24,1.04,1.91,1.49.31.22.63.42.93.65.3.24.57.51.76.84.16.29.25.62.25.95,0,.19-.03.37-.08.56-.16.51-.46,1.01-.82,1.45h0Z"/>
    </clipPath>
    <clipPath id="clippath-14">
      <path class="st39" d="M484.58,145.78c-.81.96-1.94,1.6-3.06,2.17-1.91.97-3.89,1.83-5.69,3-1.2.79-2.32,1.71-3.36,2.7-.89.85-1.73,1.76-2.73,2.48-1.01.73-2.17,1.25-3.4,1.44-.34.05-.68.08-1.03.08-1.16,0-2.32-.28-3.39-.75-.97-.42-1.9-1.03-2.46-1.92-.56-.9-.69-2-.69-3.07,0-1.87.34-3.73.67-5.58.27-1.54.53-3.08.7-4.63.3-2.82.3-5.67.1-8.5-.04-.47-.08-.95,0-1.42.07-.47.27-.94.62-1.25.33-.29.78-.42,1.22-.44.44-.03.87.04,1.31.11,1.02.15,2.05.27,3.05.53.63.16,1.25.39,1.87.56,1.05.28,2.15.42,3.23.29,1.17-.14,2.3-.57,3.47-.54.48.01.96.1,1.42.25.47.15.93.36,1.27.71.26.27.44.6.58.95.2.52.32,1.07.36,1.62.04.49.03.99.13,1.47.15.79.57,1.52,1.09,2.14.52.62,1.14,1.15,1.76,1.67.62.52,1.24,1.04,1.91,1.49.31.22.63.42.93.65.3.24.57.51.76.84.16.29.25.62.25.95,0,.19-.03.37-.08.56-.16.51-.46,1.01-.82,1.45h0Z"/>
    </clipPath>
    <clipPath id="clippath-15">
      <path class="st39" d="M484.58,145.78c-.81.96-1.94,1.6-3.06,2.17-1.91.97-3.89,1.83-5.69,3-1.2.79-2.32,1.71-3.36,2.7-.89.85-1.73,1.76-2.73,2.48-1.01.73-2.17,1.25-3.4,1.44-.34.05-.68.08-1.03.08-1.16,0-2.32-.28-3.39-.75-.97-.42-1.9-1.03-2.46-1.92-.56-.9-.69-2-.69-3.07,0-1.87.34-3.73.67-5.58.27-1.54.53-3.08.7-4.63.3-2.82.3-5.67.1-8.5-.04-.47-.08-.95,0-1.42.07-.47.27-.94.62-1.25.33-.29.78-.42,1.22-.44.44-.03.87.04,1.31.11,1.02.15,2.05.27,3.05.53.63.16,1.25.39,1.87.56,1.05.28,2.15.42,3.23.29,1.17-.14,2.3-.57,3.47-.54.48.01.96.1,1.42.25.47.15.93.36,1.27.71.26.27.44.6.58.95.2.52.32,1.07.36,1.62.04.49.03.99.13,1.47.15.79.57,1.52,1.09,2.14.52.62,1.14,1.15,1.76,1.67.62.52,1.24,1.04,1.91,1.49.31.22.63.42.93.65.3.24.57.51.76.84.16.29.25.62.25.95,0,.19-.03.37-.08.56-.16.51-.46,1.01-.82,1.45h0Z"/>
    </clipPath>
    <linearGradient id="linear-gradient5" x1="469.46" y1="31.03" x2="469.03" y2="27.1" gradientTransform="translate(0 162) scale(1 -1)" gradientUnits="userSpaceOnUse">
      <stop offset="0" stop-color="#f3cd16"/>
      <stop offset="1" stop-color="#f3cd16" stop-opacity="0"/>
    </linearGradient>
    <clipPath id="clippath-16">
      <path class="st39" d="M484.58,145.78c-.81.96-1.94,1.6-3.06,2.17-1.91.97-3.89,1.83-5.69,3-1.2.79-2.32,1.71-3.36,2.7-.89.85-1.73,1.76-2.73,2.48-1.01.73-2.17,1.25-3.4,1.44-.34.05-.68.08-1.03.08-1.16,0-2.32-.28-3.39-.75-.97-.42-1.9-1.03-2.46-1.92-.56-.9-.69-2-.69-3.07,0-1.87.34-3.73.67-5.58.27-1.54.53-3.08.7-4.63.3-2.82.3-5.67.1-8.5-.04-.47-.08-.95,0-1.42.07-.47.27-.94.62-1.25.33-.29.78-.42,1.22-.44.44-.03.87.04,1.31.11,1.02.15,2.05.27,3.05.53.63.16,1.25.39,1.87.56,1.05.28,2.15.42,3.23.29,1.17-.14,2.3-.57,3.47-.54.48.01.96.1,1.42.25.47.15.93.36,1.27.71.26.27.44.6.58.95.2.52.32,1.07.36,1.62.04.49.03.99.13,1.47.15.79.57,1.52,1.09,2.14.52.62,1.14,1.15,1.76,1.67.62.52,1.24,1.04,1.91,1.49.31.22.63.42.93.65.3.24.57.51.76.84.16.29.25.62.25.95,0,.19-.03.37-.08.56-.16.51-.46,1.01-.82,1.45h0Z"/>
    </clipPath>
    <radialGradient id="radial-gradient3" cx="-274.68" cy="205.68" fx="-274.68" fy="205.68" r=".36" gradientTransform="translate(4586.32 5633.93) rotate(15) scale(19.66 -20.64)" gradientUnits="userSpaceOnUse">
      <stop offset="0" stop-color="#16100b"/>
      <stop offset=".59" stop-color="#a65d26" stop-opacity=".8"/>
      <stop offset="1" stop-color="#f79226" stop-opacity="0"/>
    </radialGradient>
    <clipPath id="clippath-17">
      <path class="st39" d="M484.58,145.78c-.81.96-1.94,1.6-3.06,2.17-1.91.97-3.89,1.83-5.69,3-1.2.79-2.32,1.71-3.36,2.7-.89.85-1.73,1.76-2.73,2.48-1.01.73-2.17,1.25-3.4,1.44-.34.05-.68.08-1.03.08-1.16,0-2.32-.28-3.39-.75-.97-.42-1.9-1.03-2.46-1.92-.56-.9-.69-2-.69-3.07,0-1.87.34-3.73.67-5.58.27-1.54.53-3.08.7-4.63.3-2.82.3-5.67.1-8.5-.04-.47-.08-.95,0-1.42.07-.47.27-.94.62-1.25.33-.29.78-.42,1.22-.44.44-.03.87.04,1.31.11,1.02.15,2.05.27,3.05.53.63.16,1.25.39,1.87.56,1.05.28,2.15.42,3.23.29,1.17-.14,2.3-.57,3.47-.54.48.01.96.1,1.42.25.47.15.93.36,1.27.71.26.27.44.6.58.95.2.52.32,1.07.36,1.62.04.49.03.99.13,1.47.15.79.57,1.52,1.09,2.14.52.62,1.14,1.15,1.76,1.67.62.52,1.24,1.04,1.91,1.49.31.22.63.42.93.65.3.24.57.51.76.84.16.29.25.62.25.95,0,.19-.03.37-.08.56-.16.51-.46,1.01-.82,1.45h0Z"/>
    </clipPath>
    <radialGradient id="radial-gradient4" cx="-273.43" cy="196.69" fx="-273.43" fy="196.69" r=".36" gradientTransform="translate(5984.93 2826.31) rotate(-2.42) scale(19.74 -14.86)" xlink:href="#radial-gradient3"/>
    <clipPath id="clippath-18">
      <path class="st39" d="M476,129.93c-.13-.34-.35-.64-.62-.89-.27-.24-.59-.43-.92-.57-.67-.28-1.39-.39-2.11-.52-.67-.13-1.34-.28-2.01-.39-.7-.12-1.43-.2-2.12-.04-.61.14-1.17.45-1.63.87s-.82.94-1.08,1.51c-.46,1-.6,2.12-.51,3.22.06.81.27,1.65.81,2.27.43.5,1.05.81,1.68,1,1.09.32,2.28.3,3.36-.05,1.78-.6,3.36-1.79,4.43-3.33.35-.51.65-1.07.79-1.67.1-.46.11-.95-.05-1.39h0Z"/>
    </clipPath>
    <radialGradient id="radial-gradient5" cx="-226.39" cy="274.29" fx="-226.39" fy="274.29" r=".36" gradientTransform="translate(1566.06 1564.02) rotate(23.5) scale(6.95 -3.21)" gradientUnits="userSpaceOnUse">
      <stop offset="0" stop-color="#7d7d7d"/>
      <stop offset="1" stop-color="#7d7d7d" stop-opacity=".33"/>
    </radialGradient>
    <clipPath id="clippath-19">
      <path class="st39" d="M476,129.93c-.13-.34-.35-.64-.62-.89-.27-.24-.59-.43-.92-.57-.67-.28-1.39-.39-2.11-.52-.67-.13-1.34-.28-2.01-.39-.7-.12-1.43-.2-2.12-.04-.61.14-1.17.45-1.63.87s-.82.94-1.08,1.51c-.46,1-.6,2.12-.51,3.22.06.81.27,1.65.81,2.27.43.5,1.05.81,1.68,1,1.09.32,2.28.3,3.36-.05,1.78-.6,3.36-1.79,4.43-3.33.35-.51.65-1.07.79-1.67.1-.46.11-.95-.05-1.39h0Z"/>
    </clipPath>
    <linearGradient id="linear-gradient6" x1="467.52" y1="32.16" x2="468.45" y2="32.2" gradientTransform="translate(0 162) scale(1 -1)" gradientUnits="userSpaceOnUse">
      <stop offset="0" stop-color="#7d7d7d"/>
      <stop offset="1" stop-color="#7d7d7d" stop-opacity=".33"/>
    </linearGradient>
    <radialGradient id="radial-gradient6" cx="-239.96" cy="192.23" fx="-239.96" fy="192.23" r=".36" gradientTransform="translate(2927.63 3072.6) rotate(-.6) scale(10.24 -15.68)" gradientUnits="userSpaceOnUse">
      <stop offset="0" stop-color="#fffffd"/>
      <stop offset=".75" stop-color="#fffffd"/>
      <stop offset="1" stop-color="#d4d4d4"/>
    </radialGradient>
    <clipPath id="clippath-20">
      <path class="st39" d="M437,84.15c-.11.7-.12,1.42.12,2.08.16.44.42.84.73,1.18.2.22.44.42.71.56.28.13.59.19.89.11.27-.07.51-.24.68-.46.18-.22.29-.48.38-.75.25-.79.21-1.66-.04-2.45-.18-.58-.47-1.13-.93-1.52-.22-.19-.48-.33-.76-.4-.28-.07-.58-.05-.85.07-.29.13-.52.38-.66.67-.15.28-.22.6-.28.91h0Z"/>
    </clipPath>
    <linearGradient id="linear-gradient7" x1="438.32" y1="79.44" x2="440.12" y2="76.22" gradientTransform="translate(0 162) scale(1 -1)" gradientUnits="userSpaceOnUse">
      <stop offset="0" stop-color="#767675" stop-opacity="0"/>
      <stop offset=".25" stop-color="#767675"/>
      <stop offset=".5" stop-color="#767675"/>
      <stop offset="1" stop-color="#767675" stop-opacity="0"/>
    </linearGradient>
    <clipPath id="clippath-21">
      <path class="st39" d="M438.33,79.59c-.55.03-1.08.28-1.48.66-.41.38-.69.87-.86,1.39-.35,1.05-.27,2.18-.19,3.28.07.99.15,2.01.52,2.93.19.47.45.9.8,1.26.35.35.79.63,1.27.75.45.11.94.09,1.38-.05.45-.14.85-.4,1.19-.72.49-.48.81-1.1,1-1.76.19-.66.24-1.34.23-2.03-.01-.85-.13-1.71-.39-2.52-.27-.81-.7-1.58-1.29-2.19-.29-.3-.62-.56-.99-.74-.37-.18-.79-.29-1.2-.27Z"/>
    </clipPath>
    <radialGradient id="radial-gradient7" cx="-202.08" cy="166.03" fx="-202.08" fy="166.03" r=".36" gradientTransform="translate(1840.32 821.64) rotate(-9.35) scale(6.25 -5.77)" gradientUnits="userSpaceOnUse">
      <stop offset="0" stop-color="#c8c8c8"/>
      <stop offset="1" stop-color="#7a7a79"/>
    </radialGradient>
    <linearGradient id="linear-gradient8" x1="438.43" y1="84.88" x2="442.33" y2="80.89" gradientTransform="translate(0 162) scale(1 -1)" gradientUnits="userSpaceOnUse">
      <stop offset="0" stop-color="#656565" stop-opacity="0"/>
      <stop offset=".31" stop-color="#656565" stop-opacity=".58"/>
      <stop offset=".47" stop-color="#656565"/>
      <stop offset=".73" stop-color="#656565" stop-opacity=".26"/>
      <stop offset="1" stop-color="#656565" stop-opacity="0"/>
    </linearGradient>
    <radialGradient id="radial-gradient8" cx="-257.53" cy="191.4" fx="-257.53" fy="191.4" r=".36" gradientTransform="translate(4055.6 2973.6) rotate(-1.8) scale(13.64 -15.68)" xlink:href="#radial-gradient6"/>
    <clipPath id="clippath-22">
      <path class="st39" d="M450.04,82.19c-.32.02-.64.13-.91.3-.27.17-.51.41-.69.67-.37.53-.53,1.19-.56,1.84-.02.48.04.98.2,1.43.16.46.43.89.81,1.19.38.32.87.51,1.37.53.5.02,1-.12,1.41-.41.33-.23.59-.54.77-.89.19-.35.3-.73.35-1.13.09-.69-.01-1.42-.33-2.04-.32-.62-.86-1.14-1.52-1.38-.29-.1-.59-.16-.89-.14h0Z"/>
    </clipPath>
    <linearGradient id="linear-gradient9" x1="450.31" y1="79.2" x2="452.38" y2="76.74" gradientTransform="translate(0 162) scale(1 -1)" gradientUnits="userSpaceOnUse">
      <stop offset="0" stop-color="#959494" stop-opacity=".39"/>
      <stop offset=".5" stop-color="#959494"/>
      <stop offset="1" stop-color="#959494" stop-opacity=".39"/>
    </linearGradient>
    <clipPath id="clippath-23">
      <path class="st39" d="M448.06,79.59c-.86.59-1.58,1.41-1.93,2.39-.44,1.24-.28,2.62.15,3.86.44,1.27,1.17,2.48,2.28,3.25.55.38,1.19.65,1.86.72.67.08,1.36-.03,1.96-.34.72-.38,1.28-1.04,1.62-1.79.34-.75.49-1.57.54-2.39.06-1.04-.04-2.1-.39-3.09-.37-1.07-1.05-2.06-2-2.68-.47-.31-1.01-.52-1.58-.6s-1.14-.02-1.67.19c-.3.12-.58.28-.85.46Z"/>
    </clipPath>
    <linearGradient id="linear-gradient10" x1="448.9" y1="83.79" x2="455.51" y2="79.93" gradientTransform="translate(0 162) scale(1 -1)" gradientUnits="userSpaceOnUse">
      <stop offset="0" stop-color="#757575"/>
      <stop offset=".13" stop-color="#8c8c8c"/>
      <stop offset=".25" stop-color="#a4a4a5"/>
      <stop offset=".5" stop-color="#d4d4d4"/>
      <stop offset=".62" stop-color="#d4d4d4"/>
      <stop offset="1" stop-color="#7d7d7d"/>
    </linearGradient>
    <linearGradient id="linear-gradient11" x1="450.98" y1="85.04" x2="455.38" y2="80.89" xlink:href="#linear-gradient8"/>
    <clipPath id="clippath-24">
      <path class="st39" d="M446.39,65.87c-2.15,0-4.31.42-6.26,1.48-2.07,1.11-3.77,2.9-4.81,5.01-1.05,2.11-1.46,4.36-1.52,6.84-.12,4.71.11,9.65.46,14.13.09,1.36.27,2.16.09,3.56-.58,2.98-3.18,4.98-4.57,7.59-1.53,2.88-2.18,6.14-3.33,9.19-1.06,2.79-2.54,5.41-3.54,8.23-1.4,3.93-1.82,8.26-.9,12.33.71,3.1,2.18,6.02,4.17,8.51-.29.52-.57,1.04-.86,1.56-.92,1.59-2.05,3.1-2.57,4.86-.26.88-.37,1.82-.2,2.72.17.9.63,1.77,1.34,2.34.47.37,1.04.62,1.62.75.58.13,1.19.16,1.79.15,2.28-.05,4.5-.74,6.71-1.32,1.31-.34,2.63-.65,3.95-.92,4.71-.96,9.97-.58,14.34.05,1.48.23,2.95.52,4.41.87,2.28.55,4.55,1.25,6.89,1.32.62.02,1.24-.01,1.84-.14.6-.14,1.19-.38,1.67-.76.72-.57,1.18-1.44,1.35-2.34.17-.9.06-1.85-.2-2.73-.53-1.76-1.67-3.27-2.61-4.85-.37-.63-.72-1.27-1.09-1.89,2.83-3.18,5.11-6.86,6.43-10.9,1.44-4.41,1.7-9.16,1.1-13.76s-2.06-9.06-3.98-13.28c-2.41-5.29-4.43-7.21-5.9-11.85-1.58-5.03-.28-10.97-1.46-15.53-.42-1.55-1.09-3.03-1.95-4.38-1.01-1.59-2.29-3.01-3.82-4.11-2.43-1.76-5.48-2.7-8.59-2.7h0Z"/>
    </clipPath>
    <clipPath id="clippath-25">
      <path class="st39" d="M446.39,65.87c-2.15,0-4.31.42-6.26,1.48-2.07,1.11-3.77,2.9-4.81,5.01-1.05,2.11-1.46,4.36-1.52,6.84-.12,4.71.11,9.65.46,14.13.09,1.36.27,2.16.09,3.56-.58,2.98-3.18,4.98-4.57,7.59-1.53,2.88-2.18,6.14-3.33,9.19-1.06,2.79-2.54,5.41-3.54,8.23-1.4,3.93-1.82,8.26-.9,12.33.71,3.1,2.18,6.02,4.17,8.51-.29.52-.57,1.04-.86,1.56-.92,1.59-2.05,3.1-2.57,4.86-.26.88-.37,1.82-.2,2.72.17.9.63,1.77,1.34,2.34.47.37,1.04.62,1.62.75.58.13,1.19.16,1.79.15,2.28-.05,4.5-.74,6.71-1.32,1.31-.34,2.63-.65,3.95-.92,4.71-.96,9.97-.58,14.34.05,1.48.23,2.95.52,4.41.87,2.28.55,4.55,1.25,6.89,1.32.62.02,1.24-.01,1.84-.14.6-.14,1.19-.38,1.67-.76.72-.57,1.18-1.44,1.35-2.34.17-.9.06-1.85-.2-2.73-.53-1.76-1.67-3.27-2.61-4.85-.37-.63-.72-1.27-1.09-1.89,2.83-3.18,5.11-6.86,6.43-10.9,1.44-4.41,1.7-9.16,1.1-13.76s-2.06-9.06-3.98-13.28c-2.41-5.29-4.43-7.21-5.9-11.85-1.58-5.03-.28-10.97-1.46-15.53-.42-1.55-1.09-3.03-1.95-4.38-1.01-1.59-2.29-3.01-3.82-4.11-2.43-1.76-5.48-2.7-8.59-2.7h0Z"/>
    </clipPath>
    <radialGradient id="radial-gradient9" cx="-261.28" cy="155.37" fx="-261.28" fy="155.37" r=".36" gradientTransform="translate(3809.15 -364.73) rotate(-36) scale(11.44 -10.38)" gradientUnits="userSpaceOnUse">
      <stop offset="0" stop-color="#050507"/>
      <stop offset=".73" stop-color="#050507"/>
      <stop offset="1" stop-color="#5d5d5d"/>
    </radialGradient>
    <radialGradient id="radial-gradient10" cx="-282.93" cy="181.48" fx="-282.93" fy="181.48" r=".36" gradientTransform="translate(8868.2 363.73) rotate(-22.4) scale(27.15 -19.07)" gradientUnits="userSpaceOnUse">
      <stop offset="0" stop-color="#d1952a"/>
      <stop offset=".75" stop-color="#d69d28"/>
      <stop offset=".87" stop-color="#b5802b"/>
      <stop offset="1" stop-color="#946327"/>
    </radialGradient>
    <clipPath id="clippath-26">
      <path class="st39" d="M435.7,92.77c.02.09.05.18.1.26.08.14.2.25.33.34.13.1.27.18.41.26.72.46,1.31,1.09,1.83,1.76.7.9,1.32,1.9,2.25,2.56.66.47,1.45.73,2.25.81.94.09,1.9-.06,2.81-.33.84-.25,1.66-.6,2.4-1.06,1.42-.87,2.61-2.16,4.18-2.74.34-.13.7-.22,1.03-.37.33-.16.64-.39.8-.72.15-.32.14-.68.19-1.03.05-.37.17-.73.24-1.1.06-.37.07-.76-.09-1.1-.13-.28-.37-.5-.65-.64-.28-.14-.59-.21-.9-.22-.62-.03-1.23.13-1.85.19-.82.08-1.64-.03-2.46,0-1.02.03-2.03.26-3.05.31-1.17.05-2.33-.13-3.49-.17-.51-.02-1.01-.01-1.51.07-.5.08-.99.25-1.4.54-.41.28-.73.66-1.1.98-.19.16-.39.31-.61.42-.22.11-.46.18-.71.17-.13,0-.26-.02-.38.01-.08.03-.14.07-.2.13-.06.06-.1.12-.15.19-.1.15-.19.31-.27.48h0Z"/>
    </clipPath>
    <clipPath id="clippath-27">
      <path class="st39" d="M435.7,92.77c.02.09.05.18.1.26.08.14.2.25.33.34.13.1.27.18.41.26.72.46,1.31,1.09,1.83,1.76.7.9,1.32,1.9,2.25,2.56.66.47,1.45.73,2.25.81.94.09,1.9-.06,2.81-.33.84-.25,1.66-.6,2.4-1.06,1.42-.87,2.61-2.16,4.18-2.74.34-.13.7-.22,1.03-.37.33-.16.64-.39.8-.72.15-.32.14-.68.19-1.03.05-.37.17-.73.24-1.1.06-.37.07-.76-.09-1.1-.13-.28-.37-.5-.65-.64-.28-.14-.59-.21-.9-.22-.62-.03-1.23.13-1.85.19-.82.08-1.64-.03-2.46,0-1.02.03-2.03.26-3.05.31-1.17.05-2.33-.13-3.49-.17-.51-.02-1.01-.01-1.51.07-.5.08-.99.25-1.4.54-.41.28-.73.66-1.1.98-.19.16-.39.31-.61.42-.22.11-.46.18-.71.17-.13,0-.26-.02-.38.01-.08.03-.14.07-.2.13-.06.06-.1.12-.15.19-.1.15-.19.31-.27.48h0Z"/>
    </clipPath>
    <linearGradient id="linear-gradient12" x1="436.04" y1="71.4" x2="453.5" y2="71.54" gradientTransform="translate(0 162) scale(1 -1)" gradientUnits="userSpaceOnUse">
      <stop offset="0" stop-color="#ac7a2b"/>
      <stop offset=".12" stop-color="#d7a029"/>
      <stop offset=".25" stop-color="#ecb91e"/>
      <stop offset=".39" stop-color="#eac81c"/>
      <stop offset=".53" stop-color="#f5d839"/>
      <stop offset=".77" stop-color="#f6d812"/>
      <stop offset="1" stop-color="#f5cd33"/>
    </linearGradient>
    <clipPath id="clippath-28">
      <path class="st39" d="M438.14,88.79c-.6.4-1.13.89-1.59,1.45-.26.32-.49.67-.62,1.05-.1.31-.14.63-.2.95-.03.12-.05.24-.05.36,0,.06,0,.12.03.18.02.06.05.11.09.15.07.07.17.11.27.13.1.02.2.02.3.03.45.05.86.27,1.23.53.37.25.72.56,1.1.8.84.53,1.85.77,2.85.81,1,.04,1.99-.11,2.98-.31.78-.15,1.55-.34,2.29-.63,1.13-.45,2.15-1.13,3.13-1.86.44-.33.88-.67,1.28-1.05.13-.13.27-.27.41-.39.14-.12.3-.22.48-.28.27-.09.57-.06.85-.01.21.04.42.08.64.08.11,0,.22-.03.32-.06.1-.04.19-.1.26-.19.09-.11.14-.25.14-.39s-.04-.28-.11-.41c-.14-.24-.39-.41-.65-.52-.35-.16-.74-.23-1.11-.33-1.16-.28-2.28-.69-3.35-1.22-.53-.26-1.05-.55-1.57-.83-.54-.29-1.08-.56-1.66-.74-1.3-.39-2.72-.27-4.01.18-1.43.49-2.72,1.38-3.7,2.53Z"/>
    </clipPath>
    <radialGradient id="radial-gradient11" cx="190.67" cy="153.02" fx="190.67" fy="153.02" r=".36" gradientTransform="translate(189.39 304.62) scale(1.32 -1.42)" gradientUnits="userSpaceOnUse">
      <stop offset="0" stop-color="#392b14"/>
      <stop offset=".55" stop-color="#735421"/>
      <stop offset="1" stop-color="#ab8d30"/>
    </radialGradient>
    <radialGradient id="radial-gradient12" cx="-72.02" cy="158.38" fx="-72.02" fy="158.38" r=".36" gradientTransform="translate(645.77 343.84) scale(2.78 -1.62)" xlink:href="#radial-gradient11"/>
    <clipPath id="clippath-29">
      <path class="st39" d="M441.84,86.27c-1.43.49-2.72,1.38-3.7,2.53h0c-.6.4-1.13.89-1.59,1.45h0c-.26.32-.49.67-.62,1.05h0c-.1.31-.14.63-.2.95h0c-.03.12-.05.24-.05.36h0c0,.06,0,.12.03.18h0s.01.03.02.05h0c.02.07.05.14.08.2h0c.08.14.2.25.33.34h0c.13.1.27.18.4.26h0c.72.46,1.31,1.09,1.83,1.76h0c.7.9,1.32,1.9,2.25,2.56h0c.66.47,1.45.73,2.25.81h0c.94.09,1.9-.06,2.81-.33h0c.84-.25,1.66-.6,2.4-1.06h0c1.42-.87,2.61-2.16,4.18-2.74h0c.34-.13.7-.21,1.03-.37h0c.33-.16.64-.39.8-.72h0c.15-.32.14-.68.19-1.03h0c.05-.37.17-.73.24-1.1h0c.06-.37.07-.76-.09-1.1h0c-.04-.08-.08-.15-.13-.21h0c0-.14-.05-.27-.11-.39h0c-.14-.24-.39-.41-.65-.52h0c-.35-.16-.74-.23-1.11-.33h0c-1.16-.28-2.28-.69-3.35-1.22h0c-.53-.26-1.05-.55-1.57-.83h0c-.54-.29-1.08-.56-1.66-.74h0c-.53-.16-1.09-.24-1.64-.24h0c-.8,0-1.61.15-2.37.42Z"/>
    </clipPath>
    <linearGradient id="linear-gradient13" x1="453.51" y1="71.94" x2="453.51" y2="70.65" gradientTransform="translate(0 162) scale(1 -1)" gradientUnits="userSpaceOnUse">
      <stop offset="0" stop-color="#f6ce2e"/>
      <stop offset="1" stop-color="#d59b29"/>
    </linearGradient>
    <linearGradient id="linear-gradient14" x1="308.94" y1="95.27" x2="390.65" y2="13.55" gradientUnits="userSpaceOnUse">
      <stop offset="0" stop-color="#feda00"/>
      <stop offset=".5" stop-color="#fff" stop-opacity="0"/>
      <stop offset="1" stop-color="#feda00"/>
    </linearGradient>
    <linearGradient id="linear-gradient15" x1="302.2" y1=".78" x2="302.2" y2="79.35" gradientUnits="userSpaceOnUse">
      <stop offset="0" stop-color="#1c75bc"/>
      <stop offset=".81" stop-color="#fff" stop-opacity="0"/>
      <stop offset="1" stop-color="#1c75bc"/>
    </linearGradient>
  </defs>
  <g>
    <polygon class="st34" points="39.38 122.32 29.37 122.32 29.37 107.35 16.26 107.35 16.26 148.06 29.37 148.06 29.37 132.22 39.38 132.22 39.38 148.06 52.49 148.06 52.49 107.35 39.38 107.35 39.38 122.32"/>
    <path class="st34" d="M149.81,117.73h-11l-7.99,8.77c-.77.84-1.53,1.76-2.29,2.77.06-3.2.09-5.03.09-5.49v-16.43h-11.7v20.68c-.58-2.98-2.06-5.48-4.46-7.51-2.69-2.28-6.17-3.42-10.45-3.42-4.82,0-8.73,1.51-11.75,4.52-2.82,2.82-4.32,6.36-4.5,10.62v-2.19c0-3.28-.21-5.5-.64-6.65-.43-1.15-1.27-2.25-2.52-3.28-1.25-1.03-2.95-1.79-5.1-2.28-2.15-.49-4.51-.73-7.07-.73-9.45,0-14.99,3.17-16.61,9.52l11.39,1.01c.33-2.21,1.94-3.31,4.82-3.31,1.23,0,2.16.22,2.8.66.64.44.95,1.32.95,2.65v.69c-7.78.4-13.2,1.59-16.25,3.56-3.06,1.98-4.58,4.57-4.58,7.77,0,2.37.93,4.46,2.8,6.29,1.87,1.83,4.68,2.74,8.43,2.74,4.57,0,7.98-1.62,10.23-4.86,0,1.53.15,2.94.44,4.24h11.89c-.65-1.63-.97-3.6-.97-5.91v-8.18c.18,4.17,1.69,7.61,4.53,10.34,3.03,2.91,6.98,4.37,11.84,4.37,4.34,0,7.82-1.11,10.43-3.34,2.19-1.86,3.64-4.19,4.35-6.97v9.69h11.7v-8.35l3.4-3.8,5.97,12.15h12.9l-10.71-19.91,9.62-10.42ZM73.78,135.33c0,2.59-.47,4.26-1.41,5.01-.94.76-2.08,1.13-3.41,1.13-2.11,0-3.16-.91-3.16-2.74,0-2.7,2.66-4.33,7.98-4.86v1.46ZM106.62,135.83c-.42,3-1.74,4.5-3.97,4.5-1.52,0-2.59-.6-3.21-1.79-.62-1.19-.92-3.03-.92-5.52,0-2.88.31-4.91.92-6.07.61-1.16,1.59-1.74,2.93-1.74,2.09,0,3.36,1.6,3.82,4.8l10.74-.85v7.51l-10.31-.84Z"/>
    <path class="st34" d="M175.96,121.51c-3.14-2.94-7.25-4.41-12.34-4.41s-9.46,1.56-12.61,4.68c-3.15,3.12-4.72,6.95-4.72,11.48s1.6,8.04,4.79,10.99c3.19,2.95,7.47,4.43,12.83,4.43,4.82,0,8.64-1.05,11.47-3.15,2.83-2.1,4.58-4.64,5.27-7.62l-11.64-.75c-.48,2.49-2.08,3.73-4.79,3.73-1.88,0-3.15-.46-3.82-1.39-.67-.92-1.02-2.34-1.06-4.25h21.31c.02-.74.03-1.31.03-1.73,0-5.07-1.57-9.08-4.71-12.02ZM159.3,129.3c0-3.46,1.48-5.19,4.43-5.19,1.25,0,2.29.35,3.13,1.06.84.71,1.27,2.08,1.29,4.13h-8.85Z"/>
    <path class="st34" d="M356.71,133.54c0-5.07-1.57-9.08-4.71-12.02-3.14-2.94-7.25-4.41-12.34-4.41s-9.46,1.56-12.61,4.68c-1.21,1.2-2.18,2.5-2.93,3.91-.78-1.98-2.04-3.7-3.78-5.18-2.69-2.28-6.17-3.42-10.45-3.42-4.82,0-8.73,1.51-11.75,4.52-2.82,2.82-4.32,6.36-4.5,10.62v-2.19c0-3.28-.21-5.5-.64-6.65-.43-1.15-1.27-2.25-2.52-3.28-1.25-1.03-2.95-1.79-5.1-2.28-2.15-.49-4.51-.73-7.07-.73-9.45,0-14.99,3.17-16.61,9.52l11.39,1.01c.33-2.21,1.94-3.31,4.82-3.31,1.23,0,2.16.22,2.8.66.64.44.95,1.32.95,2.65v.69c-7.78.4-13.2,1.59-16.25,3.56-1.32.85-2.35,1.82-3.1,2.9.04-.63.07-1.29.07-1.96,0-4.85-1.07-8.68-3.22-11.5-2.15-2.81-5.12-4.22-8.92-4.22-4.38,0-7.37,1.64-8.98,4.92v-4.3h-11.48v17.33c-.33-1.01-.84-1.93-1.55-2.76-1.31-1.53-2.9-2.59-4.75-3.16-1.86-.58-5.39-1.14-10.61-1.69-2-.22-3-.82-3-1.82,0-.34.33-.68.99-1.03.66-.35,1.65-.52,2.99-.52,2.82,0,4.66.89,5.54,2.68l9.45-1.7c-2.13-5.31-7.05-7.96-14.77-7.96-4.4,0-7.96.96-10.67,2.88-.85.6-1.56,1.25-2.14,1.97v-4.67c-.77-.08-1.38-.12-1.81-.12-4.34,0-7.1,2.28-8.29,6.83v-6.26h-10.39v30.34h11.95v-13.9c0-4.39,2.07-6.59,6.2-6.59.14,0,.28,0,.42.01.02,2.2.82,4.2,2.41,6,1.61,1.82,5.64,3.16,12.11,4.01,2.34.3,3.82.59,4.44.88.63.29.94.69.94,1.21,0,1.19-1.62,1.79-4.85,1.79-3.9,0-6.13-1.09-6.7-3.28l-9.86,1.28c2.04,6.14,7.37,9.22,15.99,9.22,5.11,0,9.12-.98,12.03-2.93,2-1.34,3.31-3.01,3.94-5v16.87h12.48v-12.83c1.86,2.59,4.56,3.88,8.1,3.88s6.51-1.43,8.71-4.3c.75-.98,1.38-2.08,1.87-3.3.31,1.79,1.2,3.4,2.68,4.85,1.87,1.83,4.68,2.74,8.43,2.74,4.57,0,7.98-1.62,10.23-4.86,0,1.53.15,2.94.44,4.24h11.89c-.65-1.63-.97-3.6-.97-5.91v-8.18c.18,4.17,1.69,7.61,4.53,10.34,3.03,2.91,6.98,4.37,11.84,4.37,4.34,0,7.82-1.11,10.43-3.34,1.62-1.38,2.84-3.01,3.65-4.89.76,1.38,1.76,2.65,3.02,3.81,3.19,2.95,7.47,4.43,12.83,4.43,4.82,0,8.64-1.05,11.47-3.15,2.83-2.1,4.58-4.64,5.27-7.62l-11.64-.75c-.48,2.49-2.08,3.73-4.79,3.73-1.88,0-3.15-.46-3.82-1.39-.67-.92-1.02-2.34-1.06-4.25h21.31c.02-.74.03-1.31.03-1.73ZM248.73,139.25c-.56,1.32-1.6,1.98-3.1,1.98-.96,0-1.76-.37-2.41-1.12-.65-.75-.97-1.79-.97-3.15v-8.71c0-1.31.38-2.26,1.14-2.83.76-.58,1.53-.86,2.3-.86,1.29,0,2.26.64,2.91,1.92.65,1.28.97,3.5.97,6.67,0,2.74-.28,4.78-.84,6.1ZM281.65,135.33c0,2.59-.47,4.26-1.41,5.01-.94.76-2.08,1.13-3.41,1.13-2.11,0-3.16-.91-3.16-2.74,0-2.7,2.66-4.33,7.98-4.86v1.46ZM314.49,135.83c-.42,3-1.74,4.5-3.97,4.5-1.52,0-2.59-.6-3.21-1.79-.62-1.19-.92-3.03-.92-5.52,0-2.88.31-4.91.92-6.07.62-1.16,1.59-1.74,2.93-1.74,2.09,0,3.36,1.6,3.82,4.8l8.71-.69c-.29,1.25-.44,2.56-.44,3.94,0,1.12.11,2.2.32,3.23l-8.15-.66ZM335.34,129.3c0-3.46,1.48-5.19,4.43-5.19,1.25,0,2.29.35,3.13,1.06.84.71,1.27,2.08,1.29,4.13h-8.85Z"/>
    <path class="st34" d="M18.08,96.42c0-1.05-.33-1.99-1-2.82-.67-.83-1.69-1.41-3.06-1.73,2-.58,3.14-1.66,3.4-3.26l4.82,12.5c-.48,1.46-.96,2.37-1.44,2.75-.48.38-1.08.56-1.8.56-.42,0-.92-.06-1.5-.18v1.61c.71.18,1.35.28,1.93.28,1.84,0,3.19-1.07,4.03-3.2l5.8-14.78h-1.9l-3.96,9.94-3.88-9.94h-2.05c0-.1.01-.2.01-.3,0-1.15-.47-2.16-1.41-3.04-.94-.87-2.38-1.31-4.33-1.31h-7.73v17.88h7.73c2.16,0,3.75-.47,4.79-1.42,1.04-.95,1.55-2.13,1.55-3.53ZM6.37,85.31h4.88c1.26,0,2.21.25,2.84.76.63.51.95,1.17.95,1.99s-.3,1.55-.89,2.17c-.59.62-1.77.92-3.54.92h-4.25v-5.84ZM14.58,98.56c-.7.57-1.68.85-2.96.85h-5.24v-6.55h4.88c1.14,0,1.99.15,2.56.45.57.3,1.02.72,1.33,1.26.31.55.47,1.14.47,1.78,0,.91-.35,1.65-1.05,2.21Z"/>
    <path class="st34" d="M29.83,99.8c1.09,1.3,2.48,1.95,4.17,1.95,2.04,0,3.56-.88,4.57-2.63v2.27h2.03v-17.88h-2.25v6.46c-1.1-1.45-2.52-2.17-4.25-2.17s-3.22.68-4.3,2.03c-1.08,1.35-1.62,3.04-1.62,5.07s.54,3.63,1.63,4.92ZM31.73,90.78c.72-.91,1.64-1.36,2.76-1.36,1.03,0,1.93.35,2.71,1.05.77.7,1.16,1.63,1.16,2.79v2.75c0,1.08-.4,2.03-1.2,2.83-.8.8-1.73,1.21-2.78,1.21-1.16,0-2.06-.46-2.73-1.39-.66-.93-1-2.28-1-4.05,0-1.64.36-2.92,1.08-3.83Z"/>
    <path class="st34" d="M41.4,102.88c0,1.06.53,1.9,1.58,2.54,1.05.63,2.73.95,5.03.95,4.85,0,7.27-1.26,7.27-3.79,0-.8-.27-1.48-.82-2.04s-1.21-.91-2-1.07c-.79-.16-2.01-.26-3.66-.31-1.95-.04-3.18-.14-3.71-.3-.53-.16-.79-.5-.79-1.02,0-.37.18-.67.54-.9.36-.23.67-.35.93-.35.13,0,.46.05.99.14.28.05.61.08.99.08,1.7,0,3.05-.43,4.06-1.3,1.01-.86,1.51-1.9,1.51-3.11s-.46-2.22-1.39-3.2c.11-.57.35-.96.69-1.18.35-.22,1.04-.33,2.07-.33v-1.64c-.27-.02-.45-.03-.56-.03-1.06,0-1.85.17-2.37.5-.52.33-.85.93-1,1.8-.89-.38-1.88-.56-2.96-.56-1.54,0-2.84.42-3.91,1.26-1.07.84-1.6,1.91-1.6,3.22,0,1.41.63,2.57,1.88,3.5-1.34.54-2,1.32-2,2.34,0,.86.47,1.57,1.42,2.13-1.47.48-2.21,1.36-2.21,2.65ZM45.61,90.15c.66-.52,1.41-.78,2.26-.78s1.64.28,2.27.83c.63.55.94,1.27.94,2.14s-.3,1.55-.9,2.09c-.6.54-1.38.81-2.33.81s-1.74-.26-2.33-.79c-.59-.53-.89-1.22-.89-2.08,0-.96.33-1.7.99-2.22ZM45.15,100.84c.75.09,1.92.15,3.49.18,1.32.03,2.24.09,2.77.16s.95.24,1.25.5c.31.26.46.6.46,1.01,0,.76-.52,1.3-1.55,1.62-1.03.32-2.17.48-3.41.48-1.34,0-2.44-.19-3.3-.56-.86-.37-1.3-.89-1.3-1.57,0-.79.52-1.4,1.58-1.82Z"/>
    <path class="st34" d="M55.64,99.72c1.11,1.35,2.66,2.02,4.65,2.02s3.57-.65,4.81-1.96c.48-.5.86-1.06,1.15-1.67.85,2.42,2.95,3.64,6.3,3.64,1.82,0,3.28-.37,4.38-1.12,1.1-.75,1.65-1.73,1.65-2.95,0-2.13-1.47-3.43-4.42-3.92l-2.82-.46c-1.5-.25-2.25-.87-2.25-1.84,0-.62.29-1.1.88-1.45.59-.34,1.34-.52,2.26-.52,1.84,0,3.06.69,3.65,2.07l2.06-.41c-.74-2.24-2.67-3.37-5.81-3.37-1.63,0-2.93.37-3.89,1.12-.96.75-1.45,1.68-1.45,2.78,0,1,.35,1.81,1.06,2.42.71.61,1.66,1.02,2.85,1.23l3.05.53c1.65.28,2.48.94,2.48,1.98,0,.7-.32,1.24-.97,1.62-.65.38-1.44.58-2.38.58-2.54,0-4.05-.83-4.52-2.5l-2.01.38c.41-.94.63-2,.63-3.19,0-1.98-.58-3.64-1.73-4.96-1.15-1.32-2.72-1.99-4.72-1.99-1.86,0-3.42.63-4.67,1.89-1.25,1.26-1.88,2.94-1.88,5.05,0,1.99.56,3.66,1.67,5.01ZM57.6,90.73c.77-.83,1.72-1.25,2.84-1.25s2.04.41,2.85,1.24c.81.83,1.22,2.16,1.22,3.99s-.39,3.17-1.16,4.04c-.77.86-1.73,1.3-2.88,1.3s-2.09-.41-2.86-1.24c-.77-.83-1.16-2.19-1.16-4.11,0-1.81.39-3.13,1.16-3.96Z"/>
    <polygon class="st34" points="78.27 99.8 78.27 101.38 88.93 101.38 88.93 99.8 80.97 99.8 88.93 89.26 88.93 88.14 78.86 88.14 78.86 89.75 85.96 89.75 78.27 99.8"/>
    <path class="st34" d="M90.2,99.72c1.05,1.35,2.57,2.02,4.56,2.02,1.47,0,2.7-.41,3.68-1.24.98-.83,1.62-1.97,1.9-3.44l-2.03-.33c-.5,2.2-1.67,3.3-3.53,3.3-1.2,0-2.13-.47-2.79-1.41s-.99-2.26-.99-3.95c0-1.54.33-2.79,1-3.75s1.62-1.45,2.86-1.45c1.92,0,3.08,1.09,3.46,3.28l2.03-.35c-.23-1.36-.82-2.47-1.77-3.33-.95-.86-2.21-1.29-3.79-1.29-1.9,0-3.4.67-4.5,2-1.1,1.33-1.65,3.01-1.65,5.02s.52,3.58,1.57,4.93Z"/>
    <polygon class="st34" points="99.95 99.8 99.95 101.38 110.6 101.38 110.6 99.8 102.65 99.8 110.6 89.26 110.6 88.14 100.53 88.14 100.53 89.75 107.64 89.75 99.95 99.8"/>
  </g>
  <path class="st73" d="M365.28,42.83h108.21v108.21h-108.21V42.83ZM463.6,52.73h-88.42v88.42h88.42V52.73Z"/>
  <g id="tux">
    <g id="body">
      <path id="body_base" class="st0" d="M446.39,65.87c-2.15,0-4.31.42-6.26,1.48-2.07,1.11-3.77,2.9-4.81,5.01-1.05,2.11-1.46,4.36-1.52,6.84-.12,4.71.11,9.65.46,14.13.09,1.36.27,2.16.09,3.56-.58,2.98-3.18,4.98-4.57,7.59-1.53,2.88-2.18,6.14-3.33,9.19-1.06,2.79-2.54,5.41-3.54,8.23-1.4,3.93-1.82,8.26-.9,12.33.71,3.1,2.18,6.02,4.17,8.51-.29.52-.57,1.04-.86,1.56-.92,1.59-2.05,3.1-2.57,4.86-.26.88-.37,1.82-.2,2.72.17.9.63,1.77,1.34,2.34.47.37,1.04.62,1.62.75.58.13,1.19.16,1.79.15,2.28-.05,4.5-.74,6.71-1.32,1.31-.34,2.63-.65,3.95-.92,4.71-.96,9.97-.58,14.34.05,1.48.23,2.95.52,4.41.87,2.28.55,4.55,1.25,6.89,1.32.62.02,1.24-.01,1.84-.14.6-.14,1.19-.38,1.67-.76.72-.57,1.18-1.44,1.35-2.34.17-.9.06-1.85-.2-2.73-.53-1.76-1.67-3.27-2.61-4.85-.37-.63-.72-1.27-1.09-1.89,2.83-3.18,5.11-6.86,6.43-10.9,1.44-4.41,1.7-9.16,1.1-13.76s-2.06-9.06-3.98-13.28c-2.41-5.29-4.43-7.21-5.9-11.85-1.58-5.03-.28-10.97-1.46-15.53-.42-1.55-1.09-3.03-1.95-4.38-1.01-1.59-2.29-3.01-3.82-4.11-2.43-1.76-5.48-2.7-8.59-2.7h0Z"/>
      <path id="belly" class="st71" d="M437.85,92.4c-.32.41-.53.89-.66,1.39-.13.5-.17,1.02-.19,1.54-.04,1.04.03,2.09-.25,3.09-.29,1.07-.95,2-1.59,2.9-1.11,1.56-2.24,3.17-2.79,5.01-.33,1.11-.44,2.29-.33,3.45-1.24,1.83-2.32,3.77-3.22,5.8-1.36,3.07-2.28,6.34-2.61,9.68-.4,4.09.12,8.3,1.74,12.08,1.17,2.74,2.91,5.23,5.15,7.18,1.14.99,2.41,1.83,3.76,2.5,4.7,2.31,10.51,2.32,15.13-.15,2.42-1.29,4.46-3.17,6.42-5.07,1.18-1.15,2.36-2.32,3.27-3.7,1.74-2.66,2.34-5.88,2.72-9.03.66-5.51.68-11.33-1.74-16.32-.83-1.72-1.94-3.31-3.27-4.68-.35-2.4-1.05-4.76-2.06-6.96-.73-1.6-1.63-3.11-2.31-4.72-.28-.66-.52-1.34-.83-1.99-.31-.65-.69-1.27-1.22-1.77-.53-.51-1.19-.87-1.89-1.1-.7-.23-1.44-.34-2.17-.37-1.47-.08-2.95.12-4.42.06-1.17-.05-2.34-.25-3.51-.18-.58.04-1.17.14-1.71.36-.54.22-1.05.56-1.41,1.02Z"/>
      <g id="body_self_shadows">
        <g class="st75">
          <path id="belly_shadow_left" class="st12" d="M432.67,107.16c.31.47-.2,2.09,7.12,1.05,0,0-1.29.14-2.55.43-1.97.66-3.68,1.39-5.01,2.37-1.31.97-2.27,2.23-3.47,3.31,0,0,1.95-3.56,2.43-4.63.49-1.07-.08-1.02.3-2.6s1.32-3.09,1.32-3.09c0,0-.77,2.23-.15,3.16Z"/>
        </g>
        <g class="st43">
          <path id="belly_shadow_right" class="st8" d="M456.19,106.73c-1.49,1.04-2.37.92-4.17,1.12-1.81.2-6.7.13-6.7.13,0,0,.71-.01,2.28.28,1.57.29,4.77.57,6.57,1.26,1.81.69,2.46.89,3.56,1.58,1.56.99,2.71,2.53,4.2,3.61,0,0,.07-1.43-.53-2.51-.6-1.07-2.22-2.76-2.7-4.34-.47-1.58-.7-4.67-.7-4.67,0,0-.32,2.51-1.8,3.54h0Z"/>
        </g>
        <g class="st67">
          <path id="belly_shadow_middle" class="st11" d="M442.17,104.52c-.06.45-.13.9-.22,1.34-.04.22-.09.44-.17.65-.08.21-.2.41-.37.56-.15.13-.32.22-.5.3-.7.32-1.44.53-2.19.62.3.02.6.05.91.08.19.02.38.04.56.09.19.05.37.12.52.23.17.13.3.29.4.48.2.37.26.79.3,1.21.05.53.05,1.07.01,1.6.04-.35.11-.71.22-1.05.2-.62.53-1.19.96-1.67.18-.19.37-.36.57-.51.64-.45,1.46-.65,2.24-.54-.79.03-1.59-.22-2.22-.69-.32-.24-.6-.54-.8-.9-.3-.54-.39-1.21-.23-1.81Z"/>
        </g>
        <g class="st51">
          <path id="belly_shadow_lower" class="st9" d="M440.26,115.03c-.38,1.44-.64,2.92-.78,4.41-.2,2.1-.15,4.22-.27,6.33-.09,1.79-.3,3.6,0,5.37.15.84.41,1.66.79,2.43.06-.29.1-.59.13-.89.13-1.43-.11-2.87-.19-4.31-.14-2.52.2-5.03.35-7.55.11-1.93.1-3.87-.04-5.8Z"/>
        </g>
      </g>
      <g id="body_glare">
        <g class="st21">
          <path id="belly_glare" class="st7" d="M465.44,112.91c.37-.06,2.63,1.87,2.32,2.58-.31.71-.89.28-1.31.29-.42,0-1.55.52-1.74.2-.19-.33.5-1.09.86-1.72.29-.51-.5-1.29-.14-1.34h0Z"/>
        </g>
        <g class="st44">
          <path id="head_glare" class="st19" d="M451.61,69.85c-.79.56-.45,1.26-.11,1.96.34.7-.75,2.72-.76,2.81-.01.09,2.14-1.02,2.73-1.75.7-.85,2.45,1.15,2.35.85,0-.54-3.42-4.42-4.22-3.87Z"/>
        </g>
        <g class="st3">
          <path id="neck_glare" class="st41" d="M457.62,93.34c-.67.61.32,1.52.78,2.6.29.67,1.09,1.61,1.86,1.46.58-.11.94-.95.89-1.54-.11-1.14-1.07-1.41-1.77-1.8-.55-.31-1.29-1.14-1.76-.71Z"/>
        </g>
      </g>
    </g>
    <g id="wings">
      <g id="wing_left">
        <path id="wing_left_base" class="st0" d="M430.99,102.04c-2.19,2.48-4.43,4.89-5.67,7.57-.61,1.36-.9,2.84-1.32,4.28-.47,1.63-1.12,3.2-1.84,4.74-.67,1.42-1.41,2.8-2.14,4.18-.54,1.01-1.08,2.03-1.27,3.16-.15.89-.06,1.81.16,2.68.23.87.59,1.7,1,2.5,1.75,3.42,4.38,6.37,7.49,8.63,1.41,1.02,2.92,1.91,4.51,2.63.86.39,1.76.74,2.71.76.47.01.95-.07,1.38-.26.43-.19.82-.49,1.08-.89.32-.49.42-1.09.36-1.67s-.29-1.13-.59-1.62c-.74-1.21-1.9-2.09-3.03-2.96-2.42-1.87-4.76-3.86-7.01-5.94-.63-.59-1.27-1.2-1.71-1.94-.43-.72-.66-1.55-.82-2.38-.43-2.27-.32-4.66.45-6.84.3-.85.7-1.67,1.09-2.48.67-1.42,1.3-2.86,2.18-4.16,1.09-1.62,2.56-2.99,3.44-4.72.75-1.47,1.06-3.11,1.35-4.73.23-1.27.66-2.51.89-3.78-.43.82-1.83,2.18-2.69,3.25Z"/>
        <g class="st4">
          <path id="wing_left_glare" class="st18" d="M428.47,111.07c-.72.66-1.34,1.42-1.84,2.26-.82,1.38-1.31,2.93-1.91,4.41-.44,1.11-.96,2.22-1.03,3.42-.03.61.06,1.23.08,1.84s-.04,1.25-.34,1.79c-.25.45-.67.8-1.15.97.66.22,1.24.64,1.65,1.19.34.47.57,1.01.86,1.5.24.4.54.77.91,1.06.37.29.81.5,1.27.56.64.08,1.31-.13,1.78-.57-.6-5.57-.05-11.26,1.59-16.62.1-.34.21-.68.24-1.03.03-.35-.04-.73-.26-1.01-.11-.15-.27-.27-.44-.34-.17-.07-.37-.1-.55-.08-.19.02-.37.09-.52.2-.15.11-.27.27-.35.44h0Z"/>
        </g>
      </g>
      <g id="wing_right">
        <path id="wing_right_base" class="st0" d="M466.4,111.44c1.88,1.51,3.07,3.8,3.44,6.18.29,1.86.1,3.77-.32,5.6-.42,1.84-1.06,3.61-1.71,5.38-.25.7-.51,1.42-.61,2.16-.1.75-.04,1.53.32,2.19.41.76,1.18,1.28,2,1.52.81.24,1.69.24,2.52.03s2.21-.47,2.88-.99c1.7-1.32,2.11-3.62,2.51-5.64.42-2.1.22-4.31-.15-6.43-.51-2.9-1.36-5.73-2.43-8.47-.8-2.01-1.81-3.94-3.03-5.72-1.19-1.75-2.87-3.12-4.12-4.83-.43-.6-.95-1.21-1.38-1.81-.92-1.3-.71-1.05-1.28-1.9-.41-.61-1.06-.82-1.75-1.08-.69-.27-1.46-.34-2.17-.15-.93.26-1.7,1-2.1,1.88-.41.88-.48,1.89-.32,2.85.2,1.23.77,2.38,1.41,3.46.72,1.22,1.55,2.39,2.63,3.29,1.13.94,2.5,1.57,3.65,2.49Z"/>
        <g class="st46">
          <path id="wing_right_glare" class="st41" d="M461.97,108.52c.15.14.31.29.47.43,1.15.94,1.77,2,2.94,2.93,1.91,1.51,3.85,4.12,4.23,6.51.29,1.86-.09,2.87-.57,5.06-.47,2.19-1.81,5.3-2.54,7.41-.29.84.59.49.47,1.38-.06.44-.06.88-.01,1.32,0-.08.01-.17.02-.25.14-1.21.51-2.38.91-3.52.78-2.2,1.67-4.36,2.29-6.61.62-2.25.55-3.88.23-5.82-.41-2.44-1.82-4.69-3.83-6.18-1.42-1.05-3.1-1.72-4.61-2.65h0Z"/>
        </g>
      </g>
    </g>
    <g id="feet">
      <g id="foot_left">
        <path id="foot_left_base" class="st29" d="M420.59,128.72c.49-.2,1.05-.24,1.57-.15.53.1,1.03.33,1.47.62.89.6,1.54,1.48,2.17,2.34,1.44,1.99,2.83,4.01,4.09,6.12,1.02,1.71,1.96,3.48,3.14,5.08.77,1.05,1.64,2.02,2.41,3.06.77,1.05,1.46,2.18,1.8,3.43.45,1.63.27,3.43-.5,4.93-.54,1.06-1.38,1.96-2.4,2.58s-2.09.89-3.28.89c-1.89,0-3.74-1.01-5.49-1.71-3.58-1.43-7.46-1.87-11.15-2.98-1.13-.34-2.25-.75-3.39-1.06-.51-.14-1.02-.26-1.5-.48-.48-.22-.93-.54-1.19-.99-.2-.35-.29-.76-.29-1.17s.1-.81.24-1.19c.28-.76.72-1.46,1.03-2.21.49-1.23.58-2.59.51-3.92-.06-1.32-.28-2.64-.37-3.96-.04-.59-.06-1.19.06-1.77.11-.58.36-1.15.79-1.56.39-.38.91-.61,1.45-.72.53-.11,1.09-.11,1.63-.1.54.01,1.09.04,1.64,0,.54-.04,1.09-.16,1.57-.44.45-.26.82-.64,1.13-1.06.3-.42.55-.88.81-1.33.25-.45.51-.9.85-1.3.33-.4.74-.75,1.22-.95Z"/>
        <g class="st26">
          <path id="foot_left_layer_1" class="st76" d="M421.37,129.57c.45-.18.96-.2,1.43-.09.47.11.91.34,1.29.63.77.59,1.3,1.42,1.81,2.24,1.23,1.99,2.42,4,3.56,6.04.86,1.55,1.68,3.12,2.73,4.53.7.94,1.5,1.8,2.21,2.73s1.35,1.94,1.66,3.07c.41,1.45.24,3.06-.46,4.39-.51.96-1.28,1.78-2.22,2.32-.94.54-2.03.82-3.12.77-1.73-.08-3.31-.94-4.94-1.53-3.12-1.13-6.5-1.29-9.71-2.17-1.15-.31-2.27-.73-3.42-1.02-.51-.13-1.03-.24-1.52-.44-.48-.2-.94-.52-1.2-.98-.19-.34-.27-.74-.26-1.13.01-.39.11-.78.25-1.14.28-.73.72-1.39,1-2.12.43-1.1.48-2.32.4-3.5-.08-1.18-.29-2.35-.36-3.53-.03-.53-.04-1.06.07-1.58.11-.52.33-1.02.71-1.39.41-.41.97-.62,1.54-.71.57-.09,1.14-.05,1.71,0,.57.05,1.15.11,1.72.08.57-.04,1.15-.18,1.63-.5.43-.29.75-.72,1-1.17s.42-.95.61-1.43c.19-.48.39-.96.68-1.39.29-.43.69-.8,1.18-1h0Z"/>
        </g>
        <g class="st27">
          <path id="foot_left_layer_2" class="st62" d="M420.95,128.45c.44-.22.95-.26,1.43-.16.48.1.92.33,1.3.63.75.61,1.23,1.48,1.67,2.33,1.02,1.96,1.97,3.96,3.19,5.8.89,1.34,1.91,2.58,2.81,3.91,1.22,1.8,2.2,3.79,2.61,5.91.27,1.43.27,2.98-.42,4.27-.46.85-1.19,1.55-2.06,1.98-.87.44-1.87.61-2.84.53-1.53-.13-2.92-.89-4.36-1.41-2.56-.93-5.32-1.15-7.95-1.86-1.11-.29-2.2-.68-3.32-.91-.5-.1-1-.18-1.48-.36s-.92-.48-1.17-.91c-.17-.31-.23-.67-.2-1.02.03-.35.13-.69.27-1.01.28-.65.68-1.24.89-1.91.32-.99.19-2.05-.05-3.06-.23-1-.57-1.99-.68-3.01-.05-.46-.05-.92.06-1.37.1-.45.32-.88.65-1.2.43-.41,1.03-.62,1.63-.68.6-.06,1.2.02,1.8.11s1.2.18,1.8.15c.6-.03,1.22-.18,1.68-.55.47-.37.76-.91.93-1.47.17-.56.22-1.15.29-1.73.07-.58.15-1.17.38-1.71.23-.54.61-1.04,1.14-1.3Z"/>
        </g>
        <g class="st36">
          <path id="foot_left_glare" class="st1" d="M426.41,133.34c.81,1.46,1.3,3.13,2.1,4.6.73,1.35,1.57,2.74,2.32,3.99.33.56,1.11,1.41,1.89,2.73.71,1.2,1.43,2.87,1.83,3.43-.23-.66-.7-2.43-1.27-3.69-.53-1.18-1.14-1.85-1.52-2.48-.75-1.24-1.55-2.37-2.32-3.55-1.06-1.64-1.86-3.47-3.02-5.03h0Z"/>
        </g>
      </g>
      <g id="foot_right">
        <g class="st54">
          <path id="foot_right_shadow" class="st15" d="M479.28,143.16c-.14.48-.37.94-.65,1.36-.63.93-1.54,1.63-2.45,2.28-1.55,1.1-3.17,2.11-4.62,3.36-.97.84-1.85,1.78-2.67,2.77-.7.85-1.36,1.74-2.16,2.49-.81.76-1.75,1.38-2.77,1.71-1.24.41-2.56.39-3.75.08-.84-.22-1.66-.59-2.18-1.27s-.69-1.59-.75-2.49c-.11-1.58.08-3.2.25-4.81.14-1.34.28-2.67.33-4.01.1-2.43-.06-4.83-.39-7.19-.06-.4-.11-.8-.08-1.2.03-.41.17-.83.46-1.15.27-.29.63-.46,1-.54.37-.09.74-.09,1.11-.1.87-.02,1.74-.08,2.6,0,.54.05,1.07.15,1.61.2.9.09,1.84.04,2.74-.22.97-.29,1.9-.82,2.89-.97.41-.06.81-.05,1.2,0,.4.05.8.16,1.11.41.24.19.41.44.54.71.2.41.32.86.39,1.32.06.41.09.83.19,1.22.17.65.57,1.2,1.04,1.65.47.45,1.02.8,1.57,1.15.55.35,1.1.69,1.68.98.28.14.56.26.82.41.27.16.51.35.68.6.24.34.33.79.26,1.23h0Z"/>
        </g>
        <path id="foot_right_base" class="st55" d="M484.58,145.78c-.81.96-1.94,1.6-3.06,2.17-1.91.97-3.89,1.83-5.69,3-1.2.79-2.32,1.71-3.36,2.7-.89.85-1.73,1.76-2.73,2.48-1.01.73-2.17,1.25-3.4,1.44-.34.05-.68.08-1.03.08-1.16,0-2.32-.28-3.39-.75-.97-.42-1.9-1.03-2.46-1.92-.56-.9-.69-2-.69-3.07,0-1.87.34-3.73.67-5.58.27-1.54.53-3.08.7-4.63.3-2.82.3-5.67.1-8.5-.04-.47-.08-.95,0-1.42.07-.47.27-.94.62-1.25.33-.29.78-.42,1.22-.44.44-.03.87.04,1.31.11,1.02.15,2.05.27,3.05.53.63.16,1.25.39,1.87.56,1.05.28,2.15.42,3.23.29,1.17-.14,2.3-.57,3.47-.54.48.01.96.1,1.42.25.47.15.93.36,1.27.71.26.27.44.6.58.95.2.52.32,1.07.36,1.62.04.49.03.99.13,1.47.15.79.57,1.52,1.09,2.14.52.62,1.14,1.15,1.76,1.67.62.52,1.24,1.04,1.91,1.49.31.22.63.42.93.65.3.24.57.51.76.84.16.29.25.62.25.95,0,.19-.03.37-.08.56-.16.51-.46,1.01-.82,1.45h0Z"/>
        <g class="st69">
          <path id="foot_right_layer_1" class="st61" d="M484.48,143.34c-.19.48-.46.92-.8,1.32-.74.87-1.77,1.44-2.79,1.95-1.75.87-3.56,1.64-5.2,2.7-1.1.71-2.11,1.53-3.06,2.43-.81.76-1.58,1.58-2.49,2.23-.92.66-1.98,1.13-3.1,1.29-1.36.2-2.77-.06-4.03-.6-.88-.38-1.74-.92-2.25-1.73-.51-.81-.63-1.8-.63-2.76,0-1.69.31-3.36.61-5.02.25-1.38.49-2.76.64-4.16.27-2.54.26-5.1.09-7.64-.03-.43-.06-.86,0-1.28.06-.42.24-.84.56-1.12.3-.26.71-.38,1.11-.39.4-.02.8.04,1.19.1.94.14,1.87.24,2.79.48.58.15,1.14.35,1.71.5.96.26,1.97.38,2.95.27,1.06-.12,2.1-.52,3.17-.49.44.01.87.09,1.29.22.43.13.85.32,1.17.64.24.24.4.54.53.85.19.46.32.96.33,1.46.01.52-.1,1.05-.03,1.57.06.42.24.82.47,1.18.23.36.5.68.78,1.01.53.63,1.06,1.27,1.73,1.75.76.55,1.66.87,2.44,1.38.23.15.46.33.62.55.28.38.35.9.19,1.34h0Z"/>
        </g>
        <g class="st56">
          <path id="foot_right_layer_2" class="st35" d="M484.37,142.8c-.22.48-.49.93-.82,1.33-.76.92-1.79,1.56-2.87,1.97-1.78.67-3.72.76-5.47,1.53-1.06.47-2.03,1.17-3,1.84-.78.53-1.58,1.05-2.44,1.43-.98.43-2.01.66-3.05.83-.66.1-1.33.18-2,.15-.67-.04-1.33-.19-1.92-.53-.44-.26-.85-.63-1.09-1.11-.26-.53-.31-1.16-.3-1.77.02-1.61.37-3.21.35-4.83-.01-1.41-.29-2.8-.37-4.2-.15-2.7.43-5.45-.09-8.1-.08-.43-.19-.85-.19-1.28,0-.22.04-.43.11-.63.08-.2.2-.38.36-.51.14-.1.3-.17.47-.2.16-.03.34-.02.51,0,.33.05.65.18.98.28.93.28,1.92.27,2.87.48.6.13,1.17.35,1.76.51.99.27,2.02.39,3.03.27,1.09-.13,2.15-.52,3.25-.49.45.01.9.09,1.33.22s.87.31,1.2.65c.23.24.41.54.54.86.2.46.34.96.34,1.47,0,.27-.04.53-.07.79-.02.27-.03.53.03.79.06.26.2.49.35.7.15.21.32.4.48.61.44.58.75,1.25,1.09,1.9s.72,1.29,1.27,1.76c.73.63,1.68.89,2.51,1.39.24.15.47.32.64.56.14.19.23.41.26.65.03.23.01.48-.06.7h0Z"/>
        </g>
        <g class="st6">
          <path id="foot_right_glare" class="st59" d="M461.13,130.96c1.01-.27,1.87.49,2.61,1.07.47.41,1.16.3,1.74.32.96-.03,1.92.16,2.89.04,1.9-.16,3.76-.63,5.67-.71.91-.06,1.94-.11,2.72.42.32.22.79,1.16,1.1.81-.13-.98-.86-1.93-1.83-2.19-.77-.12-1.54.09-2.32.02-2.29-.05-4.57-.48-6.87-.36-1.6.01-3.19-.06-4.79-.12-.63-.13-.85.43-1.19.64.09.07.12.09.28.05h0Z"/>
        </g>
      </g>
    </g>
    <g id="wing_tip_right">
      <g id="wing_tip_right_shadow">
        <g class="st66">
          <path id="wing_tip_right_shadow_lower" class="st10" d="M474.55,133.12c-.17-.34-.49-.6-.84-.74-.35-.15-.74-.2-1.12-.19-.76,0-1.52.2-2.29.14-.64-.06-1.25-.3-1.88-.45-.65-.16-1.34-.22-1.98-.04-.69.19-1.29.65-1.67,1.25-.34.53-.49,1.16-.54,1.79s0,1.25.07,1.88c.04.45.1.9.2,1.34.11.44.28.87.54,1.24.38.53.95.91,1.57,1.14,1,.37,2.14.35,3.13-.05,1.75-.76,3.23-2.12,4.13-3.8.33-.6.58-1.24.74-1.9.06-.27.11-.53.11-.81,0-.27-.04-.54-.17-.79h0Z"/>
        </g>
        <g class="st5">
          <path id="wing_tip_right_shadow_upper" class="st16" d="M474.55,132.15c-.17-.25-.49-.43-.84-.54-.35-.11-.74-.14-1.12-.14-.76,0-1.52.15-2.29.1-.64-.04-1.25-.22-1.88-.32-.65-.11-1.34-.16-1.98-.03-.69.13-1.29.47-1.67.9-.34.38-.49.84-.54,1.29-.05.45,0,.91.07,1.36.04.33.1.66.2.98.11.32.28.63.54.9.38.38.95.66,1.57.82,1,.27,2.14.25,3.13-.04,1.75-.55,3.23-1.53,4.13-2.75.33-.44.58-.9.74-1.38.06-.19.11-.39.11-.58,0-.2-.04-.4-.17-.57h0Z"/>
        </g>
      </g>
      <path id="wing_tip_right_base" class="st0" d="M476,129.93c-.13-.34-.35-.64-.62-.89-.27-.24-.59-.43-.92-.57-.67-.28-1.39-.39-2.11-.52-.67-.13-1.34-.28-2.01-.39-.7-.12-1.43-.2-2.12-.04-.61.14-1.17.45-1.63.87s-.82.94-1.08,1.51c-.46,1-.6,2.12-.51,3.22.06.81.27,1.65.81,2.27.43.5,1.05.81,1.68,1,1.09.32,2.28.3,3.36-.05,1.78-.6,3.36-1.79,4.43-3.33.35-.51.65-1.07.79-1.67.1-.46.11-.95-.05-1.39h0Z"/>
      <g id="wing_tip_right_glare">
        <g class="st20">
          <g id="wing_tip_right_glare_1">
            <path id="path_wing_tip_right_glare" class="st42" d="M468.59,127.19c-.17.01-.33.03-.5.06-1.07.19-2.05.87-2.61,1.8-.39.66-.57,1.44-.51,2.21.03-.54.16-1.06.43-1.53.44-.8,1.24-1.4,2.14-1.57.55-.1,1.12-.04,1.68.03.54.07,1.08.14,1.6.25.82.18,1.62.45,2.31.93.16.11.31.24.43.39.13.15.22.32.26.51.05.28-.03.57-.16.82-.14.25-.33.47-.53.67-.16.16-.34.32-.51.47.79-.15,1.59-.37,2.25-.83.28-.2.53-.43.7-.72.16-.3.23-.66.15-.99-.06-.22-.18-.43-.33-.6s-.33-.31-.52-.44c-.83-.58-1.8-.95-2.8-1.07-.65-.12-1.29-.22-1.94-.3-.51-.06-1.03-.12-1.53-.09h0Z"/>
          </g>
        </g>
        <g class="st57">
          <g id="wing_tip_right_glare_2">
            <path id="path_wing_tip_right_glare1" data-name="path_wing_tip_right_glare" class="st65" d="M468.59,127.19c-.17.01-.33.03-.5.06-1.07.19-2.05.87-2.61,1.8-.39.66-.57,1.44-.51,2.21.03-.54.16-1.06.43-1.53.44-.8,1.24-1.4,2.14-1.57.55-.1,1.12-.04,1.68.03.54.07,1.08.14,1.6.25.82.18,1.62.45,2.31.93.16.11.31.24.43.39.13.15.22.32.26.51.05.28-.03.57-.16.82-.14.25-.33.47-.53.67-.16.16-.34.32-.51.47.79-.15,1.59-.37,2.25-.83.28-.2.53-.43.7-.72.16-.3.23-.66.15-.99-.06-.22-.18-.43-.33-.6s-.33-.31-.52-.44c-.83-.58-1.8-.95-2.8-1.07-.65-.12-1.29-.22-1.94-.3-.51-.06-1.03-.12-1.53-.09h0Z"/>
          </g>
        </g>
      </g>
    </g>
    <g id="face">
      <g id="eyes">
        <g id="eye_left">
          <path id="eyeball_left" class="st64" d="M438.33,79.59c-.55.03-1.08.28-1.48.66-.41.38-.69.87-.86,1.39-.35,1.05-.27,2.18-.19,3.28.07.99.15,2.01.52,2.93.19.47.45.9.8,1.26.35.35.79.63,1.27.75.45.11.94.09,1.38-.05.45-.14.85-.4,1.19-.72.49-.48.81-1.1,1-1.76.19-.66.24-1.34.23-2.03-.01-.85-.13-1.71-.39-2.52-.27-.81-.7-1.58-1.29-2.19-.29-.3-.62-.56-.99-.74-.37-.18-.79-.29-1.2-.27Z"/>
          <g id="pupil_left">
            <path id="pupil_left_base" class="st0" d="M437,84.15c-.11.7-.12,1.42.12,2.08.16.44.42.84.73,1.18.2.22.44.42.71.56.28.13.59.19.89.11.27-.07.51-.24.68-.46.18-.22.29-.48.38-.75.25-.79.21-1.66-.04-2.45-.18-.58-.47-1.13-.93-1.52-.22-.19-.48-.33-.76-.4-.28-.07-.58-.05-.85.07-.29.13-.52.38-.66.67-.15.28-.22.6-.28.91h0Z"/>
            <g class="st45">
              <path id="pupil_left_glare" class="st53" d="M438.47,83.64c.08.2.33.27.47.43.13.15.27.31.35.5.14.36-.14.9.15,1.16.09.08.28.08.37,0,.35-.32.28-.97.14-1.43-.13-.41-.44-.81-.83-1-.18-.09-.45-.17-.6-.04-.1.09-.09.27-.04.39Z"/>
            </g>
          </g>
          <g class="st2">
            <path id="eyelid_left" class="st50" d="M437.14,81.81c.83-.49,1.84-.61,2.8-.52.96.09,1.89.37,2.82.63.68.19,1.38.36,2.02.66.64.3,1.23.75,1.59,1.36.06.1.1.2.16.3s.13.19.22.25.2.11.32.11c.06,0,.11-.02.16-.05.05-.03.09-.07.12-.12.03-.06.04-.13.04-.19s-.02-.13-.04-.19c-.23-.85-.79-1.57-1.2-2.35-.25-.47-.46-.95-.71-1.42-.87-1.6-2.3-2.85-3.93-3.66s-3.44-1.2-5.25-1.31c-2.1-.13-4.2.13-6.28.49-.9.16-1.81.34-2.61.79-.4.22-.76.51-1.05.87-.29.35-.49.78-.56,1.23-.06.44,0,.89.16,1.3.15.41.39.79.67,1.13.55.68,1.27,1.22,1.92,1.8.66.58,1.26,1.23,2,1.72.37.24.76.44,1.19.56.42.12.87.15,1.3.06.44-.09.86-.31,1.22-.59.36-.28.67-.61.97-.95.6-.69,1.15-1.45,1.93-1.91Z"/>
          </g>
          <path id="eyebrow_left" class="st37" d="M440.59,78.98c.77.72,1.35,1.62,1.74,2.57-.17-1.04-.44-1.89-1.12-2.57-.42-.39-.89-.73-1.43-.98-.47-.21-.99-.34-1.29-.35-.3,0-.37,0-.43,0-.06,0-.11,0,.08.03.19.02.63.14,1.09.35s.94.55,1.36.94Z"/>
        </g>
        <g id="eye_right">
          <path id="eyeball_right" class="st60" d="M448.06,79.59c-.86.59-1.58,1.41-1.93,2.39-.44,1.24-.28,2.62.15,3.86.44,1.27,1.17,2.48,2.28,3.25.55.38,1.19.65,1.86.72.67.08,1.36-.03,1.96-.34.72-.38,1.28-1.04,1.62-1.79.34-.75.49-1.57.54-2.39.06-1.04-.04-2.1-.39-3.09-.37-1.07-1.05-2.06-2-2.68-.47-.31-1.01-.52-1.58-.6-.56-.08-1.14-.02-1.67.19-.3.12-.58.28-.85.46Z"/>
          <g id="pupil_right">
            <path id="pupil_right_base" class="st0" d="M450.04,82.19c-.32.02-.64.13-.91.3-.27.17-.51.41-.69.67-.37.53-.53,1.19-.56,1.84-.02.48.04.98.2,1.43.16.46.43.89.81,1.19.38.32.87.51,1.37.53.5.02,1-.12,1.41-.41.33-.23.59-.54.77-.89.19-.35.3-.73.35-1.13.09-.69-.01-1.42-.33-2.04-.32-.62-.86-1.14-1.52-1.38-.29-.1-.59-.16-.89-.14Z"/>
            <g class="st23">
              <path id="pupil_right_glare" class="st32" d="M452.04,85c.36-.36-.25-1.31-.73-1.7-.35-.28-1.36-.58-1.31-.27.04.3.5.7.8,1,.38.37,1.08,1.14,1.25.97Z"/>
            </g>
          </g>
          <g class="st24">
            <path id="eyelid_right" class="st22" d="M444.82,82.72c.74-.61,1.6-1.08,2.51-1.36,1.88-.58,4.01-.35,5.68.71.57.36,1.09.81,1.62,1.24.53.42,1.1.81,1.74,1.04.35.12.72.19,1.08.15.33-.03.65-.16.92-.34.27-.19.5-.44.67-.72.34-.57.46-1.25.39-1.91-.12-1.32-.86-2.49-1.49-3.66-.2-.37-.38-.74-.62-1.08-.72-1.05-1.87-1.74-3.08-2.15-1.21-.41-2.48-.55-3.75-.71-.57-.07-1.14-.15-1.7-.08-.65.08-1.26.34-1.89.5-.3.08-.61.13-.9.22-.3.09-.59.2-.84.4-.35.28-.57.71-.67,1.15-.1.44-.08.9,0,1.35.14.9.48,1.77.44,2.67-.02.62-.22,1.23-.19,1.85,0,.18.04.56.08.73h0Z"/>
          </g>
          <path id="eyebrow_right" class="st38" d="M451.04,77.05c-.15.19-.28.39-.38.61.66.14,1.29.42,1.86.79,1.1.73,1.93,1.79,2.51,2.97.14-.15.26-.31.37-.49-.59-1.23-1.43-2.35-2.57-3.1-.54-.36-1.15-.63-1.79-.78Z"/>
        </g>
      </g>
      <g id="beak">
        <g id="beak_shadow">
          <g class="st74">
            <path id="beak_shadow_lower" class="st33" d="M437.13,97.89c.53,1.53,1.58,2.83,2.84,3.84.42.34.86.65,1.35.87.49.22,1.03.35,1.56.3.52-.04,1.02-.25,1.48-.51s.88-.57,1.33-.85c.76-.48,1.57-.87,2.37-1.3.95-.52,1.87-1.11,2.67-1.84.37-.33.71-.7,1.11-.99.41-.29.89-.5,1.39-.46.37.03.72.18,1.09.26.18.04.37.06.56.03.18-.03.36-.1.49-.24.16-.16.23-.4.22-.63,0-.23-.09-.45-.19-.65-.21-.41-.53-.75-.68-1.19-.13-.39-.1-.8-.09-1.21.01-.41,0-.83-.18-1.19-.14-.27-.38-.49-.66-.63-.27-.15-.58-.22-.89-.25-.62-.06-1.23.06-1.85.1-.82.05-1.64-.05-2.46,0-1.02.06-2.03.36-3.05.36-1.17,0-2.34-.38-3.49-.2-.5.08-.97.26-1.44.42-.48.16-.97.3-1.47.29-.57-.01-1.12-.21-1.69-.25-.28-.02-.57,0-.84.1-.27.1-.51.28-.64.54-.08.14-.11.31-.12.47,0,.16.01.33.05.49.08.32.23.61.34.91.43,1.1.52,2.3.91,3.42Z"/>
          </g>
          <g class="st30">
            <path id="beak_shadow_upper" class="st17" d="M435.67,93.54c1.02.63,1.94,1.41,2.71,2.29.71.82,1.32,1.75,2.25,2.36.66.43,1.45.67,2.25.75.94.09,1.9-.05,2.81-.3.84-.23,1.66-.55,2.4-.97,1.42-.81,2.61-1.99,4.18-2.52.34-.12.7-.2,1.03-.34.33-.14.64-.35.8-.66.15-.29.14-.63.19-.95.05-.34.17-.67.24-1.01.06-.34.07-.7-.09-1.01-.13-.26-.37-.46-.65-.6-.28-.13-.59-.19-.9-.2-.62-.03-1.23.12-1.85.17-.82.07-1.64-.03-2.46,0-1.02.03-2.03.24-3.05.29-1.17.05-2.33-.12-3.49-.16-.51-.02-1.01-.01-1.51.07-.5.08-.99.23-1.41.49-.41.25-.74.59-1.11.88-.19.15-.39.28-.6.38-.22.1-.46.17-.7.18-.13,0-.25,0-.38.01-.21.03-.41.14-.53.3-.12.16-.17.37-.13.56h0Z"/>
          </g>
        </g>
        <path id="beak_base" class="st72" d="M440.91,86.85c.55-.61.92-1.36,1.44-1.99.26-.32.57-.61.92-.81s.77-.32,1.18-.28c.46.04.88.27,1.22.58s.58.71.78,1.12c.19.4.34.82.61,1.16.29.37.7.61,1.06.9.18.14.36.3.51.48.15.18.26.39.31.62.05.23.02.48-.06.7-.08.22-.22.42-.39.59-.34.33-.81.51-1.28.57-.94.13-1.89-.15-2.84-.12-.96.03-1.9.37-2.86.33-.48-.02-.96-.14-1.36-.41-.2-.14-.37-.32-.49-.52-.12-.2-.2-.44-.21-.68,0-.23.05-.46.14-.67.09-.21.22-.4.36-.58.29-.35.65-.65.95-.99Z"/>
        <g id="mandible_lower">
          <path id="mandible_lower_base" class="st28" d="M435.7,92.77c.02.09.05.18.1.26.08.14.2.25.33.34.13.1.27.18.41.26.72.46,1.31,1.09,1.83,1.76.7.9,1.32,1.9,2.25,2.56.66.47,1.45.73,2.25.81.94.09,1.9-.06,2.81-.33.84-.25,1.66-.6,2.4-1.06,1.42-.87,2.61-2.16,4.18-2.74.34-.13.7-.22,1.03-.37.33-.16.64-.39.8-.72.15-.32.14-.68.19-1.03.05-.37.17-.73.24-1.1.06-.37.07-.76-.09-1.1-.13-.28-.37-.5-.65-.64-.28-.14-.59-.21-.9-.22-.62-.03-1.23.13-1.85.19-.82.08-1.64-.03-2.46,0-1.02.03-2.03.26-3.05.31-1.17.05-2.33-.13-3.49-.17-.51-.02-1.01-.01-1.51.07-.5.08-.99.25-1.4.54-.41.28-.73.66-1.1.98-.19.16-.39.31-.61.42-.22.11-.46.18-.71.17-.13,0-.26-.02-.38.01-.08.03-.14.07-.2.13-.06.06-.1.12-.15.19-.1.15-.19.31-.27.48h0Z"/>
          <g class="st52">
            <path id="mandible_lower_glare" class="st48" d="M440.28,94.03c-.12.49-.05,1.03.2,1.47.24.44.66.79,1.14.95.61.2,1.3.1,1.87-.19.33-.17.63-.42.82-.74.1-.16.16-.34.19-.52.02-.18,0-.38-.06-.55-.07-.19-.2-.36-.35-.49-.16-.13-.34-.23-.54-.29-.39-.13-.99-.24-1.4-.24-.72-.01-1.76.12-1.87.61Z"/>
          </g>
        </g>
        <g id="mandible_upper">
          <g class="st31">
            <path id="mandible_upper_shadow" class="st49" d="M438.28,90.19c-.42.24-.81.51-1.2.79-.2.15-.41.3-.52.53-.08.16-.09.34-.1.51,0,.18.01.35-.01.53-.01.12-.05.24-.05.35,0,.06,0,.12.01.18.02.06.05.11.09.16.05.06.13.09.2.11s.15.03.23.05c.36.09.68.31.95.56.28.25.53.53.82.76.78.64,1.82.9,2.83.92,1.01.02,2.01-.19,3-.42.77-.18,1.55-.35,2.29-.63,1.15-.42,2.21-1.06,3.13-1.86.42-.36.81-.76,1.28-1.05.41-.26.87-.43,1.3-.68.04-.02.08-.05.11-.07.04-.03.06-.06.09-.1.03-.07.03-.15.01-.22-.02-.07-.06-.14-.11-.2-.05-.06-.11-.12-.18-.18-.44-.38-1.04-.51-1.62-.56-.58-.04-1.16-.01-1.73-.11-.54-.09-1.05-.29-1.57-.46-.54-.18-1.1-.31-1.66-.41-1.33-.22-2.7-.18-4.01.1-1.25.26-2.46.73-3.56,1.39h0Z"/>
          </g>
          <path id="mandible_upper_base" class="st47" d="M438.14,88.79c-.6.4-1.13.89-1.59,1.45-.26.32-.49.67-.62,1.05-.1.31-.14.63-.2.95-.03.12-.05.24-.05.36,0,.06,0,.12.03.18.02.06.05.11.09.15.07.07.17.11.27.13.1.02.2.02.3.03.45.05.86.27,1.23.53.37.25.72.56,1.1.8.84.53,1.85.77,2.85.81,1,.04,1.99-.11,2.98-.31.78-.15,1.55-.34,2.29-.63,1.13-.45,2.15-1.13,3.13-1.86.44-.33.88-.67,1.28-1.05.13-.13.27-.27.41-.39.14-.12.3-.22.48-.28.27-.09.57-.06.85-.01.21.04.42.08.64.08.11,0,.22-.03.32-.06s.19-.1.26-.19c.09-.11.14-.25.14-.39s-.04-.28-.11-.41c-.14-.24-.39-.41-.65-.52-.35-.16-.74-.23-1.11-.33-1.16-.28-2.28-.69-3.35-1.22-.53-.26-1.05-.55-1.57-.83-.54-.29-1.08-.56-1.66-.74-1.3-.39-2.72-.27-4.01.18-1.43.49-2.72,1.38-3.7,2.53Z"/>
          <g class="st40">
            <path id="mandible_upper_glare" class="st25" d="M447.29,89.08c-.07-.09-.17-.15-.28-.18-.11-.03-.22-.03-.33-.01-.22.04-.42.16-.61.29-.53.36-.99.81-1.4,1.3-.54.66-.98,1.41-1.13,2.25-.03.14-.04.29-.03.43.02.14.07.28.18.38.09.09.21.14.33.16.13.02.25,0,.37-.04.24-.08.43-.25.62-.41,1.03-.92,1.96-2.03,2.33-3.36.04-.13.07-.27.07-.41s-.04-.28-.12-.39Z"/>
          </g>
          <path id="naris_left" class="st13" d="M441.29,87.04c-.28-.09-.73.39-.58.64.04.07.16.15.25.11.13-.07.23-.32.37-.42.09-.06.07-.3-.04-.33Z"/>
          <path id="naris_right" class="st14" d="M444.82,87.17c.07.23.44.19.66.3.19.1.34.31.55.32.2,0,.52-.07.54-.27.03-.26-.35-.43-.6-.53-.32-.12-.73-.19-1.03-.02-.07.04-.14.13-.12.2Z"/>
        </g>
        <g class="st68">
          <path id="beak_corner" class="st70" d="M454.39,90.66c-.07.6-.52,1.09-1.01,1.09-.49,0-.83-.49-.76-1.09.07-.6.52-1.09,1-1.09,0,0,0,0,0,0,.49,0,.83.49.76,1.09,0,0,0,0,0,0Z"/>
        </g>
      </g>
    </g>
  </g>
  <polygon class="st58" points="365.28 97.75 325.35 97.75 325.35 27.86 395.24 27.86 395.24 42.83 403.07 42.83 403.07 20.03 317.52 20.03 317.52 105.58 365.28 105.58 365.28 97.75"/>
  <polygon class="st63" points="317.52 70.18 271.52 70.18 271.52 8.8 332.89 8.8 332.89 20.03 339.76 20.03 339.76 1.93 264.64 1.93 264.64 77.05 317.52 77.05 317.52 70.18"/>
</svg>