<?xml version="1.0" encoding="utf-8"?>
<!-- Generator: Adobe Illustrator 21.0.0, SVG Export Plug-In . SVG Version: 6.00 Build 0)  -->
<svg version="1.1" id="Layer_1" xmlns="http://www.w3.org/2000/svg" xmlns:xlink="http://www.w3.org/1999/xlink" x="0px" y="0px"
	 viewBox="0 0 256 256" style="enable-background:new 0 0 256 256;" xml:space="preserve">
<style type="text/css">
	.st0{fill:url(#SVGID_1_);}
	.st1{fill:#7F7F7F;}
	.st2{fill:#BFBFBF;}
	.st3{fill:#FEFEFE;}
	.st4{fill:#007F00;}
	.st5{fill:#7F7F00;}
	.st6{fill:#00007F;}
	.st7{fill:#00FE00;}
	.st8{fill:#FEFE00;}
	.st9{fill:#007F7F;}
	.st10{fill:#0000FE;}
	.st11{fill:#00FEFE;}
</style>
<linearGradient id="SVGID_1_" gradientUnits="userSpaceOnUse" x1="35.1093" y1="658.3936" x2="-132.2807" y2="491.0036" gradientTransform="matrix(-1 0 0 1 80.98 -447.78)">
	<stop  offset="0" style="stop-color:#00AEEF"/>
	<stop  offset="5.941760e-02" style="stop-color:#04ACEB"/>
	<stop  offset="0.1219" style="stop-color:#11A6E1"/>
	<stop  offset="0.1858" style="stop-color:#269DCF"/>
	<stop  offset="0.2508" style="stop-color:#4390B6"/>
	<stop  offset="0.3165" style="stop-color:#697F96"/>
	<stop  offset="0.3829" style="stop-color:#986A6F"/>
	<stop  offset="0.4485" style="stop-color:#CE5241"/>
	<stop  offset="0.4846" style="stop-color:#EF4325"/>
	<stop  offset="1" style="stop-color:#FFFFFF"/>
</linearGradient>
<path class="st0" d="M25.7,26h204.8v204.8H25.7V26z M211.8,44.7H44.4v167.4h167.4V44.7z"/>
<g>
	<path class="st1" d="M192.3,158.2c4.6,0,4.6,0,4.6,4.7c-0.1,0.1-0.2,0.2-0.3,0.3c-3.2-0.2-3.4,2.5-4.4,4.5c-3.3-0.1-3.6,3-5,4.8
		c-1.4,0.6-2.8,0.5-4.2,0.5c-22.9,0-45.7,0-68.6,0c-1.5,0-3.1,0.2-4.5-0.6c-1.7-3-1.3-4.7,1.7-5.7c1.5-0.5,1.8-1.4,1.8-2.8
		c0-3.4-0.1-6.9,0.1-10.3c-0.4-3.5-0.4-3.6-4-3.6c-15.5,0-31,0-46.6,0c-1.1,0-2.3,0.1-3.4-0.1c-1.6,0-3.3,0.3-4.8-0.8
		c0-7.6,0-15.3,0-22.9c1.5-1.1,3-1.1,4.5,0c0.9,1,0.9,2.2,0.9,3.5c0,3.4,0,6.8,0,10.3c0,3.5,0.1,3.6,3.7,3.8c1.6-0.1,3.1-0.1,4.7,0
		c3-0.1,6.1-0.1,9.1,0c10.6-0.1,21.3,0,31.9-0.1c3.4,0,3.5-0.1,3.9-3.4c-0.1-4-0.1-4-4.2-4.1c-1.5,0-3.1,0.3-4.4-0.9
		c-0.8-1.6-0.8-3.2,0.1-4.7c1.3-1,2.9-0.6,4.4-0.8c1.3-0.2,3.5,0.6,3.5-1.3c0-2.2-2.3-1.4-3.7-1.4c-7.8-0.1-15.6,0-23.4,0
		c-7.5,0-15,0-22.6,0c-1.4,0-2.9,0.1-4.1-0.9c-1.4-3.2-1-4.2,2-5.5c1-0.4,1.5-1,1.6-2.1c0.1-1,0.1-2.1,0.1-3.1c0-14.3,0-28.7,0-43
		c0-0.9,0-1.7,0-2.6c0.2-4,1.7-5,5.6-3.4c0.8,0.9,0.8,2.1,0.8,3.3c0,14.1,0.1,28.3-0.1,42.4c0.1,1.6,0.1,3.3,0,4.9
		c0.3,3.6,0.3,3.7,3.9,3.7c12.1,0,24.3,0,36.4,0c3.6,0,3.6-0.1,3.9-3.6c0-1.6-0.3-3.3,0.7-4.8c1.7-0.9,3.3-1,4.9,0.2
		c0.7,0.9,0.7,1.9,0.7,3c0,14.2,0.1,28.4-0.1,42.6c0.1,1.6,0.1,3.3,0,4.9c0.3,3.6,0.4,3.6,3.9,3.7c18.2,0,36.5,0,54.7,0
		c2.1,0,3.9-0.2,4-2.8c0.1-0.3,0.2-0.6,0.4-0.9c0.2-0.2,0.4-0.5,0.7-0.5c2.7,0.1,3.7-1.6,3.8-4c0.2-0.3,0.4-0.5,0.7-0.6
		C189.5,157.4,191,157.2,192.3,158.2z"/>
	<path class="st1" d="M137.3,57.3c0,1.5,0,3.1,0,4.6c1.1,1.3,0.9,2.9,0.9,4.4c0,10.2,0.1,20.5-0.1,30.7c-0.1,3.1,0.3,5.4,3.7,6.2
		c13.7,0,27.5,0,41.2,0c4.7,0,4.7,0,4.7,4.6c1,1.1,0.9,2.5,0.9,3.8c0,14.3,0,28.6,0,42.9c0,1.3,0,2.7-0.9,3.8l0,0
		c-2.5,0.6-4.1,2.1-4.6,4.6l0,0c-1.6,1.1-3.2,1.1-4.8,0c-0.6-0.9-0.7-2-0.7-3c0-14.2-0.1-28.4,0.1-42.7c0-1.7-0.3-3.4,0.7-4.9
		c0.6-0.5,1.4-0.6,2.1-0.8c0.8-0.2,1.5-0.5,1.4-1.5c-0.1-1-1-1.1-1.7-1.2c-0.9-0.1-1.9-0.1-2.9-0.1c-16.4,0-32.8,0-49.1,0
		c-1.6,0-3.3,0.3-4.7-0.8c-1.1-1.6-1-3.2-0.2-4.8c3.6-0.7,4-3,3.9-6.2c-0.2-8.6-0.1-17.2,0-25.7c0-1.6-0.3-3.3,0.7-4.8
		c0.5-0.4,1.2-0.6,1.8-0.7c0.9-0.2,1.8-0.5,1.6-1.6c-0.2-1.1-1.2-1.1-2-1.1c-1-0.1-1.9,0-2.9,0c-16.2,0-32.5,0-48.7,0
		c-1.6,0-3.3,0.3-4.7-0.7c-1.1-1.6-1.1-3.2,0-4.7C94.4,57.3,115.8,57.3,137.3,57.3z"/>
	<path d="M109.7,199.5c0-1.5,0-3.1,0-4.6c1.1-1.1,2.5-0.9,3.8-0.9c25,0,50,0,75.1,0c1.2,0,2.5,0,3.6,0.7c1.3,1.6,1.3,3.2,0.1,4.8
		C164.8,199.5,137.3,199.5,109.7,199.5z"/>
	<path d="M196.9,162.9c1.5,0,3,0,4.6-0.1c0,9.2,0,18.4,0,27.5c-1.6,1.1-3.2,1.1-4.7,0c-0.7-0.9-0.7-2-0.7-3c0-6.6-0.1-13.1,0-19.7
		C196.1,166,195.7,164.2,196.9,162.9L196.9,162.9z"/>
	<path class="st1" d="M54.7,172c0.1,0,0.2,0,0.3,0c4.4,0,4.4,0,4.2,4.5c-1.5,1.2-3,1.1-4.5,0.1C54.7,175,54.7,173.5,54.7,172z"/>
	<path class="st2" d="M54.7,176.6c1.5,0,3,0,4.5-0.1c0,1.6,0,3.1,0,4.7c-1.5,1-3,1-4.5-0.1C54.7,179.6,54.7,178.1,54.7,176.6z"/>
	<path d="M54.7,181.2c1.5,0,3,0,4.5,0.1c0.1,4.5,0.1,4.5-4.5,4.5C54.7,184.2,54.7,182.7,54.7,181.2z"/>
	<path d="M187.7,158.2c0-16.8,0-33.7,0-50.5c4.6,0,4.6,0,4.6,4.5c0,15.3,0,30.6,0,45.9C190.8,158.2,189.2,158.2,187.7,158.2z"/>
	<path d="M141.8,103.2c-4.6,0-4.6,0-4.6-4.7c0-12.2,0-24.4,0-36.6c4.6,0,4.6,0,4.6,4.5C141.8,78.7,141.8,90.9,141.8,103.2z"/>
	<path class="st3" d="M178.5,112.3c0,1.5,0,3-0.1,4.5c-3.5,0.9-3.7,3.6-3.6,6.6c0.1,10.1,0.1,20.2,0,30.3c0,4.7-0.6,5.3-5.2,5.3
		c-15.5,0-31.1,0-46.6,0c-1.4,0-2.9,0.2-4.1-1c0-15.3,0-30.6,0-45.8c0.1-0.1,0.3-0.2,0.4-0.4c1.5-0.7,3.1-0.4,4.7-0.5
		c17.1-0.2,34.2-0.1,51.3-0.1C176.5,111.4,177.7,111.4,178.5,112.3z"/>
	<path class="st3" d="M128.1,66.5c0,1.5,0,3-0.1,4.5c-3.5,0.9-3.7,3.5-3.7,6.5c0.2,7.2,0.1,14.4,0,21.6c0,1.4,0.1,2.9-0.8,4.1
		c0,1.5-0.1,3-0.1,4.5c-0.1,0.1-0.3,0.2-0.4,0.4c-1.6,0.6-3.2,0.8-4.4-0.8c-0.6-0.8-0.6-1.8-0.6-2.7c0-9.6-0.1-19.2,0.1-28.8
		c-0.3-3.8-0.3-3.8-4-3.8c-12.1,0-24.2,0-36.4,0c-3.6,0-3.7,0.2-3.7,3.7c0,9.1,0,18.1,0,27.2c0,3.7,0.1,3.7,3.8,4
		c12.7-0.2,25.4-0.1,38-0.1c1,0,2.1,0,3,0.8c1.3,1.6,1.3,3.1,0.1,4.8c0,0,0,0,0,0c-1.5,0-3,0.1-4.5,0.1c-1,0.8-2.1,0.8-3.3,0.8
		c-13.1,0-26.3,0-39.4,0c-1.1,0-2.3-0.1-3.2-1c0-15.3,0-30.6-0.1-45.8c0,0,0,0,0,0c1.4-1.2,3.2-0.8,4.8-0.9
		c17.2-0.2,34.4-0.1,51.6-0.1C126,65.6,127.2,65.5,128.1,66.5z"/>
	<path class="st2" d="M114.3,139.8c0,4.6,0,4.6-4.7,4.6c-10.7,0-21.3,0-32,0c-1.1-1.3-0.8-2.8-0.8-4.3c-0.3-1.3,0.7-3.2-1.1-3.8
		c-1.8-0.6-3.9-0.7-5.6,0.1c-1.5,0.7-0.7,2.4-0.9,3.7c0,1.5,0.3,3-0.8,4.3c-1.6,0-3.1,0-4.7-0.1c-1.7-4.2-0.9-8.6-0.5-12.9
		c0.2-1.3,1.5-1.5,2.7-1.6c2-0.2,4-0.1,6-0.1c9.6,0,19.2,0,28.8,0c1.5,0,3.1-0.3,4.3,1c0,1.5,0,3.1,0,4.6c0.6,3.5,2.9,4.1,5.9,3.7
		C112.2,138.9,113.4,139,114.3,139.8z"/>
	<path class="st2" d="M119,158.2c17.5,0,35.1,0,52.6,0.1c2.2,0,2.4-1,2.4-2.8c-0.1-11.3,0-22.7,0-34c0-4.5,0-4.5,4.5-4.6
		c0,15.3,0,30.6,0,45.9c-0.9,1.1-2.2,1-3.4,1c-17.5,0-35.1,0-52.6,0c-1.2,0-2.5,0-3.5-0.9C118.9,161.3,119,159.7,119,158.2z"/>
	<path class="st3" d="M109.7,172c26,0,52,0,78,0c0.1,0.1,0.2,0.3,0.4,0.4c0.6,1.6,0.7,3.1-0.4,4.4c-1.5,0.8-3.2,0.5-4.8,0.5
		c-9.1,0.1-18.1,0.1-27.2,0c-12,0.1-24,0-36,0.1c-4.4,0-4.3,0.1-4.5,4.5c-0.1,2.8,0.6,5.7-0.7,8.4c-4,1.6-5.7,0.6-5.6-3.6
		c0.1-4.8-0.6-9.7,0.5-14.4C109.5,172.3,109.6,172.2,109.7,172z"/>
	<path d="M114.3,153.6c-7,0-14,0.1-20.9,0c-1.6,0-2.1,0.4-2.1,2c0.1,5.4,0,10.9,0,16.3c-0.1,0.1-0.3,0.2-0.4,0.4
		c-1.6,0.6-3.1,0.7-4.5-0.4c-1.1-2.2-0.5-4.6-0.6-7c-0.1-2.2,0-4.3,0-6.5c0-3.7-0.1-3.8-3.7-4c-1.6,0-3.2,0.3-4.6-0.8
		c-5.1,0-10.1-0.2-15.2,0c-2.6,0.1-3.6-0.7-3.1-3.2c0.1-0.5,0-1,0-1.4c16.8,0,33.6,0,50.4,0C114.3,149,114.3,149,114.3,153.6z"/>
	<path class="st3" d="M105.2,130.8c-13,0-26.1,0-39.1-0.1c-1.8,0-2.3,0.6-2.3,2.3c0.1,3.8,0,7.6,0,11.4c-0.4,0-0.8,0-1.1,0.1
		c-2.6,0.5-3.6-0.4-3.5-3.3c0.3-5,0.1-10.1,0.1-15.1c0,0,0,0,0,0c17.5,0,35,0,52.6,0c1.6,0,2.6,0,2.6,2.2c0,2.1-0.7,2.6-2.6,2.5
		C109.6,130.6,107.4,130.7,105.2,130.8z"/>
	<path d="M118.9,162.8c18.8,0,37.6,0,56.5,0c1,0,2.1-0.1,3.1-0.1c1.5,0,3.1,0,4.6,0.1c0,4.6,0,4.6-4.7,4.6c-18.4,0-36.8,0-55.2,0
		C118.9,167.4,118.9,167.4,118.9,162.8z"/>
	<path d="M114.3,117c0,4.6,0,4.6-4.7,4.6c-12.2,0-24.3,0-36.5,0c-4.7,0-4.7,0-4.7-4.6c1.1-1,2.5-1,3.8-1c12.8,0,25.5,0,38.3,0
		C111.9,116,113.2,116,114.3,117z"/>
	<path class="st2" d="M114.3,117c-15.3,0-30.6,0-45.9,0c0-1.6,0-3.1,0.1-4.7c15.3,0,30.6,0.1,45.9,0.1
		C114.4,113.9,114.3,115.4,114.3,117z"/>
	<path class="st4" d="M68.5,144.4c0-1.5,0.1-3,0.1-4.6c3-1.4,6-1.4,9,0c0,1.5,0.1,3,0.1,4.6C74.5,144.4,71.5,144.4,68.5,144.4z"/>
	<path d="M114.3,139.8c-1.6,0-3.2,0-4.8,0c-4.4,0-4.4,0-4.3-4.5c1.5,0,3-0.1,4.5-0.1C114.3,135.3,114.3,135.3,114.3,139.8z"/>
	<path class="st2" d="M196.9,162.8c0,1.5-0.1,3-0.1,4.5c-1.3,1.1-2.7,0.9-4.1,0.4c-0.1-0.1-0.2-0.2-0.4-0.3
		C192.4,162.2,191.5,162.9,196.9,162.8z"/>
	<path class="st2" d="M187.7,172c0-4.7,0-4.7,4.6-4.6c0,0,0,0,0,0c1.1,1.5,1.3,3.3,0,4.6C191,173.3,189.2,173.1,187.7,172L187.7,172
		z"/>
	<path d="M183.1,162.8c0-4.6,0-4.6,4.6-4.6C187.7,162.8,187.7,162.8,183.1,162.8z"/>
	<path class="st2" d="M128.1,66.5c-18.4,0-36.7,0-55.1-0.1c-1.1-1.5-1-3.1,0.1-4.6c0,0-0.1,0-0.1,0c19,0,38,0,57,0
		c1.8,0,2.9,0.2,2.8,2.4c-0.1,1.5-0.3,2.4-2.1,2.2C129.8,66.4,128.9,66.5,128.1,66.5z"/>
	<path class="st2" d="M178.5,112.3c-18.4,0-36.7,0-55.1-0.1c-1.1-1.5-1-3.1,0.1-4.6c0,0-0.1,0-0.1,0c19,0,38,0,57,0
		c1.8,0,2.9,0.2,2.8,2.4c-0.1,1.5-0.3,2.4-2.1,2.2C180.3,112.3,179.4,112.3,178.5,112.3z"/>
	<path class="st2" d="M123.6,103.2c0-10,0-20-0.1-29.9c0-1.7,0.5-2.5,2.3-2.3c0.7,0.1,1.5,0,2.3,0c0,10,0,20,0.1,29.9
		c0,1.7-0.5,2.5-2.3,2.3C125.1,103.1,124.3,103.2,123.6,103.2z"/>
	<path class="st1" d="M187.7,172c4.7,0,4.7,0,4.6-4.6c1.5,0,3,0,4.5,0c0,7.7,0.1,15.4,0.1,23c0,0,0-0.1,0-0.1
		c-2.6,0.5-4.1,2.1-4.6,4.6c0,0,0.1,0,0.1,0c-27.5,0-55.1,0-82.6,0c-4.6,0-4.6,0-4.6-4.6c0-1.5,0-3,0-4.5c-1.1-1.3-0.8-2.9-0.8-4.5
		c-0.1-3.9-0.1-3.8-4-3.9c-1.6,0-3.2,0.3-4.6-0.8c-0.8-1.5-0.9-3.1,0.2-4.5c4.6,0,9.2-0.1,13.8-0.1c0,4.7,0,9.3,0,14
		c0,4.5,0,4.5,4.5,4.3c1.4-1.1,3.1-0.8,4.7-0.8c3.1-0.1,6.1-0.1,9.2,0c17.8-0.2,35.5,0,53.3-0.1c5.3,0,5.3,0,5.4-5.3
		c0.1-2.5-0.7-5.2,0.8-7.6C187.7,175,187.7,173.5,187.7,172z"/>
	<path d="M95.9,172.1c0,1.5,0.1,3,0.1,4.6c0.5,3.5,2.9,4.1,5.9,3.7c1.1-0.1,2.3-0.1,3.2,0.8c0,1.5,0,3,0,4.6c-1.7,0-3.4,0.1-5.2,0
		c-2.6-0.2-4.8-0.2-4,3.5c0.2,1.1-0.6,1.2-1.4,1.1c-6.7,0-13.4,0-20.1,0c-1.1,0-1.5-0.3-1.5-1.5c0.1-1,0-2.1,0-3.1
		c1.4-1.2,3-0.8,4.6-0.8c1.6,0,3.1-0.1,4.7,0c1.5-0.1,3.1-0.1,4.6,0c3.7-0.2,3.6-0.2,3.8-4c0.1-3-0.8-6.1,0.8-8.9l0,0
		C92.9,172,94.4,172,95.9,172.1z"/>
	<path class="st5" d="M77.6,185.7c-1.6,0-3.1,0.1-4.7,0.1c0,0,0.1,0,0.1,0c-1.1-1.4-0.8-3-0.8-4.6c0-1.6-0.1-3.1,0-4.7
		c0-1.5-0.3-3.2,0.8-4.5c1.5-0.1,3-0.1,4.5-0.2c1.4-1,3-0.7,4.6-0.8c1.6,0,3.2-0.3,4.6,0.8c1.5,0,3.1,0.1,4.6,0.1
		c0,3.5-0.2,7,0.1,10.6c0.2,2.6-0.7,3.7-3.3,3.2c-0.5-0.1-0.9-0.1-1.4-0.1c-1.1-1.3-0.7-2.9-0.8-4.4c-0.1-3.8-0.1-3.8-3.8-3.9
		c-3.7,0.1-3.7,0.1-3.8,3.9C78.4,182.8,78.7,184.4,77.6,185.7z"/>
	<path class="st1" d="M82.2,171.9c-1.6,0-3.1,0-4.7,0c0-6.1,0-12.1,0-18.2c1.6,0,3.1,0,4.7,0c0.4,0.4,0.7,0.9,0.7,1.5
		c0.2,5,0.3,10.1,0,15.1C82.9,171,82.7,171.5,82.2,171.9z"/>
	<path class="st1" d="M73,172.1c0,1.5-0.1,3-0.1,4.5c-3,1.3-6,1.4-9-0.1c0-0.2-0.1-0.4-0.1-0.6c0-4.9-0.4-3.9,3.8-4
		C69.5,172,71.2,172,73,172.1z"/>
	<path class="st2" d="M63.9,176.5c3,0,6,0.1,9,0.1c0,1.5,0,3,0,4.5c-3,1.4-6,1.3-9.1,0.1C63.9,179.7,63.9,178.1,63.9,176.5z"/>
	<path d="M63.9,181.2c3,0,6,0,9.1-0.1c0,1.5,0,3.1,0.1,4.6c-1.6,0-3.2,0-4.8,0C63.8,185.7,63.8,185.8,63.9,181.2z"/>
	<path class="st1" d="M73,61.8c0,1.5,0,3-0.1,4.6c-1.5,0-3,0.1-4.5,0.1C68.5,61.9,68.5,61.9,73,61.8z"/>
	<path d="M192.3,195c0-4.6,0-4.6,4.6-4.6C196.8,194.9,196.8,194.9,192.3,195z"/>
	<path class="st1" d="M146.6,116.9c6.9,0,13.7,0.1,20.6,0c1.8,0,2.2,0.5,2.2,2.3c-0.1,10.8-0.1,21.6,0,32.4c0,1.6-0.3,2.2-2,2.2
		c-13.9-0.1-27.9-0.1-41.8,0c-1.6,0-2.1-0.5-2.1-2.1c0.1-10.9,0.1-21.8,0-32.6c0-1.8,0.7-2,2.2-2C132.6,117,139.6,116.9,146.6,116.9
		z"/>
	<path class="st1" d="M123.5,107.7c0,1.5,0,3-0.1,4.6c-1.5,0-3,0.1-4.5,0.1c0-1.5,0-3.1,0-4.6l0,0
		C120.4,107.7,121.9,107.7,123.5,107.7z"/>
	<path class="st1" d="M77.6,107.7c-0.2,0-0.4,0.1-0.6,0.1c-4.1,0.1-4.1,0.1-4.1-4c0-10,0.1-20-0.1-30c0-2.2,0.6-2.7,2.7-2.7
		c13,0.1,25.9,0.1,38.9,0.1c4.5,0,4.5,0,4.3,4.6c-1.4,1.2-3.1,0.7-4.7,0.8c-10.4,0.2-20.8,0-31.2,0.1c-4.3,0-4.3,0-4.3,4.3
		c0,7.4,0.1,14.7-0.1,22.1C78.4,104.5,78.8,106.3,77.6,107.7z"/>
	<path class="st6" d="M114.3,75.7c1.5,0,3,0,4.5-0.1c0,10.7,0,21.4,0,32.1c0,0,0,0,0,0c-13.7,0-27.5,0-41.2,0c0-1.5,0-3,0.1-4.5
		c1.4-1.2,3.1-0.8,4.7-0.8c9-0.2,18.1,0,27.1-0.1c3.7,0,3.9-0.2,3.9-3.8c0.1-6-0.1-12,0.1-18C113.5,78.8,113.1,77.1,114.3,75.7z"/>
	<path class="st7" d="M77.5,139.9c-3,0-6,0-9,0c-0.2-4.6-0.2-4.6,4.2-4.6c0.2,0,0.4,0,0.6,0C77.8,135.3,77.8,135.3,77.5,139.9z"/>
	<path class="st2" d="M187.7,176.5c0,3.7-0.1,7.4,0.1,11.2c0.1,2.2-0.6,2.7-2.8,2.7c-19-0.1-38-0.1-57-0.1c-1.1-1.3-0.8-2.8-0.8-4.3
		c-0.3-1.3,0.7-3.2-1.1-3.8c-1.8-0.6-3.9-0.7-5.6,0.1c-1.5,0.7-0.7,2.4-0.9,3.7c0,1.5,0.3,3-0.8,4.3c-1.6,0-3.1,0-4.7-0.1
		c0-3.8,0.1-7.6,0-11.4c0-1.7,0.5-2.3,2.3-2.3c13,0.1,26.1,0.1,39.1,0.1c1.1,1.4,0.7,3,0.8,4.5c0.2,3.6,0.3,3.7,3.8,3.7
		c6.1,0,12.2,0,18.3,0c3.5,0,3.6-0.1,3.8-3.7c0-1.6-0.3-3.2,0.8-4.5C184.6,176.6,186.1,176.6,187.7,176.5z"/>
	<path class="st1" d="M183.1,176.6c0,1.5,0,3.1,0,4.6c-0.9,0.9-2.1,0.8-3.2,0.8c-7,0-13.9,0-20.9,0c-1.1,0-2.3,0-3.2-0.8
		c0-1.5,0-3.1,0-4.6C164.8,176.6,173.9,176.6,183.1,176.6z"/>
	<path class="st2" d="M82.2,171.9c0-6.1,0-12.1,0-18.2c4.5-0.2,4.5-0.2,4.5,4.2c0,4.7,0,9.3,0,14C85.3,171.9,83.8,171.9,82.2,171.9z
		"/>
	<path class="st2" d="M105.1,181.2c-1.6,0-3.2,0-4.8,0c-4.5,0-4.5,0-4.2-4.5c1.5,0,3,0,4.5,0C105.1,176.6,105.1,176.6,105.1,181.2z"
		/>
	<path class="st4" d="M118.9,190.3c0-1.5,0.1-3,0.1-4.6c3-1.4,6-1.4,9,0c0,1.5,0.1,3,0.1,4.6C125,190.3,122,190.3,118.9,190.3z"/>
	<path class="st3" d="M77.6,185.7c0-1.6,0-3.2,0-4.8c0-4.4,0-4.4,4.6-4.2c1.4,3,1.4,6,0,9C80.7,185.7,79.2,185.7,77.6,185.7z"/>
	<path class="st8" d="M82.2,185.7c0-3,0-6,0-9c4.6-0.2,4.6-0.2,4.6,4.2c0,1.6,0,3.2-0.1,4.8C85.2,185.7,83.7,185.7,82.2,185.7z"/>
	<path class="st9" d="M164.7,126.1c0,7,0,13.9,0.1,20.9c0,1.6-0.5,2.1-2.1,2.1c-10-0.1-20-0.1-30-0.1c-0.9-0.9-0.9-2.1-0.9-3.2
		c0-5.4-0.1-10.9,0-16.3c0.1-3.5,0.8-4.2,4.2-4.2c8.5-0.1,17,0,25.5,0C162.6,125.2,163.8,125.2,164.7,126.1z"/>
	<path d="M164.7,126.1c-9.8,0-19.7,0.1-29.5,0c-2,0-2.6,0.5-2.6,2.6c0.1,6.8,0,13.6,0,20.3c-0.3,0-0.6,0.1-0.9,0.1
		c-4.6,0-3.7,0.3-3.7-3.5c-0.1-7.2,0.1-14.3-0.1-21.5c0-2,0.5-2.6,2.5-2.5c9.9,0.1,19.9,0,29.8,0
		C164.9,121.5,164.9,121.5,164.7,126.1z"/>
	<path d="M82.2,103.2c-1.5,0-3,0-4.5,0c0-8.6,0-17.2-0.1-25.8c0-1.4,0.5-1.8,1.8-1.8c11.6,0.1,23.3,0.1,34.9,0.1c0,1.5,0,3,0,4.5
		c-1.3,1.1-2.9,0.9-4.4,0.9c-7.7,0-15.5,0-23.2,0c-3.4,0-3.6,0.2-3.6,3.6c0,4.8,0,9.6,0,14.3C83.1,100.5,83.2,102,82.2,103.2z"/>
	<path class="st10" d="M82.2,103.2c0-6.9,0.1-13.7,0-20.6c0-1.9,0.5-2.4,2.4-2.4c9.9,0.1,19.8,0,29.8,0c0,6.9-0.1,13.7,0,20.6
		c0,1.9-0.6,2.4-2.4,2.4C102,103.1,92.1,103.2,82.2,103.2z"/>
	<path d="M155.7,181.2c9.1,0,18.3,0,27.4,0c0.1,4.5,0.1,4.5-4.3,4.5c-6.7,0-13.3-0.1-20,0.1c-2.5,0.1-3.7-0.4-3.2-3.2
		C155.7,182.2,155.6,181.7,155.7,181.2z"/>
	<path class="st7" d="M128,185.8c-3,0-6,0-9,0c-0.2-4.6-0.2-4.6,4.2-4.6c0.2,0,0.4,0,0.6,0C128.2,181.2,128.2,181.2,128,185.8z"/>
	<path class="st11" d="M141.8,135.3c0,0.7-0.1,1.3,0,2c0.2,1.9-0.3,2.7-2.4,2.7c-2.2,0-2.3-1.1-2.2-2.6c0.1-1.1,0-2.3,0-3.4
		c0-1.7-0.5-3.3,2.4-3.3c2.8,0.1,2.1,1.8,2.2,3.2C141.9,134.3,141.8,134.8,141.8,135.3z"/>
	<path class="st11" d="M91.4,89.4c0,0.7-0.1,1.3,0,2c0.2,1.9-0.2,2.7-2.4,2.7c-2.1,0-2.4-0.9-2.2-2.5c0.1-1.1,0-2.3,0-3.4
		c0.1-1.5-0.8-3.4,2.2-3.4c2.9,0,2.3,1.7,2.4,3.3C91.4,88.5,91.4,88.9,91.4,89.4z"/>
</g>
</svg>
