<?xml version="1.0" encoding="utf-8"?>
<!-- Generator: Adobe Illustrator 21.0.0, SVG Export Plug-In . SVG Version: 6.00 Build 0)  -->
<svg version="1.1" id="Layer_1" xmlns="http://www.w3.org/2000/svg" xmlns:xlink="http://www.w3.org/1999/xlink" x="0px" y="0px"
	 viewBox="0 0 490 160" style="enable-background:new 0 0 490 160;" xml:space="preserve">
<style type="text/css">
	.st0{fill:#010101;}
	.st1{fill:url(#SVGID_1_);}
	.st2{fill:#7F7F7F;}
	.st3{fill:#BFBFBF;}
	.st4{fill:#FEFEFE;}
	.st5{fill:#007F00;}
	.st6{fill:#7F7F00;}
	.st7{fill:#00007F;}
	.st8{fill:#00FE00;}
	.st9{fill:#FEFE00;}
	.st10{fill:#007F7F;}
	.st11{fill:#0000FE;}
	.st12{fill:#00FEFE;}
</style>
<g>
	<polygon class="st0" points="39.4,122.3 29.4,122.3 29.4,107.3 16.3,107.3 16.3,148.1 29.4,148.1 29.4,132.2 39.4,132.2 
		39.4,148.1 52.5,148.1 52.5,107.3 39.4,107.3 	"/>
	<path class="st0" d="M149.8,117.7h-11l-8,8.8c-0.8,0.8-1.5,1.8-2.3,2.8c0.1-3.2,0.1-5,0.1-5.5v-16.4h-11.7V128
		c-0.6-3-2.1-5.5-4.5-7.5c-2.7-2.3-6.2-3.4-10.4-3.4c-4.8,0-8.7,1.5-11.8,4.5c-2.8,2.8-4.3,6.4-4.5,10.6V130c0-3.3-0.2-5.5-0.6-6.7
		s-1.3-2.3-2.5-3.3s-2.9-1.8-5.1-2.3s-4.5-0.7-7.1-0.7c-9.5,0-15,3.2-16.6,9.5l11.4,1c0.3-2.2,1.9-3.3,4.8-3.3
		c1.2,0,2.2,0.2,2.8,0.7s0.9,1.3,0.9,2.7v0.7c-7.8,0.4-13.2,1.6-16.3,3.6c-3.1,2-4.6,4.6-4.6,7.8c0,2.4,0.9,4.5,2.8,6.3
		c1.9,1.8,4.7,2.7,8.4,2.7c4.6,0,8-1.6,10.2-4.9c0,1.5,0.2,2.9,0.4,4.2h11.9c-0.7-1.6-1-3.6-1-5.9V134c0.2,4.2,1.7,7.6,4.5,10.3
		c3,2.9,7,4.4,11.8,4.4c4.3,0,7.8-1.1,10.4-3.3c2.2-1.9,3.6-4.2,4.3-7v9.7h11.7v-8.4l3.4-3.8l6,12.1h12.9l-10.7-19.9L149.8,117.7
		L149.8,117.7z M73.8,135.3c0,2.6-0.5,4.3-1.4,5c-0.9,0.8-2.1,1.1-3.4,1.1c-2.1,0-3.2-0.9-3.2-2.7c0-2.7,2.7-4.3,8-4.9
		C73.8,133.9,73.8,135.3,73.8,135.3z M106.6,135.8c-0.4,3-1.7,4.5-4,4.5c-1.5,0-2.6-0.6-3.2-1.8c-0.6-1.2-0.9-3-0.9-5.5
		c0-2.9,0.3-4.9,0.9-6.1c0.6-1.2,1.6-1.7,2.9-1.7c2.1,0,3.4,1.6,3.8,4.8l10.7-0.9v7.5L106.6,135.8z"/>
	<path class="st0" d="M176,121.5c-3.1-2.9-7.3-4.4-12.3-4.4s-9.5,1.6-12.6,4.7s-4.7,7-4.7,11.5s1.6,8,4.8,11
		c3.2,2.9,7.5,4.4,12.8,4.4c4.8,0,8.6-1.1,11.5-3.1c2.8-2.1,4.6-4.6,5.3-7.6l-11.6-0.8c-0.5,2.5-2.1,3.7-4.8,3.7
		c-1.9,0-3.1-0.5-3.8-1.4c-0.7-0.9-1-2.3-1.1-4.3h21.3c0-0.7,0-1.3,0-1.7C180.7,128.5,179.1,124.4,176,121.5L176,121.5z
		 M159.3,129.3c0-3.5,1.5-5.2,4.4-5.2c1.3,0,2.3,0.3,3.1,1.1c0.8,0.7,1.3,2.1,1.3,4.1H159.3L159.3,129.3z"/>
	<path class="st0" d="M356.7,133.5c0-5.1-1.6-9.1-4.7-12c-3.1-2.9-7.3-4.4-12.3-4.4s-9.5,1.6-12.6,4.7c-1.2,1.2-2.2,2.5-2.9,3.9
		c-0.8-2-2-3.7-3.8-5.2c-2.7-2.3-6.2-3.4-10.5-3.4c-4.8,0-8.7,1.5-11.8,4.5c-2.8,2.8-4.3,6.4-4.5,10.6V130c0-3.3-0.2-5.5-0.6-6.7
		c-0.4-1.2-1.3-2.3-2.5-3.3s-3-1.8-5.1-2.3s-4.5-0.7-7.1-0.7c-9.5,0-15,3.2-16.6,9.5l11.4,1c0.3-2.2,1.9-3.3,4.8-3.3
		c1.2,0,2.2,0.2,2.8,0.7c0.6,0.4,1,1.3,1,2.7v0.7c-7.8,0.4-13.2,1.6-16.3,3.6c-1.3,0.9-2.4,1.8-3.1,2.9c0-0.6,0.1-1.3,0.1-2
		c0-4.8-1.1-8.7-3.2-11.5c-2.1-2.8-5.1-4.2-8.9-4.2c-4.4,0-7.4,1.6-9,4.9v-4.3h-11.5v17.3c-0.3-1-0.8-1.9-1.6-2.8
		c-1.3-1.5-2.9-2.6-4.8-3.2c-1.9-0.6-5.4-1.1-10.6-1.7c-2-0.2-3-0.8-3-1.8c0-0.3,0.3-0.7,1-1s1.6-0.5,3-0.5c2.8,0,4.7,0.9,5.5,2.7
		l9.4-1.7c-2.1-5.3-7.1-8-14.8-8c-4.4,0-8,1-10.7,2.9c-0.9,0.6-1.6,1.3-2.1,2v-4.7c-0.8-0.1-1.4-0.1-1.8-0.1c-4.3,0-7.1,2.3-8.3,6.8
		v-6.3h-10.4v30.3h11.9v-13.9c0-4.4,2.1-6.6,6.2-6.6c0.1,0,0.3,0,0.4,0c0,2.2,0.8,4.2,2.4,6c1.6,1.8,5.6,3.2,12.1,4
		c2.3,0.3,3.8,0.6,4.4,0.9c0.6,0.3,0.9,0.7,0.9,1.2c0,1.2-1.6,1.8-4.9,1.8c-3.9,0-6.1-1.1-6.7-3.3l-9.9,1.3c2,6.1,7.4,9.2,16,9.2
		c5.1,0,9.1-1,12-2.9c2-1.3,3.3-3,3.9-5v16.9h12.5v-12.8c1.9,2.6,4.6,3.9,8.1,3.9s6.5-1.4,8.7-4.3c0.8-1,1.4-2.1,1.9-3.3
		c0.3,1.8,1.2,3.4,2.7,4.9c1.9,1.8,4.7,2.7,8.4,2.7c4.6,0,8-1.6,10.2-4.9c0,1.5,0.1,2.9,0.4,4.2h11.9c-0.6-1.6-1-3.6-1-5.9V134
		c0.2,4.2,1.7,7.6,4.5,10.3c3,2.9,7,4.4,11.8,4.4c4.3,0,7.8-1.1,10.4-3.3c1.6-1.4,2.8-3,3.6-4.9c0.8,1.4,1.8,2.6,3,3.8
		c3.2,2.9,7.5,4.4,12.8,4.4c4.8,0,8.6-1.1,11.5-3.1c2.8-2.1,4.6-4.6,5.3-7.6l-11.6-0.8c-0.5,2.5-2.1,3.7-4.8,3.7
		c-1.9,0-3.1-0.5-3.8-1.4c-0.7-0.9-1-2.3-1.1-4.3h21.3C356.7,134.5,356.7,133.9,356.7,133.5L356.7,133.5z M248.7,139.3
		c-0.6,1.3-1.6,2-3.1,2c-1,0-1.8-0.4-2.4-1.1c-0.6-0.8-1-1.8-1-3.1v-8.7c0-1.3,0.4-2.3,1.1-2.8c0.8-0.6,1.5-0.9,2.3-0.9
		c1.3,0,2.3,0.6,2.9,1.9c0.6,1.3,1,3.5,1,6.7C249.6,135.9,249.3,137.9,248.7,139.3z M281.6,135.3c0,2.6-0.5,4.3-1.4,5
		c-0.9,0.8-2.1,1.1-3.4,1.1c-2.1,0-3.2-0.9-3.2-2.7c0-2.7,2.7-4.3,8-4.9V135.3z M314.5,135.8c-0.4,3-1.7,4.5-4,4.5
		c-1.5,0-2.6-0.6-3.2-1.8c-0.6-1.2-0.9-3-0.9-5.5c0-2.9,0.3-4.9,0.9-6.1c0.6-1.2,1.6-1.7,2.9-1.7c2.1,0,3.4,1.6,3.8,4.8l8.7-0.7
		c-0.3,1.3-0.4,2.6-0.4,3.9c0,1.1,0.1,2.2,0.3,3.2L314.5,135.8L314.5,135.8z M335.3,129.3c0-3.5,1.5-5.2,4.4-5.2
		c1.3,0,2.3,0.3,3.1,1.1s1.3,2.1,1.3,4.1H335.3z"/>
	<path class="st0" d="M18.1,96.4c0-1.1-0.3-2-1-2.8s-1.7-1.4-3.1-1.7c2-0.6,3.1-1.7,3.4-3.3l4.8,12.5c-0.5,1.5-1,2.4-1.4,2.8
		c-0.5,0.4-1.1,0.6-1.8,0.6c-0.4,0-0.9-0.1-1.5-0.2v1.6c0.7,0.2,1.4,0.3,1.9,0.3c1.8,0,3.2-1.1,4-3.2l5.8-14.8h-1.9l-4,9.9l-3.9-9.9
		h-2c0-0.1,0-0.2,0-0.3c0-1.2-0.5-2.2-1.4-3c-0.9-0.9-2.4-1.3-4.3-1.3H4v17.9h7.7c2.2,0,3.8-0.5,4.8-1.4S18.1,97.8,18.1,96.4
		L18.1,96.4z M6.4,85.3h4.9c1.3,0,2.2,0.3,2.8,0.8s0.9,1.2,0.9,2s-0.3,1.6-0.9,2.2c-0.6,0.6-1.8,0.9-3.5,0.9H6.4L6.4,85.3L6.4,85.3z
		 M14.6,98.6c-0.7,0.6-1.7,0.8-3,0.8H6.4v-6.6h4.9c1.1,0,2,0.2,2.6,0.4c0.6,0.3,1,0.7,1.3,1.3c0.3,0.6,0.5,1.1,0.5,1.8
		C15.6,97.3,15.3,98,14.6,98.6L14.6,98.6z"/>
	<path class="st0" d="M29.8,99.8c1.1,1.3,2.5,1.9,4.2,1.9c2,0,3.6-0.9,4.6-2.6v2.3h2V83.5h-2.3V90c-1.1-1.4-2.5-2.2-4.3-2.2
		s-3.2,0.7-4.3,2s-1.6,3-1.6,5.1S28.7,98.5,29.8,99.8L29.8,99.8z M31.7,90.8c0.7-0.9,1.6-1.4,2.8-1.4c1,0,1.9,0.3,2.7,1.1
		c0.8,0.7,1.2,1.6,1.2,2.8V96c0,1.1-0.4,2-1.2,2.8s-1.7,1.2-2.8,1.2c-1.2,0-2.1-0.5-2.7-1.4c-0.7-0.9-1-2.3-1-4.1
		C30.6,93,31,91.7,31.7,90.8z"/>
	<path class="st0" d="M41.4,102.9c0,1.1,0.5,1.9,1.6,2.5c1,0.6,2.7,0.9,5,0.9c4.8,0,7.3-1.3,7.3-3.8c0-0.8-0.3-1.5-0.8-2
		s-1.2-0.9-2-1.1c-0.8-0.2-2-0.3-3.7-0.3c-2,0-3.2-0.1-3.7-0.3s-0.8-0.5-0.8-1c0-0.4,0.2-0.7,0.5-0.9s0.7-0.3,0.9-0.3
		c0.1,0,0.5,0.1,1,0.1c0.3,0.1,0.6,0.1,1,0.1c1.7,0,3-0.4,4.1-1.3c1-0.9,1.5-1.9,1.5-3.1s-0.5-2.2-1.4-3.2c0.1-0.6,0.3-1,0.7-1.2
		c0.3-0.2,1-0.3,2.1-0.3V86c-0.3,0-0.5,0-0.6,0c-1.1,0-1.8,0.2-2.4,0.5s-0.8,0.9-1,1.8c-0.9-0.4-1.9-0.6-3-0.6
		c-1.5,0-2.8,0.4-3.9,1.3c-1.1,0.8-1.6,1.9-1.6,3.2c0,1.4,0.6,2.6,1.9,3.5c-1.3,0.5-2,1.3-2,2.3c0,0.9,0.5,1.6,1.4,2.1
		C42.1,100.7,41.4,101.6,41.4,102.9L41.4,102.9z M45.6,90.2c0.7-0.5,1.4-0.8,2.3-0.8s1.6,0.3,2.3,0.8s0.9,1.3,0.9,2.1
		s-0.3,1.6-0.9,2.1c-0.6,0.5-1.4,0.8-2.3,0.8s-1.7-0.3-2.3-0.8s-0.9-1.2-0.9-2.1C44.6,91.4,45,90.7,45.6,90.2L45.6,90.2z
		 M45.2,100.8c0.8,0.1,1.9,0.2,3.5,0.2c1.3,0,2.2,0.1,2.8,0.2s1,0.2,1.3,0.5c0.3,0.3,0.5,0.6,0.5,1c0,0.8-0.5,1.3-1.5,1.6
		s-2.2,0.5-3.4,0.5c-1.3,0-2.4-0.2-3.3-0.6c-0.9-0.4-1.3-0.9-1.3-1.6C43.6,101.9,44.1,101.3,45.2,100.8L45.2,100.8z"/>
	<path class="st0" d="M55.6,99.7c1.1,1.3,2.7,2,4.7,2s3.6-0.7,4.8-2c0.5-0.5,0.9-1.1,1.2-1.7c0.8,2.4,2.9,3.6,6.3,3.6
		c1.8,0,3.3-0.4,4.4-1.1s1.7-1.7,1.7-2.9c0-2.1-1.5-3.4-4.4-3.9l-2.8-0.5c-1.5-0.3-2.3-0.9-2.3-1.8c0-0.6,0.3-1.1,0.9-1.4
		c0.6-0.3,1.3-0.5,2.3-0.5c1.8,0,3.1,0.7,3.7,2.1l2.1-0.4c-0.7-2.2-2.7-3.4-5.8-3.4c-1.6,0-2.9,0.4-3.9,1.1s-1.4,1.7-1.4,2.8
		c0,1,0.3,1.8,1.1,2.4s1.7,1,2.8,1.2l3.1,0.5c1.7,0.3,2.5,0.9,2.5,2c0,0.7-0.3,1.2-1,1.6c-0.7,0.4-1.4,0.6-2.4,0.6
		c-2.5,0-4.1-0.8-4.5-2.5l-2,0.4c0.4-0.9,0.6-2,0.6-3.2c0-2-0.6-3.6-1.7-5s-2.7-2-4.7-2c-1.9,0-3.4,0.6-4.7,1.9S54,92.6,54,94.7
		C54,96.7,54.5,98.4,55.6,99.7L55.6,99.7z M57.6,90.7c0.8-0.8,1.7-1.3,2.8-1.3s2,0.4,2.8,1.2c0.8,0.8,1.2,2.2,1.2,4s-0.4,3.2-1.2,4
		c-0.8,0.9-1.7,1.3-2.9,1.3s-2.1-0.4-2.9-1.2c-0.8-0.8-1.2-2.2-1.2-4.1C56.4,92.9,56.8,91.6,57.6,90.7L57.6,90.7z"/>
	<polygon class="st0" points="78.3,99.8 78.3,101.4 88.9,101.4 88.9,99.8 81,99.8 88.9,89.3 88.9,88.1 78.9,88.1 78.9,89.8 86,89.8 
			"/>
	<path class="st0" d="M90.2,99.7c1.1,1.3,2.6,2,4.6,2c1.5,0,2.7-0.4,3.7-1.2c1-0.8,1.6-2,1.9-3.4l-2-0.3c-0.5,2.2-1.7,3.3-3.5,3.3
		c-1.2,0-2.1-0.5-2.8-1.4s-1-2.3-1-3.9c0-1.5,0.3-2.8,1-3.8s1.6-1.4,2.9-1.4c1.9,0,3.1,1.1,3.5,3.3l2-0.3c-0.2-1.4-0.8-2.5-1.8-3.3
		s-2.2-1.3-3.8-1.3c-1.9,0-3.4,0.7-4.5,2s-1.7,3-1.7,5S89.2,98.4,90.2,99.7L90.2,99.7z"/>
	<polygon class="st0" points="99.9,99.8 99.9,101.4 110.6,101.4 110.6,99.8 102.7,99.8 110.6,89.3 110.6,88.1 100.5,88.1 
		100.5,89.8 107.6,89.8 	"/>
</g>
<linearGradient id="SVGID_1_" gradientUnits="userSpaceOnUse" x1="-58.2431" y1="565.0412" x2="-163.8312" y2="459.4531" gradientTransform="matrix(-1 0 0 1 314.98 -447.78)">
	<stop  offset="0" style="stop-color:#00AEEF"/>
	<stop  offset="5.941760e-02" style="stop-color:#04ACEB"/>
	<stop  offset="0.1219" style="stop-color:#11A6E1"/>
	<stop  offset="0.1858" style="stop-color:#269DCF"/>
	<stop  offset="0.2508" style="stop-color:#4390B6"/>
	<stop  offset="0.3165" style="stop-color:#697F96"/>
	<stop  offset="0.3829" style="stop-color:#986A6F"/>
	<stop  offset="0.4485" style="stop-color:#CE5241"/>
	<stop  offset="0.4846" style="stop-color:#EF4325"/>
	<stop  offset="1" style="stop-color:#FFFFFF"/>
</linearGradient>
<path class="st1" d="M360.5,0.8h129.2V130H360.5V0.8z M477.9,12.6H372.3v105.6h105.6V12.6z"/>
<g>
	<path class="st2" d="M465.6,84.2c2.9,0,2.9,0,2.9,2.9c-0.1,0.1-0.1,0.1-0.2,0.2c-2-0.1-2.2,1.6-2.8,2.8c-2.1,0-2.2,1.9-3.1,3
		c-0.9,0.4-1.8,0.3-2.7,0.3c-14.4,0-28.9,0-43.3,0c-1,0-1.9,0.1-2.8-0.4c-1.1-1.9-0.8-2.9,1-3.6c1-0.3,1.1-0.9,1.2-1.8
		c0-2.2,0-4.3,0-6.5c-0.3-2.2-0.3-2.2-2.5-2.2c-9.8,0-19.6,0-29.4,0c-0.7,0-1.4,0-2.2,0c-1,0-2.1,0.2-3-0.5c0-4.8,0-9.6,0-14.5
		c0.9-0.7,1.9-0.7,2.9,0c0.6,0.6,0.6,1.4,0.6,2.2c0,2.2,0,4.3,0,6.5c0,2.2,0.1,2.3,2.3,2.4c1,0,2,0,3,0c1.9-0.1,3.8-0.1,5.7,0
		c6.7-0.1,13.4,0,20.1,0c2.2,0,2.2-0.1,2.5-2.1c-0.1-2.5-0.1-2.5-2.7-2.6c-0.9,0-1.9,0.2-2.8-0.5c-0.5-1-0.5-2,0.1-3
		c0.9-0.6,1.8-0.4,2.8-0.5c0.8-0.1,2.2,0.4,2.2-0.8c0-1.4-1.5-0.9-2.3-0.9c-4.9-0.1-9.9,0-14.8,0c-4.7,0-9.5,0-14.2,0
		c-0.9,0-1.8,0.1-2.6-0.6c-0.9-2-0.7-2.6,1.3-3.4c0.7-0.3,1-0.6,1-1.3c0.1-0.7,0-1.3,0-2c0-9,0-18.1,0-27.1c0-0.5,0-1.1,0-1.6
		c0.1-2.5,1.1-3.1,3.5-2.2c0.5,0.6,0.5,1.3,0.5,2.1c0,8.9,0.1,17.8,0,26.8c0,1,0.1,2.1,0,3.1c0.2,2.3,0.2,2.3,2.4,2.3
		c7.7,0,15.3,0,23,0c2.3,0,2.3,0,2.5-2.3c0-1-0.2-2.1,0.5-3c1-0.6,2.1-0.6,3.1,0.1c0.4,0.6,0.5,1.2,0.5,1.9c0,9,0.1,17.9,0,26.9
		c0,1,0.1,2.1,0,3.1c0.2,2.3,0.2,2.3,2.5,2.3c11.5,0,23,0,34.5,0c1.3,0,2.4-0.1,2.6-1.8c0.1-0.2,0.1-0.4,0.3-0.5
		c0.1-0.1,0.3-0.3,0.4-0.3c1.7,0,2.3-1,2.4-2.5c0.1-0.2,0.3-0.3,0.4-0.4C463.9,83.7,464.8,83.6,465.6,84.2z"/>
	<path class="st2" d="M430.9,20.5c0,1,0,1.9,0,2.9c0.7,0.8,0.6,1.8,0.6,2.8c0,6.5,0.1,12.9,0,19.3c0,1.9,0.2,3.4,2.4,3.9
		c8.7,0,17.3,0,26,0c3,0,3,0,3,2.9c0.6,0.7,0.6,1.6,0.6,2.4c0,9,0,18,0,27.1c0,0.8,0,1.7-0.6,2.4l0,0c-1.6,0.3-2.6,1.3-2.9,2.9l0,0
		c-1,0.7-2,0.7-3,0c-0.4-0.6-0.4-1.2-0.4-1.9c0-9-0.1-17.9,0-26.9c0-1.1-0.2-2.1,0.4-3.1c0.4-0.3,0.9-0.4,1.3-0.5
		c0.5-0.1,0.9-0.3,0.9-0.9c-0.1-0.6-0.6-0.7-1.1-0.7c-0.6-0.1-1.2,0-1.8,0c-10.3,0-20.7,0-31,0c-1,0-2.1,0.2-3-0.5
		c-0.7-1-0.7-2-0.1-3c2.3-0.4,2.5-1.9,2.5-3.9c-0.1-5.4-0.1-10.8,0-16.2c0-1-0.2-2.1,0.5-3c0.3-0.3,0.8-0.4,1.2-0.5
		c0.5-0.1,1.1-0.3,1-1c-0.1-0.7-0.8-0.7-1.3-0.7c-0.6-0.1-1.2,0-1.8,0c-10.2,0-20.5,0-30.7,0c-1,0-2.1,0.2-3-0.5c-0.7-1-0.7-2,0-3
		C403.9,20.5,417.4,20.5,430.9,20.5z"/>
	<path d="M413.5,110.3c0-1,0-1.9,0-2.9c0.7-0.7,1.6-0.6,2.4-0.6c15.8,0,31.6,0,47.3,0c0.8,0,1.6,0,2.3,0.4c0.8,1,0.8,2,0.1,3
		C448.2,110.3,430.9,110.3,413.5,110.3z"/>
	<path d="M468.5,87.2c1,0,1.9,0,2.9,0c0,5.8,0,11.6,0,17.4c-1,0.7-2,0.7-3,0c-0.4-0.6-0.5-1.2-0.5-1.9c0-4.1-0.1-8.3,0-12.4
		C468,89.1,467.7,88,468.5,87.2L468.5,87.2z"/>
	<path class="st2" d="M378.8,92.9c0.1,0,0.1,0,0.2,0c2.8,0,2.8,0,2.7,2.9c-0.9,0.7-1.9,0.7-2.9,0C378.8,94.8,378.8,93.9,378.8,92.9z
		"/>
	<path class="st3" d="M378.8,95.8c1,0,1.9,0,2.9,0c0,1,0,2,0,3c-1,0.7-1.9,0.6-2.9,0C378.8,97.7,378.8,96.8,378.8,95.8z"/>
	<path d="M378.8,98.7c1,0,1.9,0,2.9,0c0.1,2.8,0.1,2.8-2.9,2.8C378.8,100.6,378.8,99.6,378.8,98.7z"/>
	<path d="M462.7,84.2c0-10.6,0-21.2,0-31.8c2.9,0,2.9,0,2.9,2.9c0,9.7,0,19.3,0,29C464.6,84.2,463.7,84.2,462.7,84.2z"/>
	<path d="M433.8,49.5c-2.9,0-2.9,0-2.9-3c0-7.7,0-15.4,0-23.1c2.9,0,2.9,0,2.9,2.9C433.8,34,433.8,41.8,433.8,49.5z"/>
	<path class="st4" d="M456.9,55.3c0,1,0,1.9,0,2.9c-2.2,0.6-2.3,2.3-2.3,4.2c0.1,6.4,0,12.7,0,19.1c0,3-0.4,3.4-3.3,3.4
		c-9.8,0-19.6,0-29.4,0c-0.9,0-1.8,0.1-2.6-0.6c0-9.6,0-19.3,0-28.9c0.1-0.1,0.2-0.1,0.2-0.2c1-0.4,2-0.2,3-0.3
		c10.8-0.1,21.6,0,32.4,0C455.6,54.7,456.4,54.7,456.9,55.3z"/>
	<path class="st4" d="M425.1,26.3c0,1,0,1.9,0,2.9c-2.2,0.6-2.4,2.2-2.3,4.1c0.1,4.5,0,9.1,0,13.6c0,0.9,0.1,1.8-0.5,2.6
		c0,0.9-0.1,1.9-0.1,2.8c-0.1,0.1-0.2,0.2-0.2,0.2c-1,0.4-2,0.5-2.8-0.5c-0.4-0.5-0.4-1.1-0.4-1.7c0-6.1-0.1-12.1,0-18.2
		c-0.2-2.4-0.2-2.4-2.5-2.4c-7.6,0-15.3,0-22.9,0c-2.2,0-2.4,0.1-2.4,2.3c0,5.7,0,11.4,0,17.2c0,2.4,0,2.4,2.4,2.5c8-0.1,16,0,24,0
		c0.7,0,1.3,0,1.9,0.5c0.8,1,0.8,2,0.1,3c0,0,0,0,0,0c-1,0-1.9,0-2.9,0.1c-0.6,0.5-1.3,0.5-2.1,0.5c-8.3,0-16.6,0-24.9,0
		c-0.7,0-1.5,0-2-0.6c0-9.6,0-19.3,0-28.9c0,0,0,0,0,0c0.9-0.8,2-0.5,3.1-0.5c10.9-0.1,21.7,0,32.6,0
		C423.8,25.8,424.5,25.8,425.1,26.3z"/>
	<path class="st3" d="M416.4,72.6c0,2.9,0,2.9-3,2.9c-6.7,0-13.5,0-20.2,0c-0.7-0.8-0.5-1.8-0.5-2.7c-0.2-0.8,0.5-2-0.7-2.4
		c-1.1-0.4-2.4-0.4-3.5,0.1c-0.9,0.4-0.4,1.5-0.5,2.3c0,0.9,0.2,1.9-0.5,2.7c-1,0-2,0-2.9,0c-1-2.7-0.6-5.4-0.3-8.1
		c0.1-0.8,1-1,1.7-1c1.3-0.1,2.5-0.1,3.8-0.1c6.1,0,12.1,0,18.2,0c0.9,0,1.9-0.2,2.7,0.6c0,1,0,1.9,0,2.9c0.4,2.2,1.8,2.6,3.7,2.3
		C415.1,72,415.8,72.1,416.4,72.6z"/>
	<path class="st3" d="M419.3,84.2c11.1,0,22.1,0,33.2,0.1c1.4,0,1.5-0.6,1.5-1.7c0-7.2,0-14.3,0-21.5c0-2.8,0-2.8,2.8-2.9
		c0,9.6,0,19.3,0,28.9c-0.6,0.7-1.4,0.6-2.2,0.6c-11.1,0-22.1,0-33.2,0c-0.8,0-1.6,0-2.2-0.6C419.3,86.1,419.3,85.2,419.3,84.2z"/>
	<path class="st4" d="M413.5,92.9c16.4,0,32.8,0,49.2,0c0.1,0.1,0.1,0.2,0.2,0.2c0.4,1,0.5,1.9-0.3,2.8c-1,0.5-2,0.3-3,0.3
		c-5.7,0.1-11.4,0.1-17.2,0c-7.6,0.1-15.1,0-22.7,0c-2.8,0-2.7,0.1-2.8,2.8c-0.1,1.8,0.4,3.6-0.5,5.3c-2.5,1-3.6,0.4-3.5-2.2
		c0-3-0.4-6.1,0.3-9.1C413.3,93.1,413.4,93,413.5,92.9z"/>
	<path d="M416.4,81.3c-4.4,0-8.8,0-13.2,0c-1,0-1.3,0.3-1.3,1.3c0.1,3.4,0,6.9,0,10.3c-0.1,0.1-0.2,0.1-0.2,0.2
		c-1,0.4-1.9,0.5-2.8-0.3c-0.7-1.4-0.3-2.9-0.4-4.4c-0.1-1.4,0-2.7,0-4.1c0-2.4,0-2.4-2.4-2.5c-1,0-2,0.2-2.9-0.5
		c-3.2,0-6.4-0.1-9.6,0c-1.7,0.1-2.3-0.4-2-2c0.1-0.3,0-0.6,0-0.9c10.6,0,21.2,0,31.8,0C416.4,78.4,416.4,78.4,416.4,81.3z"/>
	<path class="st4" d="M410.6,66.9c-8.2,0-16.4,0-24.7-0.1c-1.1,0-1.5,0.4-1.4,1.5c0.1,2.4,0,4.8,0,7.2c-0.2,0-0.5,0-0.7,0
		c-1.7,0.3-2.3-0.3-2.2-2.1c0.2-3.2,0.1-6.3,0.1-9.5c0,0,0,0,0,0c11.1,0,22.1,0,33.2,0c1,0,1.7,0,1.6,1.4c0,1.3-0.5,1.6-1.7,1.6
		C413.4,66.8,412,66.9,410.6,66.9z"/>
	<path d="M419.3,87.1c11.9,0,23.7,0,35.6,0c0.7,0,1.3,0,2-0.1c1,0,2,0,2.9,0c0,2.9,0,2.9-2.9,2.9c-11.6,0-23.2,0-34.8,0
		C419.3,90,419.3,90,419.3,87.1z"/>
	<path d="M416.4,58.2c0,2.9,0,2.9-3,2.9c-7.7,0-15.4,0-23,0c-3,0-3,0-3-2.9c0.7-0.6,1.5-0.6,2.4-0.6c8.1,0,16.1,0,24.2,0
		C414.8,57.6,415.7,57.6,416.4,58.2z"/>
	<path class="st3" d="M416.4,58.2c-9.6,0-19.3,0-28.9,0c0-1,0-2,0-3c9.6,0,19.3,0.1,28.9,0.1C416.4,56.3,416.4,57.2,416.4,58.2z"/>
	<path class="st5" d="M387.5,75.5c0-1,0-1.9,0-2.9c1.9-0.9,3.8-0.9,5.7,0c0,1,0,1.9,0,2.9C391.3,75.5,389.4,75.5,387.5,75.5z"/>
	<path d="M416.4,72.6c-1,0-2,0-3.1,0c-2.8,0-2.8,0-2.7-2.8c1,0,1.9,0,2.9,0C416.4,69.7,416.4,69.7,416.4,72.6z"/>
	<path class="st3" d="M468.5,87.1c0,1-0.1,1.9-0.1,2.9c-0.8,0.7-1.7,0.6-2.6,0.2c-0.1-0.1-0.1-0.1-0.2-0.2
		C465.6,86.7,465.1,87.1,468.5,87.1z"/>
	<path class="st3" d="M462.7,92.9c0-2.9,0-2.9,2.9-2.9c0,0,0,0,0,0c0.7,1,0.8,2.1,0,2.9C464.7,93.7,463.6,93.6,462.7,92.9
		L462.7,92.9z"/>
	<path d="M459.8,87.1c0-2.9,0-2.9,2.9-2.9C462.7,87.1,462.7,87.1,459.8,87.1z"/>
	<path class="st3" d="M425.1,26.3c-11.6,0-23.2,0-34.8,0c-0.7-1-0.6-1.9,0-2.9c0,0,0,0,0,0c12,0,24,0,36,0c1.1,0,1.8,0.1,1.7,1.5
		c-0.1,0.9-0.2,1.5-1.3,1.4C426.2,26.3,425.6,26.3,425.1,26.3z"/>
	<path class="st3" d="M456.9,55.3c-11.6,0-23.2,0-34.8,0c-0.7-1-0.6-1.9,0-2.9c0,0,0,0,0,0c12,0,24,0,36,0c1.1,0,1.8,0.1,1.7,1.5
		c-0.1,0.9-0.2,1.5-1.3,1.4C458,55.2,457.5,55.3,456.9,55.3z"/>
	<path class="st3" d="M422.2,49.5c0-6.3,0-12.6-0.1-18.9c0-1.1,0.3-1.5,1.4-1.4c0.5,0.1,1,0,1.4,0c0,6.3,0,12.6,0.1,18.9
		c0,1.1-0.3,1.5-1.4,1.4C423.2,49.4,422.7,49.5,422.2,49.5z"/>
	<path class="st2" d="M462.7,92.9c2.9,0,2.9,0,2.9-2.9c1,0,1.9,0,2.9,0c0,4.8,0,9.7,0.1,14.5c0,0,0,0,0,0c-1.6,0.3-2.6,1.3-2.9,2.9
		c0,0,0,0,0,0c-17.4,0-34.8,0-52.1,0c-2.9,0-2.9,0-2.9-2.9c0-1,0-1.9,0-2.9c-0.7-0.8-0.5-1.8-0.5-2.8c-0.1-2.4-0.1-2.4-2.5-2.5
		c-1,0-2,0.2-2.9-0.5c-0.5-1-0.6-1.9,0.1-2.9c2.9,0,5.8,0,8.7-0.1c0,2.9,0,5.9,0,8.8c0,2.8,0,2.8,2.9,2.7c0.9-0.7,2-0.5,3-0.5
		c1.9-0.1,3.9-0.1,5.8,0c11.2-0.1,22.4,0,33.6,0c3.4,0,3.3,0,3.4-3.4c0-1.6-0.4-3.3,0.5-4.8C462.7,94.8,462.7,93.9,462.7,92.9z"/>
	<path d="M404.8,92.9c0,1,0.1,1.9,0.1,2.9c0.3,2.2,1.8,2.6,3.7,2.4c0.7-0.1,1.4,0,2,0.5c0,1,0,1.9,0,2.9c-1.1,0-2.2,0.1-3.3,0
		c-1.6-0.1-3-0.1-2.5,2.2c0.2,0.7-0.4,0.7-0.9,0.7c-4.2,0-8.4,0-12.7,0c-0.7,0-1-0.2-0.9-0.9c0-0.7,0-1.3,0-2
		c0.9-0.8,1.9-0.5,2.9-0.5c1,0,2,0,2.9,0c1,0,1.9,0,2.9,0c2.3-0.1,2.3-0.2,2.4-2.5c0.1-1.9-0.5-3.8,0.5-5.6l0,0
		C402.9,92.9,403.8,92.9,404.8,92.9z"/>
	<path class="st6" d="M393.3,101.5c-1,0-2,0-2.9,0.1c0,0,0,0,0,0c-0.7-0.9-0.5-1.9-0.5-2.9c0-1,0-2,0-2.9c0-1-0.2-2,0.5-2.8
		c1,0,1.9-0.1,2.9-0.1c0.9-0.7,1.9-0.5,2.9-0.5c1,0,2-0.2,2.9,0.5c1,0,1.9,0,2.9,0c0,2.2-0.1,4.4,0,6.7c0.1,1.7-0.4,2.3-2.1,2
		c-0.3,0-0.6,0-0.9,0c-0.7-0.8-0.5-1.8-0.5-2.8c-0.1-2.4,0-2.4-2.4-2.5c-2.3,0.1-2.3,0.1-2.4,2.5C393.7,99.7,394,100.7,393.3,101.5z
		"/>
	<path class="st2" d="M396.2,92.8c-1,0-2,0-2.9,0c0-3.8,0-7.7,0-11.5c1,0,2,0,3,0c0.3,0.3,0.4,0.6,0.5,1c0.2,3.2,0.2,6.4,0,9.6
		C396.6,92.3,396.4,92.6,396.2,92.8z"/>
	<path class="st2" d="M390.4,93c0,1,0,1.9-0.1,2.9c-1.9,0.8-3.8,0.9-5.7-0.1c0-0.1,0-0.2,0-0.4c0-3.1-0.2-2.4,2.4-2.5
		C388.1,92.9,389.2,92.9,390.4,93z"/>
	<path class="st3" d="M384.6,95.8c1.9,0,3.8,0,5.7,0.1c0,1,0,1.9,0,2.9c-1.9,0.9-3.8,0.8-5.7,0C384.6,97.7,384.6,96.7,384.6,95.8z"
		/>
	<path d="M384.6,98.7c1.9,0,3.8,0,5.7,0c0,1,0,2,0,2.9c-1,0-2,0-3.1,0C384.5,101.6,384.5,101.6,384.6,98.7z"/>
	<path class="st2" d="M390.3,23.4c0,1,0,1.9,0,2.9c-1,0-1.9,0-2.9,0.1C387.5,23.5,387.5,23.5,390.3,23.4z"/>
	<path d="M465.6,107.4c0-2.9,0-2.9,2.9-2.9C468.4,107.3,468.4,107.3,465.6,107.4z"/>
	<path class="st2" d="M436.7,58.2c4.3,0,8.7,0,13,0c1.1,0,1.4,0.3,1.4,1.4c0,6.8,0,13.6,0,20.4c0,1-0.2,1.4-1.3,1.4
		c-8.8,0-17.6,0-26.4,0c-1,0-1.3-0.3-1.3-1.3c0-6.9,0-13.7,0-20.6c0-1.1,0.4-1.3,1.4-1.3C427.9,58.2,432.3,58.2,436.7,58.2z"/>
	<path class="st2" d="M422.2,52.4c0,1,0,1.9,0,2.9c-1,0-1.9,0-2.9,0.1c0-1,0-2,0-2.9l0,0C420.2,52.4,421.2,52.4,422.2,52.4z"/>
	<path class="st2" d="M393.3,52.3c-0.1,0-0.2,0-0.4,0c-2.6,0.1-2.6,0.1-2.6-2.6c0-6.3,0-12.6,0-18.9c0-1.4,0.4-1.7,1.7-1.7
		c8.2,0.1,16.3,0,24.5,0c2.8,0,2.8,0,2.7,2.9c-0.9,0.8-2,0.5-3,0.5c-6.6,0.1-13.1,0-19.7,0c-2.7,0-2.7,0-2.7,2.7
		c0,4.6,0.1,9.3,0,13.9C393.7,50.4,394,51.4,393.3,52.3z"/>
	<path class="st7" d="M416.4,32.2c0.9,0,1.9,0,2.8,0c0,6.7,0,13.5,0,20.2c0,0,0,0,0,0c-8.7,0-17.3,0-26,0c0-0.9,0-1.9,0-2.8
		c0.9-0.8,2-0.5,3-0.5c5.7-0.1,11.4,0,17.1,0c2.4,0,2.4-0.1,2.5-2.4c0-3.8-0.1-7.6,0-11.3C415.9,34.1,415.6,33.1,416.4,32.2z"/>
	<path class="st8" d="M393.2,72.6c-1.9,0-3.8,0-5.7,0c-0.2-2.9-0.2-2.9,2.7-2.9c0.1,0,0.2,0,0.4,0C393.3,69.7,393.3,69.7,393.2,72.6
		z"/>
	<path class="st3" d="M462.7,95.8c0,2.3,0,4.7,0.1,7c0.1,1.4-0.4,1.7-1.7,1.7c-12-0.1-24,0-35.9,0c-0.7-0.8-0.5-1.8-0.5-2.7
		c-0.2-0.8,0.5-2-0.7-2.4c-1.1-0.4-2.4-0.4-3.5,0.1c-0.9,0.4-0.4,1.5-0.5,2.3c0,0.9,0.2,1.9-0.5,2.7c-1,0-2,0-2.9,0
		c0-2.4,0.1-4.8,0-7.2c0-1.1,0.3-1.5,1.4-1.5c8.2,0.1,16.4,0.1,24.7,0.1c0.7,0.9,0.5,1.9,0.5,2.9c0.1,2.3,0.2,2.3,2.4,2.3
		c3.8,0,7.7,0,11.5,0c2.2,0,2.3,0,2.4-2.3c0-1-0.2-2,0.5-2.9C460.7,95.8,461.7,95.8,462.7,95.8z"/>
	<path class="st2" d="M459.8,95.8c0,1,0,1.9,0,2.9c-0.6,0.5-1.3,0.5-2,0.5c-4.4,0-8.8,0-13.2,0c-0.7,0-1.5,0-2-0.5c0-1,0-1.9,0-2.9
		C448.2,95.8,454,95.8,459.8,95.8z"/>
	<path class="st3" d="M396.2,92.8c0-3.8,0-7.6,0-11.5c2.9-0.1,2.9-0.1,2.9,2.7c0,2.9,0,5.9,0,8.8C398.1,92.9,397.1,92.8,396.2,92.8z
		"/>
	<path class="st3" d="M410.6,98.7c-1,0-2,0-3.1,0c-2.8,0-2.8,0-2.7-2.9c0.9,0,1.9,0,2.8,0C410.6,95.8,410.6,95.8,410.6,98.7z"/>
	<path class="st5" d="M419.3,104.5c0-1,0-1.9,0-2.9c1.9-0.9,3.8-0.9,5.7,0c0,1,0,1.9,0,2.9C423.1,104.5,421.2,104.5,419.3,104.5z"/>
	<path class="st4" d="M393.3,101.5c0-1,0-2,0-3c0-2.8,0-2.8,2.9-2.6c0.9,1.9,0.9,3.8,0,5.7C395.2,101.5,394.2,101.5,393.3,101.5z"/>
	<path class="st9" d="M396.1,101.5c0-1.9,0-3.8,0-5.7c2.9-0.1,2.9-0.1,2.9,2.7c0,1,0,2,0,3C398,101.5,397.1,101.5,396.1,101.5z"/>
	<path class="st10" d="M448.2,63.9c0,4.4,0,8.8,0.1,13.2c0,1-0.3,1.3-1.4,1.3c-6.3-0.1-12.6-0.1-18.9-0.1c-0.6-0.6-0.6-1.3-0.6-2
		c0-3.4,0-6.9,0-10.3c0-2.2,0.5-2.6,2.7-2.7c5.4,0,10.7,0,16.1,0C446.9,63.4,447.6,63.4,448.2,63.9z"/>
	<path d="M448.2,63.9c-6.2,0-12.4,0-18.6,0c-1.3,0-1.6,0.3-1.6,1.6c0.1,4.3,0,8.6,0,12.8c-0.2,0-0.4,0-0.5,0c-2.9,0-2.3,0.2-2.3-2.2
		c0-4.5,0-9,0-13.5c0-1.3,0.3-1.6,1.6-1.6c6.3,0.1,12.5,0,18.8,0C448.3,61.1,448.3,61.1,448.2,63.9z"/>
	<path d="M396.1,49.5c-0.9,0-1.9,0-2.8,0c0-5.4,0-10.8-0.1-16.2c0-0.9,0.3-1.1,1.1-1.1c7.3,0,14.7,0.1,22,0.1c0,0.9,0,1.9,0,2.8
		c-0.8,0.7-1.8,0.6-2.8,0.6c-4.9,0-9.8,0-14.6,0c-2.1,0-2.2,0.1-2.3,2.3c0,3,0,6,0,9C396.7,47.8,396.8,48.7,396.1,49.5z"/>
	<path class="st11" d="M396.1,49.5c0-4.3,0-8.7,0-13c0-1.2,0.3-1.5,1.5-1.5c6.3,0.1,12.5,0,18.8,0c0,4.3,0,8.7,0,13
		c0,1.2-0.4,1.5-1.5,1.5C408.6,49.5,402.4,49.5,396.1,49.5z"/>
	<path d="M442.5,98.7c5.8,0,11.5,0,17.3,0c0.1,2.9,0.1,2.9-2.7,2.9c-4.2,0-8.4-0.1-12.6,0c-1.6,0-2.4-0.3-2-2
		C442.5,99.3,442.5,99,442.5,98.7z"/>
	<path class="st8" d="M425,101.6c-1.9,0-3.8,0-5.7,0c-0.2-2.9-0.2-2.9,2.7-2.9c0.1,0,0.2,0,0.4,0C425.2,98.7,425.2,98.7,425,101.6z"
		/>
	<path class="st12" d="M433.8,69.7c0,0.4,0,0.8,0,1.3c0.2,1.2-0.2,1.7-1.5,1.7c-1.4,0-1.4-0.7-1.4-1.7c0-0.7,0-1.4,0-2.2
		c0-1.1-0.3-2.1,1.5-2.1c1.8,0,1.3,1.1,1.4,2C433.8,69.1,433.8,69.4,433.8,69.7z"/>
	<path class="st12" d="M401.9,40.8c0,0.4,0,0.8,0,1.3c0.2,1.2-0.2,1.7-1.5,1.7c-1.3,0-1.5-0.5-1.4-1.6c0.1-0.7,0-1.4,0-2.2
		c0.1-1-0.5-2.1,1.4-2.1c1.9,0,1.5,1.1,1.5,2.1C401.9,40.2,401.9,40.5,401.9,40.8z"/>
</g>
</svg>
